<svg width="40" height="25" viewBox="0 0 40 25" fill="none" xmlns="http://www.w3.org/2000/svg">
<path d="M12.005 11.8523L10.978 16.1014H13.019L12.0282 11.8523H12.005Z" fill="#F7981F"/>
<path d="M1.98755 16.4766V17.095C1.98755 20.1695 5.31091 23.2793 9.40776 23.2793H31.2598C35.3567 23.2793 38.68 20.1686 38.68 17.095V16.4766C38.68 13.6184 35.8033 10.0295 32.1048 9.71377C32.0222 7.15834 29.9301 5.1127 27.357 5.1127C26.3579 5.1127 25.4312 5.42284 24.666 5.94842C23.1989 2.67984 19.9238 0.398346 16.1083 0.398346C10.9278 0.398346 6.72884 4.59641 6.72884 9.77877C6.72884 9.87163 6.73998 9.95984 6.74276 10.0508C3.96355 10.8559 1.98755 14.1096 1.98755 16.4766ZM13.7795 19.3133L13.2483 17.2008H10.7254L10.1692 19.3133H8.73269L11.1832 10.6934H12.9456L15.215 19.3133H13.7795ZM22.1478 19.3133H20.5543L19.4438 12.8189H19.4196L18.3211 19.3133H16.7277L15.0609 10.6934H16.4501L17.5838 17.3931H17.6089L18.7427 10.6934H20.1922L21.351 17.4293H21.3752L22.4978 10.6934H23.8619L22.1478 19.3133ZM27.1927 19.4814C25.056 19.4814 24.5732 18.0579 24.5732 16.8498V16.6446H25.9493V16.8619C25.9493 17.9121 26.408 18.4433 27.3617 18.4433C28.2308 18.4433 28.6645 17.8267 28.6645 17.186C28.6645 16.2806 28.2067 15.8823 27.4341 15.6538L26.4916 15.327C25.2353 14.8441 24.693 14.1932 24.693 12.9619C24.693 11.3917 25.7553 10.5226 27.3728 10.5226C29.5819 10.5226 29.8113 11.8987 29.8113 12.7911V12.9851H28.4351V12.8041C28.4351 12.0185 28.0851 11.5598 27.228 11.5598C26.6365 11.5598 26.0691 11.8866 26.0691 12.8041C26.0691 13.5404 26.4433 13.9137 27.3617 14.2638L28.2903 14.6027C29.5095 15.0363 30.0415 15.7021 30.0415 16.8842C30.0425 18.7218 28.931 19.4814 27.1927 19.4814Z" fill="#F7981F"/>
<path d="M11.1832 10.6934L8.73267 19.3134H10.1692L10.7254 17.2008H13.2483L13.7795 19.3134H15.216L12.9465 10.6934H11.1832ZM10.978 16.1014L12.004 11.8523H12.0272L13.0171 16.1014H10.978Z" fill="white"/>
<path d="M21.3752 17.4293H21.3501L20.1913 10.6934H18.7427L17.6089 17.3921H17.5838L16.4501 10.6934H15.0609L16.7277 19.3134H18.3211L19.4187 12.8189H19.4438L20.5543 19.3134H22.1478L23.861 10.6934H22.4978L21.3752 17.4293Z" fill="white"/>
<path d="M28.2912 14.6055L27.3626 14.2666C26.4452 13.9165 26.07 13.5432 26.07 12.8069C26.07 11.8894 26.6374 11.5626 27.2289 11.5626C28.086 11.5626 28.436 12.0213 28.436 12.8069V12.9879H29.8122V12.7939C29.8122 11.9015 29.5828 10.5254 27.3737 10.5254C25.7562 10.5254 24.6939 11.3945 24.6939 12.9647C24.6939 14.196 25.2362 14.8469 26.4925 15.3298L27.435 15.6566C28.2076 15.8851 28.6654 16.2844 28.6654 17.1888C28.6654 17.8286 28.2308 18.4461 27.3626 18.4461C26.409 18.4461 25.9502 17.9149 25.9502 16.8647V16.6474H24.5741V16.8526C24.5741 18.0607 25.0579 19.4842 27.1936 19.4842C28.9319 19.4842 30.0424 18.7246 30.0424 16.8889C30.0424 15.704 29.5104 15.0382 28.2912 14.6055Z" fill="white"/>
</svg>

