<svg width="32" height="29" viewBox="0 0 32 29" fill="none" xmlns="http://www.w3.org/2000/svg">
<g clip-path="url(#clip0)">
<path d="M10.1948 23.8103L4.57739 14.0809L10.1948 4.35138H21.4293L27.0467 14.0809L21.4293 23.8103H10.1948Z" fill="#CAC9C2"/>
<path d="M15.9996 18.5219C13.5853 18.5219 11.6211 16.5577 11.6211 14.1434C11.6211 11.7292 13.5853 9.76495 15.9996 9.76495C18.4139 9.76495 20.378 11.7292 20.378 14.1434C20.378 16.5577 18.4139 18.5219 15.9996 18.5219Z" fill="white"/>
<path d="M24.8084 1.08955C24.4641 0.49334 23.6192 0.00552368 22.9306 0.00552368H9.08777C8.39932 0.00552368 7.55431 0.49334 7.21012 1.08955L3.16527 8.09551C3.13352 8.54813 3.21659 9.02093 3.41608 9.36642L6.15408 14.0477L11.0418 5.60364H26.4906C26.856 5.60364 27.265 5.74195 27.6205 5.96006L24.8084 1.08955Z" fill="#5072AA"/>
<path d="M3.34105 7.78888L3.16407 8.0955C3.13227 8.54812 3.21538 9.02092 3.41487 9.36641L6.15287 14.0477L7.60953 11.5311L3.34105 7.78888Z" fill="#4D6796"/>
<path d="M9.44442 3.60464C8.97862 3.60464 8.59961 3.22564 8.59961 2.75984C8.59961 2.294 8.97862 1.91507 9.44442 1.91507C9.9103 1.91507 10.2892 2.294 10.2892 2.75984C10.2892 3.22564 9.9103 3.60464 9.44442 3.60464Z" fill="white"/>
<path d="M23.2871 2.75987C23.2871 3.19191 22.9369 3.54211 22.5049 3.54211C22.0729 3.54211 21.7227 3.19191 21.7227 2.75987C21.7227 2.32783 22.0729 1.97763 22.5049 1.97763C22.9369 1.97763 23.2871 2.32783 23.2871 2.75987Z" fill="white"/>
<path d="M31.7299 13.078L27.6204 5.96006C27.265 5.74195 26.856 5.60364 26.4905 5.60364H20.9195L25.7366 14.0943L18.1101 27.5684C17.9423 27.859 17.6553 28.1233 17.3257 28.3184H22.9306C23.6191 28.3184 24.4641 27.8306 24.8083 27.2345L31.7299 15.2461C32.0742 14.6499 32.0742 13.6743 31.7299 13.078Z" fill="#CC4232"/>
<path d="M27.8059 6.27932L27.6217 5.96006C27.2664 5.74195 26.8574 5.60364 26.4919 5.60364H20.9209L22.371 8.15963L27.8059 6.27932Z" fill="#B23F33"/>
<path d="M22.505 26.2477C22.0391 26.2477 21.6602 25.8687 21.6602 25.4029C21.6602 24.937 22.0391 24.5581 22.505 24.5581C22.9708 24.5581 23.3498 24.937 23.3498 25.4029C23.3498 25.8687 22.9708 26.2477 22.505 26.2477Z" fill="white"/>
<path d="M29.0794 14.9882C28.6136 14.9882 28.2346 14.6093 28.2346 14.1434C28.2346 13.6776 28.6136 13.2986 29.0794 13.2986C29.5453 13.2986 29.9242 13.6776 29.9242 14.1434C29.9242 14.6093 29.5453 14.9882 29.0794 14.9882Z" fill="white"/>
<path d="M11.1481 22.5862L3.41593 9.36644C3.21644 9.02094 3.13337 8.54814 3.16513 8.09552L0.288442 13.078C-0.0557828 13.6743 -0.0557828 14.6499 0.288442 15.2461L7.20998 27.2345C7.55416 27.8306 8.39917 28.3184 9.08762 28.3184H17.3256C17.6552 28.1233 17.9422 27.859 18.11 27.5685L20.9298 22.5862H11.1481Z" fill="#ECB02A"/>
<path d="M16.8572 28.3184H17.3362C17.6659 28.1233 17.9527 27.859 18.1205 27.5684L20.9405 22.5862H17.9375L16.8572 28.3184Z" fill="#C79732"/>
<path d="M9.44442 26.2477C8.97862 26.2477 8.59961 25.8687 8.59961 25.4029C8.59961 24.9371 8.97862 24.5581 9.44442 24.5581C9.9103 24.5581 10.2892 24.9371 10.2892 25.4029C10.2892 25.8687 9.9103 26.2477 9.44442 26.2477Z" fill="white"/>
<path d="M2.85824 14.9882C2.39244 14.9882 2.01343 14.6093 2.01343 14.1435C2.01343 13.6777 2.39244 13.2986 2.85824 13.2986C3.32408 13.2986 3.70304 13.6777 3.70304 14.1435C3.70304 14.6093 3.32408 14.9882 2.85824 14.9882Z" fill="white"/>
</g>
<defs>
<clipPath id="clip0">
<rect width="32" height="28.375" fill="white"/>
</clipPath>
</defs>
</svg>

