<svg width="24" height="24" viewBox="0 0 24 24" fill="none" xmlns="http://www.w3.org/2000/svg">
<path fill-rule="evenodd" clip-rule="evenodd" d="M7 5H5V7H7V5ZM4 4V8H8V4H4Z" fill="black"/>
<path fill-rule="evenodd" clip-rule="evenodd" d="M13 5H11V7H13V5ZM10 4V8H14V4H10Z" fill="black"/>
<path fill-rule="evenodd" clip-rule="evenodd" d="M19 5H17V7H19V5ZM16 4V8H20V4H16Z" fill="black"/>
<path fill-rule="evenodd" clip-rule="evenodd" d="M7 11H5V13H7V11ZM4 10V14H8V10H4Z" fill="black"/>
<path fill-rule="evenodd" clip-rule="evenodd" d="M13 11H11V13H13V11ZM10 10V14H14V10H10Z" fill="black"/>
<path fill-rule="evenodd" clip-rule="evenodd" d="M19 11H17V13H19V11ZM16 10V14H20V10H16Z" fill="black"/>
<path fill-rule="evenodd" clip-rule="evenodd" d="M7 17H5V19H7V17ZM4 16V20H8V16H4Z" fill="black"/>
<path fill-rule="evenodd" clip-rule="evenodd" d="M13 17H11V19H13V17ZM10 16V20H14V16H10Z" fill="black"/>
<path fill-rule="evenodd" clip-rule="evenodd" d="M19 17H17V19H19V17ZM16 16V20H20V16H16Z" fill="black"/>
</svg>
