<svg width="133" height="16" viewBox="0 0 133 16" fill="none" xmlns="http://www.w3.org/2000/svg">
<path fill="#ffffff" d="M67.7,3.2V13h-2.6V9.1h-3.8V13h-2.6V3.2h2.6v3.7h3.8V3.2H67.7z"/>
<path fill="#ffffff" d="M71.7,9.9V13h-2.5V3.2h4.3c0.5,0,1,0.1,1.5,0.2c0.4,0.1,0.8,0.4,1.1,0.7c0.3,0.3,0.6,0.6,0.7,1.1
	C76.9,5.5,77,6,77,6.6s-0.1,1-0.3,1.5c-0.2,0.4-0.4,0.8-0.7,1.1c-0.3,0.3-0.7,0.5-1.1,0.6c-0.4,0.1-0.9,0.2-1.5,0.2H71.7z M74.5,6.6
	c0-0.4-0.1-0.7-0.3-0.9c-0.2-0.2-0.6-0.3-1-0.3h-1.5v2.5h1.5c0.5,0,0.8-0.1,1-0.3C74.4,7.2,74.5,6.9,74.5,6.6z"/>
<path fill="#ffffff" d="M85.1,3.2v2.2h-4.5v1.5h4.1v2.2h-4.1v1.7h4.5V13h-7V3.2H85.1z"/>
<path fill="#ffffff" d="M89.7,8.1c0-1.5,0.4-2.7,1.3-3.7C91.9,3.5,93,3,94.3,3c0.6,0,1.1,0.1,1.5,0.2c0.4,0.1,0.8,0.4,1.1,0.6v1.3
	c-0.4-0.4-0.8-0.6-1.2-0.8c-0.4-0.2-0.9-0.3-1.4-0.3c-1,0-1.8,0.4-2.4,1.1c-0.6,0.7-0.9,1.7-0.9,2.8c0,1.2,0.3,2.1,0.9,2.8
	c0.6,0.7,1.4,1.1,2.4,1.1c0.5,0,1-0.1,1.4-0.2c0.4-0.2,0.8-0.4,1.2-0.8v1.3c-0.3,0.3-0.7,0.5-1.1,0.6c-0.4,0.1-0.9,0.2-1.5,0.2
	c-1.3,0-2.4-0.5-3.3-1.4C90.1,10.8,89.7,9.6,89.7,8.1z"/>
<path fill="#ffffff" d="M102.4,5.9v1.2C102.3,7,102.2,7,102.1,7c-0.1,0-0.3,0-0.4,0c-0.4,0-0.7,0.1-1,0.4c-0.3,0.2-0.5,0.6-0.6,1V13
	h-1.2V5.9h1.2v0.9c0.1-0.3,0.4-0.5,0.7-0.8c0.3-0.2,0.7-0.3,1.1-0.3c0.1,0,0.3,0,0.4,0C102.3,5.8,102.4,5.8,102.4,5.9z"/>
<path fill="#ffffff" d="M107.7,11.2v-0.7c-0.1-0.3-0.3-0.5-0.6-0.6c-0.3-0.2-0.7-0.2-1-0.2c-0.4,0-0.8,0.1-1.2,0.3
	c-0.4,0.2-0.5,0.5-0.5,0.9s0.2,0.7,0.5,1c0.4,0.2,0.7,0.3,1.2,0.3c0.4,0,0.7-0.1,1-0.2C107.4,11.7,107.6,11.5,107.7,11.2z
	 M107.7,9.2V8.3c0-0.4-0.2-0.8-0.5-1c-0.3-0.3-0.7-0.4-1.2-0.4c-0.4,0-0.8,0.1-1.1,0.2c-0.3,0.1-0.6,0.3-0.9,0.4V6.3
	c0.2-0.2,0.5-0.3,0.9-0.4c0.4-0.1,0.8-0.2,1.3-0.2c0.8,0,1.5,0.2,2,0.7c0.5,0.4,0.7,1,0.7,1.8V13h-1.2v-0.5
	c-0.1,0.1-0.4,0.3-0.7,0.4c-0.3,0.1-0.7,0.2-1.1,0.2c-0.7,0-1.3-0.2-1.9-0.6c-0.5-0.4-0.8-1-0.8-1.7c0-0.7,0.3-1.2,0.8-1.6
	c0.5-0.4,1.2-0.6,1.9-0.6c0.4,0,0.7,0.1,1,0.2C107.3,8.9,107.5,9.1,107.7,9.2z"/>
<path fill="#ffffff" d="M112.9,15.7h-1.2l1.1-2.7L110,5.9h1.3l2.1,5.6l2.1-5.6h1.2L112.9,15.7z"/>
<path fill="#ffffff" d="M125.3,4.7l-1.6,4.2h3.2L125.3,4.7z M128.5,13l-1.1-3h-4l-1.1,3h-1.3l3.8-9.8h1.2l3.8,9.8H128.5z"/>
<path fill="#ffffff" d="M132.5,3.2V13h-1.3V3.2H132.5z"/>
<rect x="1.5" y="3.5" width="41" height="9" stroke="#01A982" stroke-width="3"/>
</svg>
