<svg width="241" height="38" viewBox="0 0 241 38" fill="none" xmlns="http://www.w3.org/2000/svg">
<g clip-path="url(#clip0)">
<path d="M85.275 17.3C85.35 21.875 82.575 26.475 76.3 26.475C74.1 26.475 71.45 26.475 69.25 26.475V8.47498C71.45 8.47498 74.1 8.47498 76.3 8.47498C82.45 8.47498 85.2 12.85 85.275 17.3ZM72.6 23.2H76.3C80.375 23.2 82 20.225 81.925 17.275C81.85 14.475 80.2 11.675 76.3 11.675H72.6V23.2Z" fill="white"/>
<path d="M90.3 21.25C90.5 22.825 91.875 23.95 94.075 23.95C95.225 23.95 96.75 23.525 97.475 22.775L99.475 24.75C98.15 26.125 95.95 26.8 94.025 26.8C89.65 26.8 87.075 24.1 87.075 20.05C87.075 16.2 89.7 13.425 93.8 13.425C98.025 13.425 100.675 16.05 100.2 21.25H90.3ZM97.175 18.675C96.975 17.025 95.675 16.2 93.9 16.2C92.2 16.2 90.825 17.025 90.35 18.675H97.175Z" fill="white"/>
<path d="M106.275 10.25V13.85H109.775V16.55H106.25V22C106.25 23.2 106.925 23.8 107.9 23.8C108.4 23.8 108.95 23.65 109.425 23.425L110.3 26.1C109.4 26.45 108.65 26.625 107.7 26.65C104.95 26.75 103.15 25.175 103.15 22.025V16.525H100.8V13.825H103.15V10.575L106.275 10.25Z" fill="white"/>
<path d="M114.6 21.25C114.8 22.825 116.175 23.95 118.375 23.95C119.525 23.95 121.05 23.525 121.775 22.775L123.775 24.75C122.45 26.125 120.25 26.8 118.325 26.8C113.95 26.8 111.375 24.1 111.375 20.05C111.375 16.2 114 13.425 118.1 13.425C122.325 13.425 124.975 16.05 124.5 21.25H114.6ZM121.475 18.675C121.275 17.025 119.975 16.2 118.2 16.2C116.5 16.2 115.125 17.025 114.65 18.675H121.475Z" fill="white"/>
<path d="M129.6 13.8L129.825 15.275C130.8 13.7 132.1 13.475 133.4 13.475C134.7 13.475 135.975 14 136.65 14.675L135.25 17.4C134.6 16.85 134.025 16.575 133 16.575C131.35 16.575 129.85 17.45 129.85 19.775V26.45H126.725V13.8H129.6Z" fill="white"/>
<path d="M146.075 26.475V19.7C146.075 18.025 145.2 16.525 143.475 16.525C141.775 16.525 140.775 18.05 140.775 19.7V26.475H137.65V13.775H140.55L140.775 15.325C141.45 14.05 142.9 13.575 144.125 13.575C145.65 13.575 147.15 14.2 147.875 15.95C149 14.15 150.475 13.65 152.1 13.65C155.7 13.65 157.475 15.85 157.475 19.65V26.475H154.35V19.65C154.35 17.975 153.65 16.575 151.95 16.575C150.25 16.575 149.2 18.05 149.2 19.7V26.475H146.075Z" fill="white"/>
<path d="M163.875 10.25C163.875 12.7 160.175 12.7 160.175 10.25C160.175 7.79998 163.875 7.79998 163.875 10.25ZM160.45 13.75V26.475H163.575V13.75H160.45Z" fill="white"/>
<path d="M175.55 26.475V19.85C175.55 17.925 174.5 16.45 172.5 16.45C170.575 16.45 169.275 18.075 169.275 20V26.475H166.175V13.775H168.975L169.175 15.5C170.45 14.25 171.75 13.6 173.325 13.6C176.3 13.6 178.7 15.825 178.7 19.825V26.475H175.55Z" fill="white"/>
<path d="M183.85 21.25C184.05 22.825 185.425 23.95 187.625 23.95C188.775 23.95 190.3 23.525 191.025 22.775L193.025 24.75C191.7 26.125 189.5 26.8 187.575 26.8C183.2 26.8 180.625 24.1 180.625 20.05C180.625 16.2 183.25 13.425 187.35 13.425C191.575 13.425 194.225 16.05 193.75 21.25H183.85ZM190.725 18.675C190.525 17.025 189.225 16.2 187.45 16.2C185.75 16.2 184.375 17.025 183.9 18.675H190.725Z" fill="white"/>
<path d="M209.1 8.52502V26.475H206.175L205.975 24.725C205 26.25 203.425 26.75 201.9 26.75C198.175 26.75 195.375 24.275 195.375 20.125C195.375 15.75 198.125 13.5 201.825 13.5C203.15 13.5 205.25 14.225 205.975 15.525V8.52502H209.1ZM198.5 20.125C198.5 22.325 200.1 23.85 202.1 23.85C204.075 23.85 205.775 22.4 205.775 20.125C205.775 17.925 204.075 16.425 202.1 16.425C200.1 16.425 198.5 17.85 198.5 20.125Z" fill="white"/>
<path d="M230.35 23.075H220.95L219.4 26.475H215.725L223.8 8.47498H227.5L235.575 26.475H231.875L230.35 23.075ZM225.65 12.25L222.3 19.925H228.975L225.65 12.25Z" fill="#F67B21"/>
<path d="M240.025 8.47498H236.65V26.475H240.025V8.47498Z" fill="#F67B21"/>
<path fill-rule="evenodd" clip-rule="evenodd" d="M13.15 3.35002C15.1 3.25002 16.775 4.72503 16.875 6.67502C16.975 8.62502 15.5 10.3 13.55 10.425C11.6 10.525 9.92501 9.05002 9.82501 7.10002C9.70001 5.12502 11.2 3.45002 13.15 3.35002ZM19.85 0.475025C20.925 0.425025 21.825 1.22502 21.9 2.30002C21.95 3.37502 21.15 4.30002 20.075 4.35002C19 4.40002 18.1 3.60002 18.025 2.52502C17.95 1.47502 18.775 0.550025 19.85 0.475025ZM44.75 10.925C45.825 10.875 46.725 11.675 46.8 12.75C46.85 13.825 46.05 14.75 44.975 14.8C43.9 14.85 43 14.05 42.925 12.975C42.875 11.9 43.675 11 44.75 10.925ZM2.95001 16.875C4.55001 16.775 5.95002 18.025 6.02501 19.625C6.12501 21.25 4.87501 22.625 3.27501 22.7C1.67501 22.8 0.275015 21.55 0.200015 19.95C0.125015 18.35 1.35001 16.975 2.95001 16.875ZM10.275 23.525C11.35 23.475 12.25 24.275 12.325 25.35C12.375 26.425 11.575 27.35 10.5 27.4C9.42501 27.45 8.52501 26.65 8.45001 25.575C8.37501 24.5 9.20001 23.6 10.275 23.525ZM34.8 31.475C36.45 31.4 37.875 32.675 37.95 34.35C38.05 36.025 36.75 37.475 35.075 37.575C33.4 37.675 31.95 36.375 31.85 34.7C31.8 33.95 32.05 33.225 32.475 32.675C32.125 31.275 31.475 30.025 30.625 28.875C30.5 28.9 30.375 28.9 30.25 28.925C28.175 29.05 26.425 27.45 26.3 25.4C26.275 24.75 26.4 24.15 26.65 23.6C25.625 22.25 24.375 21.1 22.775 20.2L22.75 20.175C22.35 20.35 21.875 20.475 21.4 20.5C19.325 20.625 17.525 19.025 17.425 16.925C17.3 14.825 18.9 13.05 20.975 12.925C23.05 12.8 24.85 14.4 24.95 16.5C24.975 17.075 24.875 17.625 24.7 18.125C25.575 19.625 26.825 20.85 28.3 21.85C28.75 21.6 29.275 21.475 29.825 21.425C30.625 21.375 31.375 21.6 32 21.975C33.75 21 35.325 19.7 36.6 17.875C36.575 17.775 36.575 17.675 36.575 17.575C36.475 16 37.675 14.675 39.25 14.575C40.825 14.475 42.15 15.675 42.25 17.25C42.35 18.825 41.15 20.15 39.575 20.25C39.175 20.275 38.775 20.2 38.425 20.075L38.4 20.1C36.525 21.025 34.95 22.35 33.575 23.875C33.7 24.225 33.775 24.575 33.8 24.975C33.875 26.075 33.425 27.125 32.7 27.85C33.1 29.1 33.825 30.325 34.8 31.475ZM18.525 22.55C20.275 22.45 21.75 23.775 21.85 25.525C21.95 27.275 20.625 28.775 18.875 28.85C17.125 28.95 15.65 27.625 15.55 25.875C15.525 25.45 15.575 25.05 15.725 24.65C15.175 23.2 14.05 22.175 12.6 21.425C12.275 21.55 11.925 21.625 11.575 21.65C9.65001 21.75 7.97501 20.275 7.87501 18.325C7.77501 16.4 9.25001 14.75 11.175 14.625C13.1 14.525 14.775 16 14.875 17.95C14.9 18.5 14.8 19 14.625 19.475C15.275 20.875 16.3 21.95 17.725 22.675C17.75 22.675 17.75 22.7 17.775 22.7C18.025 22.625 18.275 22.575 18.525 22.55ZM39.225 23.65C39.575 23.625 39.925 23.675 40.225 23.775L40.25 23.75C42.2 23.025 43.575 21.925 44.3 20.4L44.325 20.375C44.35 19.25 45.225 18.3 46.375 18.225C47.575 18.15 48.6 19.075 48.675 20.275C48.75 21.475 47.825 22.5 46.625 22.575C46.45 22.575 46.3 22.575 46.125 22.55C44.425 23.25 43.05 24.375 42.05 25.95C42.05 26.025 42.075 26.1 42.075 26.175C42.15 27.65 41.025 28.925 39.55 29.025C38.075 29.1 36.8 27.975 36.7 26.475C36.625 25 37.75 23.75 39.225 23.65ZM22.125 6.32502C22.575 6.30002 22.975 6.37502 23.35 6.55002H23.375C24.7 6.17502 25.825 5.45002 26.625 4.27502C26.6 4.12502 26.575 3.95002 26.575 3.77502C26.475 1.82502 27.95 0.175025 29.875 0.0500247C31.8 -0.0499753 33.475 1.42502 33.575 3.37502C33.675 5.32502 32.2 6.97502 30.275 7.10002C29.525 7.15002 28.825 6.95002 28.25 6.57502C26.95 6.80002 25.85 7.52502 25 8.87502V8.90002C25.075 10.4 23.95 11.675 22.45 11.775C20.95 11.85 19.675 10.725 19.6 9.22503C19.475 7.70003 20.625 6.42502 22.125 6.32502ZM38.575 5.45002C40.075 5.37502 41.35 6.50002 41.425 8.00002C41.5 9.50002 40.375 10.775 38.875 10.875C38.425 10.9 38.025 10.825 37.625 10.65L37.6 10.675C36.125 11.025 34.975 11.875 34.05 13.125C34.075 13.275 34.1 13.45 34.1 13.6C34.2 15.525 32.75 17.15 30.825 17.275C28.925 17.375 27.275 15.925 27.175 14C27.075 12.075 28.525 10.45 30.45 10.325C31.175 10.275 31.85 10.475 32.425 10.825C33.85 10.375 35.05 9.55002 35.975 8.37502V8.32502C35.95 6.80002 37.075 5.52502 38.575 5.45002ZM5.10001 7.97503C6.70001 7.87503 8.10002 9.12502 8.17501 10.725C8.27501 12.35 7.02501 13.725 5.42501 13.8C3.82502 13.9 2.42501 12.65 2.35001 11.05C2.25001 9.45002 3.47501 8.05002 5.10001 7.97503Z" fill="#F67B21"/>
</g>
<defs>
<clipPath id="clip0">
<path d="M0 0H240.25V37.75H0V0Z" fill="white"/>
</clipPath>
</defs>
</svg>
