<svg width="1024" height="1024" viewBox="0 0 1024 1024" fill="none" xmlns="http://www.w3.org/2000/svg">
<ellipse opacity="0.03" cx="512" cy="844" rx="400" ry="60" fill="black"/>
<ellipse opacity="0.03" cx="512" cy="844" rx="300" ry="40" fill="black"/>
<ellipse opacity="0.04" cx="502" cy="844" rx="200" ry="20" fill="black"/>
<rect opacity="0.2" x="267" y="157" width="490" height="490" rx="95" fill="white" stroke="black" stroke-width="10"/>
<g opacity="0.4">
<path d="M350.234 346.734V245.25H335.781V359H405.859V346.734H350.234Z" fill="black"/>
<path d="M503.984 308.688V295.719C503.932 291.656 503.568 287.542 502.891 283.375C502.266 279.208 501.276 275.198 499.922 271.344C498.516 267.49 496.745 263.896 494.609 260.562C492.526 257.177 490.026 254.234 487.109 251.734C484.193 249.234 480.833 247.281 477.031 245.875C473.229 244.417 468.984 243.688 464.297 243.688C459.609 243.688 455.365 244.417 451.562 245.875C447.812 247.281 444.479 249.234 441.562 251.734C438.646 254.286 436.12 257.255 433.984 260.641C431.901 263.974 430.182 267.568 428.828 271.422C427.422 275.276 426.38 279.286 425.703 283.453C425.078 287.568 424.74 291.656 424.688 295.719V308.688C424.74 312.75 425.104 316.839 425.781 320.953C426.458 325.068 427.5 329.052 428.906 332.906C430.26 336.76 432.005 340.38 434.141 343.766C436.276 347.099 438.802 350.016 441.719 352.516C444.635 355.016 447.969 356.995 451.719 358.453C455.521 359.859 459.766 360.562 464.453 360.562C469.141 360.562 473.359 359.859 477.109 358.453C480.911 356.995 484.271 355.016 487.188 352.516C490.104 350.016 492.604 347.099 494.688 343.766C496.823 340.432 498.568 336.839 499.922 332.984C501.276 329.13 502.266 325.146 502.891 321.031C503.568 316.865 503.932 312.75 503.984 308.688ZM489.688 295.562V308.688C489.635 311.396 489.453 314.234 489.141 317.203C488.88 320.172 488.385 323.089 487.656 325.953C486.875 328.87 485.859 331.656 484.609 334.312C483.411 336.917 481.901 339.208 480.078 341.188C478.203 343.219 475.964 344.833 473.359 346.031C470.807 347.229 467.839 347.828 464.453 347.828C461.068 347.828 458.099 347.229 455.547 346.031C452.995 344.833 450.781 343.219 448.906 341.188C447.031 339.208 445.469 336.891 444.219 334.234C442.969 331.578 441.953 328.792 441.172 325.875C440.391 323.01 439.818 320.094 439.453 317.125C439.141 314.156 438.958 311.344 438.906 308.688V295.562C438.958 292.906 439.141 290.12 439.453 287.203C439.818 284.234 440.391 281.292 441.172 278.375C441.901 275.51 442.891 272.776 444.141 270.172C445.391 267.516 446.953 265.172 448.828 263.141C450.703 261.161 452.917 259.573 455.469 258.375C458.021 257.177 460.964 256.578 464.297 256.578C467.682 256.578 470.651 257.177 473.203 258.375C475.755 259.521 477.969 261.083 479.844 263.062C481.719 265.094 483.281 267.438 484.531 270.094C485.781 272.698 486.797 275.432 487.578 278.297C488.307 281.214 488.828 284.156 489.141 287.125C489.453 290.042 489.635 292.854 489.688 295.562Z" fill="black"/>
<path d="M599.688 344.078L599.453 302.359H562.578V314.547H585.703L585.547 340.094C584.349 341.812 582.865 343.219 581.094 344.312C579.323 345.354 577.422 346.188 575.391 346.812C573.359 347.438 571.25 347.854 569.062 348.062C566.927 348.271 564.87 348.349 562.891 348.297C559.453 348.245 556.38 347.646 553.672 346.5C550.964 345.302 548.594 343.714 546.562 341.734C544.479 339.755 542.708 337.464 541.25 334.859C539.792 332.255 538.594 329.495 537.656 326.578C536.719 323.661 536.016 320.693 535.547 317.672C535.13 314.599 534.896 311.63 534.844 308.766V295.406C534.844 292.594 535.026 289.677 535.391 286.656C535.755 283.635 536.354 280.667 537.188 277.75C538.021 274.833 539.089 272.073 540.391 269.469C541.693 266.812 543.333 264.495 545.312 262.516C547.292 260.536 549.609 258.974 552.266 257.828C554.922 256.63 557.969 256.031 561.406 256.031C565 256.031 568.151 256.604 570.859 257.75C573.568 258.844 575.911 260.38 577.891 262.359C579.818 264.339 581.38 266.734 582.578 269.547C583.776 272.307 584.661 275.328 585.234 278.609H599.531C599.062 273.297 597.812 268.505 595.781 264.234C593.75 259.911 591.068 256.214 587.734 253.141C584.401 250.12 580.495 247.802 576.016 246.188C571.536 244.521 566.641 243.688 561.328 243.688C556.536 243.688 552.214 244.391 548.359 245.797C544.505 247.203 541.068 249.104 538.047 251.5C534.974 253.948 532.344 256.839 530.156 260.172C527.969 263.453 526.146 267.021 524.688 270.875C523.229 274.729 522.135 278.766 521.406 282.984C520.729 287.151 520.365 291.344 520.312 295.562V308.766C520.365 313.036 520.781 317.281 521.562 321.5C522.396 325.667 523.62 329.651 525.234 333.453C526.797 337.307 528.75 340.875 531.094 344.156C533.438 347.438 536.172 350.276 539.297 352.672C542.422 355.12 545.938 357.047 549.844 358.453C553.802 359.807 558.125 360.51 562.812 360.562C567.448 360.615 571.875 360.094 576.094 359C580.312 357.958 584.245 356.344 587.891 354.156C590.026 352.906 592.083 351.448 594.062 349.781C596.042 348.062 597.917 346.161 599.688 344.078Z" fill="black"/>
<path d="M681.719 330.25C681.719 333.375 681.042 336.083 679.688 338.375C678.333 340.615 676.589 342.464 674.453 343.922C672.318 345.432 669.87 346.552 667.109 347.281C664.401 347.958 661.641 348.297 658.828 348.297C655.286 348.297 652.005 347.828 648.984 346.891C646.016 345.901 643.385 344.443 641.094 342.516C638.802 340.641 636.927 338.349 635.469 335.641C634.01 332.88 633.047 329.729 632.578 326.188H617.812C617.969 331.083 619.036 335.536 621.016 339.547C623.047 343.505 625.781 346.969 629.219 349.938C633.073 353.375 637.604 356.005 642.812 357.828C648.073 359.651 653.411 360.562 658.828 360.562C663.359 360.562 667.891 359.938 672.422 358.688C676.953 357.385 681.016 355.458 684.609 352.906C688.203 350.406 691.12 347.255 693.359 343.453C695.651 339.651 696.797 335.198 696.797 330.094C696.797 325.042 695.729 320.589 693.594 316.734C691.51 312.88 688.75 309.625 685.312 306.969C681.823 304.104 677.969 301.76 673.75 299.938C669.531 298.062 665.312 296.474 661.094 295.172C658.542 294.391 655.807 293.479 652.891 292.438C650.026 291.396 647.37 290.094 644.922 288.531C642.422 286.969 640.365 285.068 638.75 282.828C637.135 280.536 636.302 277.75 636.25 274.469C636.25 271.448 636.849 268.792 638.047 266.5C639.297 264.208 640.964 262.281 643.047 260.719C645.078 259.156 647.396 257.984 650 257.203C652.656 256.422 655.365 256.031 658.125 256.031C661.562 256.031 664.635 256.578 667.344 257.672C670.104 258.714 672.474 260.198 674.453 262.125C676.432 264.052 678.021 266.37 679.219 269.078C680.417 271.734 681.224 274.703 681.641 277.984H696.484C696.38 272.776 695.26 268.062 693.125 263.844C690.99 259.625 688.151 256.031 684.609 253.062C681.068 250.094 677.005 247.802 672.422 246.188C667.839 244.521 663.073 243.688 658.125 243.688C653.646 243.688 649.193 244.391 644.766 245.797C640.339 247.151 636.38 249.156 632.891 251.812C629.401 254.469 626.562 257.724 624.375 261.578C622.24 265.432 621.172 269.807 621.172 274.703C621.172 279.599 622.24 283.87 624.375 287.516C626.562 291.109 629.375 294.234 632.812 296.891C636.198 299.495 639.948 301.734 644.062 303.609C648.229 305.432 652.318 306.995 656.328 308.297C659.089 309.182 661.953 310.172 664.922 311.266C667.943 312.359 670.703 313.714 673.203 315.328C675.703 316.995 677.734 319.026 679.297 321.422C680.911 323.818 681.719 326.76 681.719 330.25Z" fill="black"/>
</g>
<g opacity="0.2">
<rect x="322" y="432" width="50" height="20" rx="10" fill="black"/>
<rect x="402" y="432" width="90" height="20" rx="10" fill="black"/>
<rect x="522" y="432" width="180" height="20" rx="10" fill="black"/>
<rect x="322" y="492" width="50" height="20" rx="10" fill="black"/>
<rect x="402" y="492" width="90" height="20" rx="10" fill="black"/>
<rect x="522" y="492" width="180" height="20" rx="10" fill="black"/>
<rect x="322" y="552" width="50" height="20" rx="10" fill="black"/>
<rect x="402" y="552" width="90" height="20" rx="10" fill="black"/>
<rect x="522" y="552" width="180" height="20" rx="10" fill="black"/>
</g>
</svg>
