<svg width="32" height="30" viewBox="0 0 32 30" fill="none" xmlns="http://www.w3.org/2000/svg">
<path d="M15.8983 1.11366C15.6391 1.12671 15.3852 1.19096 15.1514 1.30264L4.96 6.17222C4.69622 6.2982 4.46444 6.48149 4.28188 6.7085C4.09932 6.93551 3.97068 7.2004 3.9055 7.48349L1.39126 18.4218C1.33319 18.6738 1.32669 18.9348 1.37213 19.1894C1.41758 19.4439 1.51404 19.6869 1.65582 19.9038C1.6902 19.9568 1.72717 20.0081 1.7666 20.0576L8.82076 28.8283C9.00335 29.0552 9.23514 29.2385 9.49892 29.3644C9.76271 29.4903 10.0517 29.5556 10.3444 29.5556L21.6569 29.553C21.9495 29.5532 22.2384 29.4881 22.5022 29.3624C22.766 29.2367 22.9978 29.0537 23.1805 28.827L30.2321 20.055C30.4148 19.8279 30.5435 19.5629 30.6087 19.2797C30.6739 18.9965 30.6739 18.7024 30.6087 18.4192L28.0905 7.48086C28.0254 7.19778 27.8967 6.93291 27.7142 6.70591C27.5316 6.4789 27.2998 6.29561 27.0361 6.16964L16.8433 1.3026C16.5492 1.16213 16.2243 1.09716 15.8983 1.11366V1.11366Z" fill="#326CE5"/>
<path d="M15.9994 4.83606C15.6625 4.8361 15.3894 5.13954 15.3894 5.51384C15.3894 5.51959 15.3906 5.5251 15.3907 5.53077C15.3902 5.58166 15.3878 5.64293 15.3894 5.68718C15.3974 5.90307 15.4445 6.06832 15.4728 6.26724C15.5241 6.69292 15.5671 7.04583 15.5406 7.37383C15.5148 7.4975 15.4237 7.61062 15.3425 7.68924L15.3281 7.94734C14.9571 7.97788 14.5886 8.0345 14.2255 8.11676C12.6415 8.47642 11.2778 9.2923 10.2396 10.3938C10.1655 10.3427 10.092 10.2905 10.0193 10.2374C9.9104 10.2522 9.80033 10.2858 9.65693 10.2022C9.38395 10.0185 9.13532 9.76487 8.83446 9.4593C8.69661 9.31315 8.5968 9.17397 8.43301 9.03308C8.39585 9.00108 8.33908 8.95783 8.29746 8.92488C8.16941 8.82282 8.01842 8.76955 7.87256 8.76459C7.68503 8.75817 7.50452 8.83149 7.38639 8.97965C7.17635 9.24304 7.24362 9.64566 7.53626 9.87899C7.53926 9.88136 7.54239 9.8832 7.54543 9.88553C7.5856 9.91811 7.63486 9.9599 7.67181 9.98718C7.84562 10.1155 8.0044 10.1812 8.17754 10.2831C8.54237 10.5084 8.84485 10.6952 9.08472 10.9204C9.1784 11.0203 9.19479 11.1963 9.20726 11.2724L9.40276 11.447C8.35614 13.0221 7.87177 14.9677 8.15802 16.9501L7.90255 17.0244C7.83519 17.1113 7.74005 17.2481 7.64053 17.289C7.32667 17.3878 6.97343 17.4241 6.54699 17.4688C6.34679 17.4855 6.17403 17.4755 5.96172 17.5157C5.91501 17.5246 5.84994 17.5416 5.79881 17.5535L5.79359 17.5549C5.7908 17.5555 5.78717 17.5569 5.78446 17.5574C5.42492 17.6443 5.19398 17.9748 5.2683 18.3004C5.34271 18.6261 5.69391 18.8241 6.05557 18.7462C6.0582 18.7456 6.06199 18.7455 6.06475 18.7449C6.06879 18.744 6.07238 18.742 6.07643 18.741C6.12689 18.7299 6.19004 18.7176 6.23417 18.7058C6.44284 18.6499 6.594 18.5678 6.78161 18.4959C7.18523 18.3512 7.51949 18.2302 7.8452 18.1831C7.98117 18.1725 8.12453 18.267 8.19581 18.3069L8.46171 18.2613C9.07358 20.1584 10.3559 21.6917 11.9797 22.6538L11.8688 22.9197C11.9088 23.023 11.9528 23.1627 11.9231 23.2647C11.8047 23.5717 11.6019 23.8957 11.3709 24.257C11.2592 24.424 11.1447 24.5535 11.0438 24.7445C11.0196 24.7902 10.9889 24.8605 10.9656 24.9087C10.8088 25.2442 10.9238 25.6305 11.225 25.7756C11.528 25.9214 11.9042 25.7675 12.0669 25.4314C12.0672 25.4309 12.068 25.4306 12.0683 25.4301C12.0685 25.4297 12.0681 25.4292 12.0683 25.4289C12.0915 25.3812 12.1243 25.3185 12.1439 25.2737C12.2303 25.0757 12.2591 24.906 12.3198 24.7145C12.4812 24.3091 12.5699 23.8837 12.7921 23.6187C12.853 23.5461 12.9521 23.5182 13.055 23.4906L13.1931 23.2404C14.6087 23.7837 16.1931 23.9295 17.7759 23.5702C18.1317 23.4893 18.4814 23.3839 18.8226 23.2547C18.8614 23.3236 18.9336 23.456 18.9529 23.4893C19.0575 23.5233 19.1715 23.5409 19.2645 23.6783C19.4307 23.9624 19.5443 24.2983 19.6828 24.7041C19.7437 24.8956 19.7737 25.0653 19.8601 25.2633C19.8798 25.3084 19.9125 25.3719 19.9357 25.4197C20.0982 25.7569 20.4755 25.9113 20.779 25.7651C21.0802 25.6201 21.1953 25.2337 21.0384 24.8983C21.0151 24.85 20.9831 24.7798 20.9589 24.7341C20.858 24.5431 20.7436 24.4148 20.6317 24.2479C20.4008 23.8867 20.2092 23.5865 20.0908 23.2794C20.0413 23.1211 20.0992 23.0226 20.1377 22.9197C20.1147 22.8933 20.0652 22.7437 20.0361 22.6734C21.7235 21.677 22.9682 20.0865 23.5527 18.2496C23.6317 18.262 23.7688 18.2863 23.8134 18.2952C23.9051 18.2347 23.9895 18.1557 24.1549 18.1688C24.4806 18.2159 24.8149 18.3369 25.2185 18.4816C25.4061 18.5535 25.5573 18.6369 25.7659 18.6927C25.81 18.7045 25.8732 18.7156 25.9236 18.7266C25.9277 18.7276 25.9313 18.7296 25.9354 18.7305C25.9381 18.7312 25.9419 18.7312 25.9445 18.7319C26.3062 18.8097 26.6575 18.6117 26.7317 18.2861C26.806 17.9604 26.5752 17.6299 26.2156 17.5431C26.1633 17.5312 26.0891 17.511 26.0383 17.5014C25.8261 17.4612 25.6534 17.4711 25.4531 17.4545C25.0266 17.4098 24.6734 17.3735 24.3595 17.2746C24.2316 17.225 24.1406 17.0727 24.0963 17.01L23.8499 16.9384C23.9776 16.0143 23.9432 15.0526 23.7222 14.0903C23.4991 13.1192 23.1049 12.2309 22.5791 11.4483C22.6423 11.3909 22.7616 11.2852 22.7954 11.2541C22.8053 11.1447 22.7968 11.0299 22.9101 10.9087C23.15 10.6835 23.4525 10.4967 23.8173 10.2713C23.9905 10.1694 24.1506 10.1038 24.3243 9.97546C24.3637 9.94643 24.4173 9.90047 24.4586 9.86727C24.7512 9.63386 24.8186 9.23128 24.6085 8.96793C24.3984 8.70457 23.9913 8.67971 23.6987 8.91316C23.6571 8.94615 23.6005 8.9892 23.5631 9.02136C23.3994 9.16225 23.2982 9.30139 23.1604 9.44758C22.8596 9.75315 22.6109 10.0081 22.3379 10.1918C22.2196 10.2607 22.0464 10.2369 21.9677 10.2322L21.7357 10.3978C20.4128 9.01051 18.6115 8.12356 16.672 7.95126C16.6665 7.86996 16.6595 7.72306 16.6576 7.67881C16.5782 7.60286 16.4823 7.538 16.4582 7.37383C16.4317 7.04583 16.476 6.69292 16.5273 6.26724C16.5556 6.06832 16.6026 5.90311 16.6107 5.68718C16.6125 5.63813 16.6096 5.56689 16.6094 5.51384C16.6094 5.13954 16.3363 4.83606 15.9994 4.83606V4.83606ZM15.2356 9.5675L15.0544 12.7674L15.0414 12.7739C15.0292 13.0602 14.7936 13.2887 14.5044 13.2887C14.3859 13.2887 14.2765 13.2507 14.1876 13.1858L14.1824 13.1884L11.5586 11.3284C12.365 10.5355 13.3965 9.94947 14.5852 9.67961C14.7999 9.63113 15.017 9.59371 15.2356 9.5675V9.5675ZM16.7645 9.5675C18.1523 9.73817 19.4358 10.3666 20.4193 11.3297L17.8125 13.178L17.8033 13.1741C17.5719 13.343 17.2459 13.3011 17.0656 13.075C16.9943 12.9863 16.9532 12.8771 16.9483 12.7634L16.9457 12.7622L16.7645 9.5675ZM10.6072 12.5237L13.0028 14.6665L13.0002 14.6795C13.2165 14.8675 13.2483 15.1937 13.068 15.4198C12.9969 15.5092 12.8992 15.5735 12.7891 15.6036L12.7865 15.614L9.71562 16.5004C9.55929 15.0712 9.89614 13.6819 10.6072 12.5237ZM21.3747 12.5249C21.7307 13.1019 22.0002 13.7463 22.1607 14.4449C22.3192 15.1351 22.359 15.8241 22.2936 16.4899L19.2071 15.601L19.2045 15.588C18.9281 15.5125 18.7582 15.2313 18.8226 14.9493C18.8476 14.8384 18.9075 14.7384 18.9934 14.6639L18.9921 14.6573L21.3747 12.525V12.5249ZM15.508 14.832H16.4894L17.0995 15.5945L16.8805 16.546L15.9994 16.9696L15.1157 16.5447L14.8967 15.5932L15.508 14.832ZM18.6545 17.4415C18.6962 17.4394 18.7377 17.4431 18.7783 17.4506L18.7835 17.444L21.9599 17.9811C21.4951 19.2871 20.6055 20.4186 19.417 21.1757L18.1839 18.1974L18.1878 18.1922C18.0746 17.929 18.1879 17.6204 18.4485 17.4949C18.5152 17.4628 18.5849 17.445 18.6545 17.4415ZM13.3196 17.4545C13.5619 17.4579 13.7794 17.6261 13.8357 17.8729C13.8621 17.9884 13.8492 18.1028 13.8057 18.2039L13.8149 18.2157L12.5949 21.164C11.4542 20.4321 10.5457 19.3362 10.0597 17.9915L13.2088 17.4571L13.214 17.4636C13.2492 17.4571 13.2849 17.454 13.3195 17.4545H13.3196ZM15.9798 18.7462C16.0668 18.7432 16.1532 18.7615 16.2314 18.7996C16.3382 18.851 16.4206 18.932 16.4726 19.029H16.4842L18.0367 21.834C17.8329 21.9021 17.6258 21.96 17.4162 22.0073C16.229 22.2769 15.0455 22.1952 13.9739 21.8301L15.5223 19.0303H15.525C15.5693 18.9474 15.6347 18.8774 15.7145 18.8276C15.7943 18.7777 15.8858 18.7497 15.9798 18.7462V18.7462Z" fill="white" stroke="white" stroke-width="0.195513"/>
</svg>
