<svg width="120" height="14" viewBox="0 0 120 14" fill="none" xmlns="http://www.w3.org/2000/svg">
<path fill-rule="evenodd" clip-rule="evenodd" d="M4.95965 0.173363C3.40425 0.173363 1.55539 0.173363 0 0.173363V12.8219C1.55539 12.8219 3.40425 12.8219 4.95965 12.8219C9.39105 12.8219 11.328 9.59376 11.2693 6.39493C11.2106 3.2548 9.27366 0.173363 4.95965 0.173363ZM2.34776 2.43308H4.95965C7.68892 2.43308 8.8628 4.39933 8.9215 6.36558C8.98019 8.41988 7.83566 10.5329 4.95965 10.5329H2.34776V2.43308Z" fill="white"/>
<path fill-rule="evenodd" clip-rule="evenodd" d="M21.7462 9.15355C22.0983 5.48517 20.2201 3.66566 17.2561 3.66566C14.38 3.66566 12.5312 5.60256 12.5312 8.33184C12.5312 11.1785 14.3507 13.0861 17.4321 13.0861C18.7821 13.0861 20.3081 12.6165 21.2473 11.648L19.8386 10.2687C19.3397 10.797 18.2832 11.0905 17.4615 11.0905C15.9061 11.0905 14.967 10.2981 14.8203 9.1829H21.7462V9.15355ZM14.8203 7.33404C15.1431 6.1895 16.1115 5.60256 17.3147 5.60256C18.5767 5.60256 19.4864 6.1895 19.6332 7.33404H14.8203Z" fill="white"/>
<path fill-rule="evenodd" clip-rule="evenodd" d="M23.8298 1.67004V3.95911H22.157V5.86667H23.8298V9.71113C23.8298 11.9415 25.0917 13.0273 27.0286 12.9687C27.7036 12.9393 28.2318 12.8513 28.8481 12.5871L28.2318 10.7089C27.909 10.885 27.4982 10.9731 27.1753 10.9731C26.5004 10.9731 26.0308 10.5622 26.0308 9.71113V5.86667H28.496V3.95911H26.0308V1.43527L23.8298 1.67004Z" fill="white"/>
<path fill-rule="evenodd" clip-rule="evenodd" d="M38.7968 9.15355C39.1489 5.48517 37.2707 3.66566 34.3067 3.66566C31.4307 3.66566 29.5818 5.60256 29.5818 8.33184C29.5818 11.1785 31.4013 13.0861 34.4828 13.0861C35.8327 13.0861 37.3588 12.6165 38.2979 11.648L36.8892 10.2687C36.3903 10.797 35.3338 11.0905 34.5121 11.0905C32.9567 11.0905 32.0176 10.2981 31.8709 9.1829H38.7968V9.15355ZM31.9002 7.33404C32.223 6.1895 33.1915 5.60256 34.3947 5.60256C35.6567 5.60256 36.5664 6.1895 36.7131 7.33404H31.9002Z" fill="white"/>
<path fill-rule="evenodd" clip-rule="evenodd" d="M40.3522 3.92978V12.8219H42.5532V8.1264C42.5532 6.48296 43.6097 5.86668 44.7836 5.86668C45.5172 5.86668 45.9281 6.07211 46.3683 6.45362L47.3661 4.54606C46.8672 4.04716 45.9868 3.695 45.077 3.695C44.1673 3.695 43.2575 3.87108 42.5825 4.95692L42.4064 3.92978H40.3522Z" fill="white"/>
<path fill-rule="evenodd" clip-rule="evenodd" d="M56.1702 12.822V8.06774C56.1702 6.89386 56.9039 5.86672 58.1071 5.86672C59.3103 5.86672 59.7799 6.86452 59.7799 8.0384V12.8513H61.9809V8.0384C61.9809 5.36782 60.7484 3.81242 58.2245 3.81242C57.08 3.81242 56.0528 4.16459 55.2605 5.42651C54.7616 4.19394 53.7051 3.75373 52.6192 3.75373C51.7682 3.75373 50.741 4.07655 50.2715 4.98631L50.0954 3.90047H48.0704V12.822H50.2715V8.06774C50.2715 6.89386 50.9758 5.83737 52.179 5.83737C53.3822 5.83737 53.9985 6.89386 53.9985 8.06774V12.822H56.1702Z" fill="white"/>
<path fill-rule="evenodd" clip-rule="evenodd" d="M66.295 3.90044V12.8219H64.0939V3.90044H66.295ZM63.8885 1.43529C63.8885 3.13742 66.5004 3.13742 66.5004 1.43529C66.5004 -0.29618 63.8885 -0.29618 63.8885 1.43529Z" fill="white"/>
<path fill-rule="evenodd" clip-rule="evenodd" d="M76.8892 12.8219V8.15573C76.8892 5.36777 75.2164 3.78303 73.1328 3.78303C72.0176 3.78303 71.1078 4.22323 70.1981 5.10364L70.0513 3.90041H68.0851V12.8219H70.2568V8.27312C70.2568 6.92316 71.1665 5.77862 72.5165 5.77862C73.9251 5.77862 74.6588 6.80577 74.6588 8.15573V12.8219H76.8892Z" fill="white"/>
<path fill-rule="evenodd" clip-rule="evenodd" d="M87.4542 9.15355C87.8063 5.48517 85.9281 3.66566 82.9641 3.66566C80.0881 3.66566 78.2392 5.60256 78.2392 8.33184C78.2392 11.1785 80.0587 13.0861 83.1402 13.0861C84.4901 13.0861 86.0162 12.6165 86.9553 11.648L85.5466 10.2687C85.0477 10.797 83.9912 11.0905 83.1695 11.0905C81.6141 11.0905 80.675 10.2981 80.5283 9.1829H87.4542V9.15355ZM80.5576 7.33404C80.8804 6.1895 81.8489 5.60256 83.0521 5.60256C84.314 5.60256 85.2238 6.1895 85.3705 7.33404H80.5576Z" fill="white"/>
<path fill-rule="evenodd" clip-rule="evenodd" d="M93.3236 5.77867C94.7029 5.77867 95.9061 6.83517 95.9061 8.39056C95.9061 10.0046 94.7029 11.0024 93.3236 11.0024C91.9149 11.0024 90.7997 9.94595 90.7997 8.39056C90.7997 6.77647 91.9443 5.77867 93.3236 5.77867ZM96.0528 0.232086V5.16239C95.5246 4.25263 94.0572 3.72438 93.1181 3.72438C90.5063 3.72438 88.5987 5.30912 88.5987 8.39056C88.5987 11.3253 90.5649 13.0567 93.1768 13.0567C94.2627 13.0567 95.3485 12.7046 96.0528 11.6187L96.1996 12.8513H98.2539V0.232086H96.0528Z" fill="white"/>
<path fill-rule="evenodd" clip-rule="evenodd" d="M114.248 12.8219H116.86L111.196 0.173363H108.584L102.92 12.8219H105.503L106.588 10.4448H113.192L114.248 12.8219ZM112.223 8.21445H107.528L109.875 2.8146L112.223 8.21445Z" fill="#F37721"/>
<path d="M120 0.173363H117.623V12.8219H120V0.173363Z" fill="#F37721"/>
</svg>
