<svg id="Layer_1" data-name="Layer 1" xmlns="http://www.w3.org/2000/svg" viewBox="0 0 234.9 240"><defs><style>.cls-1{fill:#fff;}</style></defs><path class="cls-1" d="M237.3,122.7a139,139,0,0,0-1.9-22.7h-113v45.1h64.7a55.71,55.71,0,0,1-24,35.8v30h38.6C224.3,190,237.3,159.2,237.3,122.7Z" transform="translate(-2.4)"/><path class="cls-1" d="M122.4,240c32.4,0,59.5-10.8,79.3-29.1l-38.6-30c-10.8,7.2-24.5,11.6-40.7,11.6-31.3,0-57.8-21.1-67.3-49.6H15.3v30.9A119.82,119.82,0,0,0,122.4,240Z" transform="translate(-2.4)"/><path class="cls-1" d="M55.1,142.9A69.63,69.63,0,0,1,51.3,120a72.34,72.34,0,0,1,3.8-22.9V66.2H15.3a118.64,118.64,0,0,0,0,107.6Z" transform="translate(-2.4)"/><path class="cls-1" d="M122.4,47.5c17.7,0,33.5,6.1,46,18l34.2-34.2C181.9,11.9,154.8,0,122.4,0A119.82,119.82,0,0,0,15.3,66.2L55.1,97.1C64.6,68.6,91.1,47.5,122.4,47.5Z" transform="translate(-2.4)"/></svg>