<svg width="120" height="65" viewBox="0 0 120 65" fill="none" xmlns="http://www.w3.org/2000/svg">
<g clip-path="url(#clip0)">
<path fill-rule="evenodd" clip-rule="evenodd" d="M39.2615 8.42429C40.98 8.32195 42.4677 9.65231 42.5703 11.3664C42.6729 13.0805 41.3391 14.5644 39.6206 14.6667C37.902 14.7691 36.4143 13.4387 36.3117 11.7246C36.2091 10.0105 37.5173 8.52662 39.2615 8.42429ZM75.1715 5.73799C76.7875 5.63566 78.1469 6.86368 78.2495 8.47546C78.3521 10.0872 77.1209 11.4432 75.505 11.5455C75.0433 11.5711 74.5816 11.4943 74.1712 11.3153L74.1455 11.3408C72.5552 11.7246 71.324 12.62 70.3493 13.9504C70.375 14.1295 70.4006 14.283 70.4263 14.4621C70.5545 16.5088 68.9642 18.2485 66.9122 18.3764C64.8602 18.5043 63.116 16.9181 62.9878 14.8714C62.8595 12.8247 64.4498 11.085 66.5018 10.9571C67.2713 10.9059 68.0152 11.1106 68.6308 11.4688C70.1698 10.9827 71.4266 10.1128 72.4526 8.85921V8.80804C72.35 7.19627 73.5556 5.84033 75.1715 5.73799ZM57.4987 6.68459C55.8827 6.78693 54.6772 8.14287 54.7541 9.75464C54.8567 11.3664 56.2162 12.5689 57.8321 12.4921C59.4481 12.3898 60.6536 11.0338 60.5767 9.42206V9.39647C61.5001 7.96378 62.68 7.19627 64.0651 6.94043C64.7063 7.32419 65.4502 7.52886 66.2453 7.47769C68.323 7.34977 69.9133 5.58449 69.785 3.5122C69.6824 1.4655 67.8869 -0.120693 65.8093 0.00722613C63.7316 0.135145 62.1413 1.90043 62.2696 3.97271C62.2696 4.1518 62.2952 4.33088 62.3465 4.48439C61.4744 5.73799 60.2689 6.5055 58.8581 6.91484H58.8325C58.4221 6.76134 57.986 6.65901 57.4987 6.68459ZM75.8641 25.1817C76.2488 25.1561 76.6079 25.2072 76.9414 25.3352L76.967 25.3096C79.0703 24.5421 80.5324 23.3652 81.3019 21.7278L81.3275 21.7023C81.3532 20.4998 82.3022 19.4765 83.5334 19.4253C84.8159 19.3486 85.9189 20.3463 85.9958 21.6255C86.0728 22.9047 85.0724 24.0048 83.7899 24.0816C83.6104 24.0816 83.4308 24.0816 83.2513 24.056C81.4301 24.8235 79.9424 26.0003 78.8651 27.6633C78.8651 27.74 78.8908 27.8168 78.8908 27.8935C78.9934 29.4797 77.7622 30.8357 76.1719 30.938C74.5816 31.0403 73.2221 29.8123 73.1195 28.2261C73.0682 26.6399 74.2738 25.284 75.8641 25.1817ZM53.6768 24.0048C55.5493 23.9025 57.1396 25.3352 57.2422 27.1772C57.3448 29.0448 55.9084 30.631 54.0616 30.7333C52.1891 30.8357 50.5988 29.403 50.4962 27.5609C50.4705 27.1004 50.5475 26.6655 50.6757 26.2562C50.0858 24.6956 48.8802 23.621 47.3412 22.8024C47.0078 22.9303 46.623 23.007 46.2383 23.0326C44.1606 23.1605 42.3908 21.5743 42.2625 19.5021C42.1343 17.4298 43.7246 15.6645 45.8022 15.5366C47.8799 15.4087 49.6497 16.9949 49.778 19.0671C49.8036 19.6556 49.701 20.1928 49.4958 20.7045C50.1884 22.1884 51.2913 23.3396 52.8303 24.1071L52.8816 24.1327C53.1125 24.0816 53.3947 24.0304 53.6768 24.0048ZM71.1188 33.522C70.0672 32.2939 69.2977 31.0148 68.8873 29.6077C69.6568 28.8401 70.1185 27.74 70.0672 26.5376C70.0415 26.1283 69.9646 25.7445 69.8363 25.3863C71.324 23.749 73.0169 22.3419 75.0176 21.3697L75.0433 21.3441C75.428 21.4976 75.8384 21.5488 76.2745 21.5232C77.9417 21.4208 79.2242 19.9882 79.1473 18.3252C79.0447 16.6623 77.6083 15.3831 75.941 15.4598C74.2738 15.5622 72.9913 16.9949 73.0682 18.6578C73.0682 18.7601 73.0939 18.8881 73.0939 18.9904C71.7344 20.9348 70.0672 22.3163 68.1691 23.3652C67.5022 22.9559 66.6814 22.7256 65.8349 22.7768C65.245 22.8024 64.7063 22.9559 64.219 23.2117C62.6287 22.1372 61.2949 20.8324 60.3715 19.2206H60.3458C60.551 18.6834 60.6536 18.095 60.628 17.5065C60.4997 15.2807 58.576 13.5666 56.3444 13.6945C54.1129 13.8225 52.3943 15.7412 52.5226 17.967C52.6508 20.1928 54.5746 21.9069 56.8061 21.779C57.3191 21.7534 57.8065 21.6255 58.2425 21.4208L58.2682 21.4464C59.9611 22.393 61.2949 23.6466 62.4235 25.0793C62.1413 25.6678 62.0131 26.3073 62.0644 26.9981C62.1926 29.1983 64.0907 30.8868 66.2966 30.7589C66.4249 30.7589 66.5531 30.7333 66.6814 30.7078C67.6048 31.9358 68.2717 33.2661 68.6564 34.7756C68.1947 35.364 67.9382 36.1315 67.9895 36.9246C68.0921 38.7155 69.6311 40.097 71.4266 39.9947C73.2221 39.8923 74.6072 38.3573 74.5046 36.5664C74.402 34.8267 72.8887 33.4452 71.1188 33.522ZM44.8019 25.0537C43.6476 25.1305 42.7755 26.1027 42.8525 27.2284C42.9294 28.3796 43.9041 29.2495 45.0327 29.1727C46.187 29.096 47.0591 28.1238 46.9821 26.9981C46.9308 25.8468 45.9561 24.977 44.8019 25.0537ZM36.953 17.9415C38.6715 17.8391 40.1592 19.1695 40.2618 20.8836C40.3644 22.5977 39.0306 24.0816 37.3121 24.1839C35.5935 24.2862 34.1058 22.9559 34.0032 21.2418C33.9263 19.5021 35.2344 18.0438 36.953 17.9415ZM81.7892 11.5967C82.9435 11.5199 83.9182 12.4154 83.9695 13.541C84.0464 14.6923 83.1487 15.6645 82.0201 15.7157C80.8658 15.7924 79.8911 14.897 79.8398 13.7713C79.7629 12.6456 80.635 11.6734 81.7892 11.5967ZM55.0619 0.44215C56.2162 0.365399 57.1909 1.26083 57.2422 2.38652C57.3191 3.53779 56.4214 4.50997 55.2927 4.56114C54.1385 4.63789 53.1638 3.74246 53.1125 2.61677C53.0612 1.49109 53.9333 0.518902 55.0619 0.44215ZM47.8799 3.48662C49.9832 3.3587 51.753 4.97048 51.8813 7.04276C52.0096 9.14063 50.3936 10.9059 48.3159 11.0338C46.2126 11.1618 44.4428 9.54997 44.3145 7.47769C44.1863 5.4054 45.8022 3.61454 47.8799 3.48662Z" fill="#F37721"/>
<path fill-rule="evenodd" clip-rule="evenodd" d="M4.95965 52.0367C3.40425 52.0367 1.55539 52.0367 0 52.0367V64.6852C1.55539 64.6852 3.40425 64.6852 4.95965 64.6852C9.39105 64.6852 11.328 61.4571 11.2693 58.2583C11.2106 55.1181 9.27366 52.0367 4.95965 52.0367ZM2.34776 54.2964H4.95965C7.68892 54.2964 8.8628 56.2627 8.9215 58.2289C8.98019 60.2832 7.83566 62.3962 4.95965 62.3962H2.34776V54.2964Z" fill="white"/>
<path fill-rule="evenodd" clip-rule="evenodd" d="M21.7462 61.0169C22.0983 57.3485 20.2201 55.529 17.2561 55.529C14.3801 55.529 12.5312 57.4659 12.5312 60.1951C12.5312 63.0418 14.3507 64.9494 17.4321 64.9494C18.7821 64.9494 20.3082 64.4798 21.2473 63.5114L19.8386 62.132C19.3397 62.6603 18.2832 62.9538 17.4615 62.9538C15.9061 62.9538 14.967 62.1614 14.8203 61.0462H21.7462V61.0169ZM14.8203 59.1973C15.1431 58.0528 16.1115 57.4659 17.3148 57.4659C18.5767 57.4659 19.4864 58.0528 19.6332 59.1973H14.8203Z" fill="white"/>
<path fill-rule="evenodd" clip-rule="evenodd" d="M23.8298 53.5334V55.8224H22.157V57.73H23.8298V61.5744C23.8298 63.8048 25.0917 64.8907 27.0286 64.832C27.7036 64.8026 28.2318 64.7146 28.8481 64.4505L28.2318 62.5722C27.909 62.7483 27.4981 62.8364 27.1753 62.8364C26.5003 62.8364 26.0308 62.4255 26.0308 61.5744V57.73H28.4959V55.8224H26.0308V53.2986L23.8298 53.5334Z" fill="white"/>
<path fill-rule="evenodd" clip-rule="evenodd" d="M38.7968 61.0169C39.1489 57.3485 37.2707 55.529 34.3067 55.529C31.4307 55.529 29.5818 57.4659 29.5818 60.1951C29.5818 63.0418 31.4013 64.9494 34.4827 64.9494C35.8327 64.9494 37.3587 64.4798 38.2979 63.5114L36.8892 62.132C36.3903 62.6603 35.3338 62.9538 34.5121 62.9538C32.9567 62.9538 32.0176 62.1614 31.8709 61.0462H38.7968V61.0169ZM31.9002 59.1973C32.223 58.0528 33.1915 57.4659 34.3947 57.4659C35.6566 57.4659 36.5664 58.0528 36.7131 59.1973H31.9002Z" fill="white"/>
<path fill-rule="evenodd" clip-rule="evenodd" d="M40.3522 55.7931V64.6852H42.5532V59.9897C42.5532 58.3463 43.6097 57.73 44.7836 57.73C45.5173 57.73 45.9281 57.9354 46.3683 58.3169L47.3661 56.4094C46.8672 55.9105 45.9868 55.5583 45.077 55.5583C44.1673 55.5583 43.2575 55.7344 42.5825 56.8202L42.4065 55.7931H40.3522Z" fill="white"/>
<path fill-rule="evenodd" clip-rule="evenodd" d="M56.1702 64.6853V59.931C56.1702 58.7572 56.9039 57.73 58.1071 57.73C59.3103 57.73 59.7799 58.7278 59.7799 59.9017V64.7146H61.9809V59.9017C61.9809 57.2311 60.7484 55.6757 58.2245 55.6757C57.08 55.6757 56.0528 56.0279 55.2605 57.2898C54.7616 56.0572 53.7051 55.617 52.6192 55.617C51.7682 55.617 50.741 55.9399 50.2715 56.8496L50.0954 55.7638H48.0704V64.6853H50.2715V59.931C50.2715 58.7572 50.9758 57.7007 52.179 57.7007C53.3822 57.7007 53.9985 58.7572 53.9985 59.931V64.6853H56.1702Z" fill="white"/>
<path fill-rule="evenodd" clip-rule="evenodd" d="M66.2949 55.7638V64.6852H64.0939V55.7638H66.2949ZM63.8885 53.2986C63.8885 55.0007 66.5004 55.0007 66.5004 53.2986C66.5004 51.5671 63.8885 51.5671 63.8885 53.2986Z" fill="white"/>
<path fill-rule="evenodd" clip-rule="evenodd" d="M76.8892 64.6852V60.019C76.8892 57.2311 75.2164 55.6463 73.1328 55.6463C72.0176 55.6463 71.1078 56.0865 70.1981 56.9669L70.0513 55.7637H68.0851V64.6852H70.2568V60.1364C70.2568 58.7865 71.1665 57.6419 72.5165 57.6419C73.9251 57.6419 74.6588 58.6691 74.6588 60.019V64.6852H76.8892Z" fill="white"/>
<path fill-rule="evenodd" clip-rule="evenodd" d="M87.4542 61.0169C87.8063 57.3485 85.9281 55.529 82.9641 55.529C80.0881 55.529 78.2392 57.4659 78.2392 60.1951C78.2392 63.0418 80.0587 64.9494 83.1402 64.9494C84.4901 64.9494 86.0162 64.4798 86.9553 63.5114L85.5466 62.132C85.0477 62.6603 83.9912 62.9538 83.1695 62.9538C81.6141 62.9538 80.675 62.1614 80.5283 61.0462H87.4542V61.0169ZM80.5576 59.1973C80.8804 58.0528 81.8489 57.4659 83.0521 57.4659C84.314 57.4659 85.2238 58.0528 85.3705 59.1973H80.5576Z" fill="white"/>
<path fill-rule="evenodd" clip-rule="evenodd" d="M93.3236 57.642C94.7029 57.642 95.9061 58.6985 95.9061 60.2539C95.9061 61.868 94.7029 62.8658 93.3236 62.8658C91.9149 62.8658 90.7997 61.8093 90.7997 60.2539C90.7997 58.6398 91.9443 57.642 93.3236 57.642ZM96.0528 52.0954V57.0257C95.5246 56.1159 94.0572 55.5877 93.1181 55.5877C90.5063 55.5877 88.5987 57.1724 88.5987 60.2539C88.5987 63.1886 90.5649 64.92 93.1768 64.92C94.2627 64.92 95.3485 64.5679 96.0528 63.482L96.1996 64.7146H98.2539V52.0954H96.0528Z" fill="white"/>
<path fill-rule="evenodd" clip-rule="evenodd" d="M114.248 64.6852H116.86L111.196 52.0367H108.584L102.92 64.6852H105.503L106.588 62.3081H113.192L114.248 64.6852ZM112.223 60.0778H107.528L109.875 54.6779L112.223 60.0778Z" fill="#F37721"/>
<path d="M120 52.0367H117.623V64.6852H120V52.0367Z" fill="#F37721"/>
</g>
<defs>
<clipPath id="clip0">
<path d="M0 0H120V64.9494H0V0Z" fill="white"/>
</clipPath>
</defs>
</svg>
