<svg width="1024" height="1024" viewBox="0 0 1024 1024" xmlns="http://www.w3.org/2000/svg">
    <circle cx="512" cy="512" r="512" fill="black"/>
    <path d="M162 265.906C162 241.366 180.669 221.473 203.699 221.473H537.293C560.323 221.473 578.992 241.366 578.992 265.906C578.992 290.447 560.323 310.34 537.293 310.34H203.699C180.669 310.34 162 290.447 162 265.906Z" fill="#FBFBFB"/>
    <path d="M653.504 265.906C653.504 241.366 672.112 221.473 695.066 221.473H819.754C842.708 221.473 861.316 241.366 861.316 265.906C861.316 290.447 842.708 310.34 819.754 310.34H695.066C672.112 310.34 653.504 290.447 653.504 265.906Z" fill="#FBFBFB"/>
    <path d="M162 429.969C162 405.051 180.608 384.852 203.562 384.852H328.25C351.204 384.852 369.812 405.051 369.812 429.969C369.812 454.886 351.204 475.086 328.25 475.086H203.562C180.608 475.086 162 454.886 162 429.969Z" fill="#FBFBFB"/>
    <path d="M460.047 429.969C460.047 405.051 478.012 384.852 500.174 384.852H821.189C843.351 384.852 861.316 405.051 861.316 429.969C861.316 454.886 843.351 475.086 821.189 475.086H500.174C478.012 475.086 460.047 454.886 460.047 429.969Z" fill="#FBFBFB"/>
    <path d="M162 593.348C162 568.43 180.669 548.23 203.699 548.23H537.293C560.323 548.23 578.992 568.43 578.992 593.348C578.992 618.265 560.323 638.465 537.293 638.465H203.699C180.669 638.465 162 618.265 162 593.348Z" fill="#FBFBFB"/>
    <path d="M653.504 593.348C653.504 568.43 672.112 548.23 695.066 548.23H819.754C842.708 548.23 861.316 568.43 861.316 593.348C861.316 618.265 842.708 638.465 819.754 638.465H695.066C672.112 638.465 653.504 618.265 653.504 593.348Z" fill="#FBFBFB"/>
    <path d="M162 757.41C162 732.87 180.608 712.977 203.562 712.977H328.25C351.204 712.977 369.812 732.87 369.812 757.41C369.812 781.95 351.204 801.844 328.25 801.844H203.562C180.608 801.844 162 781.95 162 757.41Z" fill="#FBFBFB"/>
    <path d="M460.047 757.41C460.047 732.87 478.012 712.977 500.174 712.977H821.189C843.351 712.977 861.316 732.87 861.316 757.41C861.316 781.95 843.351 801.844 821.189 801.844H500.174C478.012 801.844 460.047 781.95 460.047 757.41Z" fill="#F55554"/>
</svg>
