<svg width="133" height="16" viewBox="0 0 133 16" fill="none" xmlns="http://www.w3.org/2000/svg">
<path d="M67.68 3.176V13H65.104V9.112H61.312V13H58.736V3.176H61.312V6.904H65.104V3.176H67.68Z" fill="#444444"/>
<path d="M71.6863 9.944V13H69.1423V3.176H73.4463C73.9796 3.176 74.4649 3.25066 74.9023 3.4C75.3396 3.54933 75.7129 3.768 76.0223 4.056C76.3423 4.344 76.5876 4.70133 76.7583 5.128C76.9289 5.544 77.0143 6.024 77.0143 6.568C77.0143 7.112 76.9289 7.59733 76.7583 8.024C76.5876 8.44 76.3423 8.792 76.0223 9.08C75.7129 9.35733 75.3396 9.57066 74.9023 9.72C74.4649 9.86933 73.9796 9.944 73.4463 9.944H71.6863ZM74.5183 6.568C74.5183 6.19466 74.4116 5.896 74.1982 5.672C73.9849 5.448 73.6436 5.336 73.1742 5.336H71.6863V7.8H73.1742C73.6436 7.8 73.9849 7.688 74.1982 7.464C74.4116 7.24 74.5183 6.94133 74.5183 6.568Z" fill="#444444"/>
<path d="M85.135 3.176V5.384H80.639V6.92H84.751V9.08H80.639V10.776H85.135V13H78.111V3.176H85.135Z" fill="#444444"/>
<path d="M89.6545 8.088C89.6545 6.56266 90.0972 5.34133 90.9825 4.424C91.8678 3.496 92.9612 3.032 94.2625 3.032C94.8278 3.032 95.3292 3.10666 95.7665 3.256C96.2038 3.40533 96.5825 3.61333 96.9025 3.88V5.208C96.5078 4.84533 96.0972 4.584 95.6705 4.424C95.2438 4.25333 94.7798 4.168 94.2785 4.168C93.2865 4.168 92.4758 4.53066 91.8465 5.256C91.2278 5.97066 90.9185 6.91466 90.9185 8.088C90.9185 9.26133 91.2278 10.2107 91.8465 10.936C92.4758 11.6507 93.2865 12.008 94.2785 12.008C94.7798 12.008 95.2438 11.928 95.6705 11.768C96.0972 11.5973 96.5078 11.3307 96.9025 10.968V12.296C96.5825 12.5627 96.2038 12.7707 95.7665 12.92C95.3292 13.0693 94.8278 13.144 94.2625 13.144C92.9612 13.144 91.8678 12.6853 90.9825 11.768C90.0972 10.84 89.6545 9.61333 89.6545 8.088Z" fill="#444444"/>
<path d="M102.423 5.864V7.096C102.327 7.032 102.204 6.984 102.055 6.952C101.916 6.92 101.772 6.904 101.623 6.904C101.25 6.904 100.908 7.02133 100.599 7.256C100.3 7.49066 100.092 7.816 99.9751 8.232V13H98.7751V5.896H99.9751V6.824C100.124 6.52533 100.354 6.27466 100.663 6.072C100.983 5.85866 101.34 5.752 101.735 5.752C101.884 5.752 102.018 5.76266 102.135 5.784C102.263 5.80533 102.359 5.832 102.423 5.864Z" fill="#444444"/>
<path d="M107.68 11.24V10.504C107.584 10.2373 107.376 10.024 107.056 9.864C106.747 9.704 106.406 9.624 106.032 9.624C105.606 9.624 105.216 9.72533 104.864 9.928C104.512 10.12 104.336 10.4293 104.336 10.856C104.336 11.2827 104.512 11.6027 104.864 11.816C105.216 12.0187 105.606 12.12 106.032 12.12C106.406 12.12 106.747 12.04 107.056 11.88C107.376 11.72 107.584 11.5067 107.68 11.24ZM107.68 9.208V8.28C107.68 7.84266 107.526 7.496 107.216 7.24C106.918 6.984 106.507 6.856 105.984 6.856C105.59 6.856 105.227 6.91466 104.896 7.032C104.576 7.13866 104.267 7.288 103.968 7.48V6.344C104.203 6.17333 104.518 6.03466 104.912 5.928C105.318 5.81066 105.739 5.752 106.176 5.752C107.008 5.752 107.659 5.97066 108.128 6.408C108.608 6.84533 108.848 7.43733 108.848 8.184V13H107.68V12.472C107.542 12.6107 107.302 12.7547 106.96 12.904C106.63 13.0533 106.256 13.128 105.84 13.128C105.115 13.128 104.491 12.9253 103.968 12.52C103.456 12.1147 103.2 11.56 103.2 10.856C103.2 10.1947 103.462 9.66133 103.984 9.256C104.507 8.84 105.147 8.632 105.904 8.632C106.267 8.632 106.614 8.696 106.944 8.824C107.286 8.94133 107.531 9.06933 107.68 9.208Z" fill="#444444"/>
<path d="M112.918 15.72H111.734L112.806 13.048L110.038 5.896H111.334L113.43 11.496L115.494 5.896H116.742L112.918 15.72Z" fill="#444444"/>
<path d="M125.314 4.744L123.715 8.936H126.931L125.314 4.744ZM128.482 13L127.347 10.04H123.299L122.179 13H120.898L124.739 3.176H125.923L129.763 13H128.482Z" fill="#444444"/>
<path d="M132.526 3.176V13H131.262V3.176H132.526Z" fill="#444444"/>
<rect x="1.5" y="3.5" width="41" height="9" stroke="#01A982" stroke-width="3"/>
</svg>
