<svg width="56" height="56" viewBox="0 0 56 56" fill="none" xmlns="http://www.w3.org/2000/svg">
<path fill-rule="evenodd" clip-rule="evenodd" d="M9 15.7143C9 13.1107 11.1267 11 13.75 11H42.25C44.8734 11 47 13.1107 47 15.7143C47 18.3179 44.8734 20.4286 42.25 20.4286H13.75C11.1267 20.4286 9 18.3179 9 15.7143ZM44.625 15.7143C44.625 17.0161 43.5616 18.0714 42.25 18.0714C40.9384 18.0714 39.875 17.0161 39.875 15.7143C39.875 14.4125 40.9384 13.3571 42.25 13.3571C43.5616 13.3571 44.625 14.4125 44.625 15.7143ZM35.125 18.0714C36.4366 18.0714 37.5 17.0161 37.5 15.7143C37.5 14.4125 36.4366 13.3571 35.125 13.3571C33.8134 13.3571 32.75 14.4125 32.75 15.7143C32.75 17.0161 33.8134 18.0714 35.125 18.0714ZM9 27.5C9 24.8964 11.1267 22.7857 13.75 22.7857H42.25C44.8734 22.7857 47 24.8964 47 27.5C47 30.1037 44.8734 32.2143 42.25 32.2143H13.75C11.1267 32.2143 9 30.1037 9 27.5ZM44.625 27.5C44.625 28.8018 43.5616 29.8571 42.25 29.8571C40.9384 29.8571 39.875 28.8018 39.875 27.5C39.875 26.1982 40.9384 25.1429 42.25 25.1429C43.5616 25.1429 44.625 26.1982 44.625 27.5ZM35.125 29.8571C36.4366 29.8571 37.5 28.8018 37.5 27.5C37.5 26.1982 36.4366 25.1429 35.125 25.1429C33.8134 25.1429 32.75 26.1982 32.75 27.5C32.75 28.8018 33.8134 29.8571 35.125 29.8571ZM13.75 34.5714C11.1267 34.5714 9 36.682 9 39.2857C9 41.8894 11.1267 44 13.75 44H42.25C44.8734 44 47 41.8894 47 39.2857C47 36.682 44.8734 34.5714 42.25 34.5714H13.75ZM42.25 41.6429C43.5616 41.6429 44.625 40.5875 44.625 39.2857C44.625 37.9839 43.5616 36.9286 42.25 36.9286C40.9384 36.9286 39.875 37.9839 39.875 39.2857C39.875 40.5875 40.9384 41.6429 42.25 41.6429ZM37.5 39.2857C37.5 40.5875 36.4366 41.6429 35.125 41.6429C33.8134 41.6429 32.75 40.5875 32.75 39.2857C32.75 37.9839 33.8134 36.9286 35.125 36.9286C36.4366 36.9286 37.5 37.9839 37.5 39.2857Z" fill="#0D1E2B"/>
</svg>
