<svg width="190" height="33" viewBox="0 0 190 33" fill="none" xmlns="http://www.w3.org/2000/svg">
<path d="M0 0V11H35V0H0ZM32.8107 8.60201H2.18402V2.39509H32.8107V8.60201Z" fill="#01A982"/>
<path d="M52.718 0.410959V11.0513H49.9191V6.84024H45.7989V11.0513H43V0.410959H45.7989V4.44875H49.9191V0.410959H52.718Z" fill="white"/>
<path d="M57.0709 7.74138V11.0513H54.3068V0.410959H58.9832C59.5627 0.410959 60.09 0.491831 60.5652 0.653574C61.0404 0.815317 61.446 1.05215 61.7821 1.36409C62.1298 1.67602 62.3964 2.06305 62.5818 2.52517C62.7673 2.97574 62.86 3.49563 62.86 4.08483C62.86 4.67404 62.7673 5.1997 62.5818 5.66183C62.3964 6.1124 62.1298 6.49365 61.7821 6.80558C61.446 7.10596 61.0404 7.33702 60.5652 7.49876C60.09 7.66051 59.5627 7.74138 58.9832 7.74138H57.0709ZM60.148 4.08483C60.148 3.68048 60.0321 3.35699 59.8003 3.11438C59.5685 2.87176 59.1976 2.75045 58.6877 2.75045H57.0709V5.41921H58.6877C59.1976 5.41921 59.5685 5.2979 59.8003 5.05529C60.0321 4.81268 60.148 4.48919 60.148 4.08483Z" fill="white"/>
<path d="M71.6835 0.410959V2.80244H66.7984V4.46608H71.2662V6.80558H66.7984V8.64252H71.6835V11.0513H64.0516V0.410959H71.6835Z" fill="white"/>
<path d="M83.397 8.43288H83.3304L79.8191 2.92603V10.6849H78.5377V0.591781H79.7525L83.3804 6.39452L86.9915 0.591781H88.1398V10.6849H86.8584V2.92603L83.397 8.43288Z" fill="white"/>
<path d="M94.5743 8.87671V8.12055C94.4745 7.84658 94.2581 7.6274 93.9253 7.46301C93.6036 7.29863 93.2485 7.21644 92.8602 7.21644C92.4165 7.21644 92.0115 7.32055 91.6454 7.52877C91.2793 7.72603 91.0963 8.04384 91.0963 8.48219C91.0963 8.92055 91.2793 9.24932 91.6454 9.46849C92.0115 9.67671 92.4165 9.78082 92.8602 9.78082C93.2485 9.78082 93.6036 9.69863 93.9253 9.53425C94.2581 9.36986 94.4745 9.15069 94.5743 8.87671ZM94.5743 6.78904V5.83562C94.5743 5.3863 94.4134 5.03014 94.0917 4.76712C93.7811 4.50411 93.3539 4.3726 92.8103 4.3726C92.3998 4.3726 92.0226 4.43288 91.6787 4.55342C91.3459 4.66301 91.0241 4.81644 90.7135 5.0137V3.84658C90.9576 3.67123 91.2849 3.52877 91.6953 3.41918C92.1169 3.29863 92.5551 3.23836 93.01 3.23836C93.8754 3.23836 94.5521 3.46301 95.0403 3.91233C95.5395 4.36164 95.7891 4.96986 95.7891 5.73699V10.6849H94.5743V10.1425C94.4301 10.2849 94.1805 10.4329 93.8254 10.5863C93.4815 10.7397 93.0932 10.8164 92.6605 10.8164C91.9061 10.8164 91.2571 10.6082 90.7135 10.1918C90.181 9.77534 89.9147 9.20548 89.9147 8.48219C89.9147 7.80274 90.1865 7.25479 90.7301 6.83836C91.2738 6.41096 91.9394 6.19726 92.7271 6.19726C93.1043 6.19726 93.4649 6.26301 93.8088 6.39452C94.1638 6.51507 94.419 6.64658 94.5743 6.78904Z" fill="white"/>
<path d="M97.3907 7.03562C97.3907 5.87397 97.7347 4.95343 98.4225 4.27397C99.1103 3.58356 99.9535 3.23836 100.952 3.23836C101.307 3.23836 101.662 3.28767 102.017 3.3863C102.372 3.47397 102.677 3.6274 102.932 3.84658V5.09589C102.666 4.83288 102.372 4.6411 102.05 4.52055C101.729 4.4 101.39 4.33973 101.035 4.33973C100.381 4.33973 99.8204 4.58082 99.3544 5.06301C98.8885 5.54521 98.6555 6.20274 98.6555 7.03562C98.6555 7.86849 98.8885 8.52603 99.3544 9.00822C99.8204 9.49041 100.381 9.73151 101.035 9.73151C101.39 9.73151 101.729 9.67123 102.05 9.55069C102.372 9.43014 102.666 9.23836 102.932 8.97534V10.2247C102.677 10.4438 102.372 10.5973 102.017 10.6849C101.662 10.7836 101.307 10.8329 100.952 10.8329C99.9535 10.8329 99.1103 10.4932 98.4225 9.8137C97.7347 9.12329 97.3907 8.19726 97.3907 7.03562Z" fill="white"/>
<path d="M104.668 10.6849V0H105.916V4.30685C106.126 4.02192 106.42 3.77534 106.798 3.56712C107.186 3.34795 107.619 3.23836 108.096 3.23836C108.928 3.23836 109.566 3.48493 110.009 3.97808C110.464 4.47123 110.692 5.11233 110.692 5.90137V10.6849H109.427V6.09863C109.427 5.59452 109.294 5.18356 109.028 4.86575C108.761 4.53699 108.351 4.3726 107.796 4.3726C107.363 4.3726 106.975 4.50411 106.631 4.76712C106.287 5.01918 106.049 5.34247 105.916 5.73699V10.6849H104.668Z" fill="white"/>
<path d="M114.241 1.18356C114.241 1.39178 114.157 1.57808 113.991 1.74247C113.836 1.89589 113.647 1.9726 113.425 1.9726C113.214 1.9726 113.026 1.89589 112.859 1.74247C112.704 1.57808 112.626 1.39178 112.626 1.18356C112.626 0.964384 112.704 0.778082 112.859 0.624657C113.026 0.471233 113.214 0.39452 113.425 0.39452C113.647 0.39452 113.836 0.471233 113.991 0.624657C114.157 0.778082 114.241 0.964384 114.241 1.18356ZM114.058 3.3863V10.6849H112.81V3.3863H114.058Z" fill="white"/>
<path d="M116.287 10.6849V3.3863H117.535V4.30685C117.746 4.02192 118.04 3.77534 118.417 3.56712C118.806 3.34795 119.238 3.23836 119.715 3.23836C120.547 3.23836 121.185 3.48493 121.629 3.97808C122.084 4.47123 122.311 5.11233 122.311 5.90137V10.6849H121.047V6.09863C121.047 5.59452 120.914 5.18356 120.647 4.86575C120.381 4.53699 119.971 4.3726 119.416 4.3726C118.983 4.3726 118.595 4.50411 118.251 4.76712C117.907 5.01918 117.669 5.34247 117.535 5.73699V10.6849H116.287Z" fill="white"/>
<path d="M127.208 4.29041C126.731 4.29041 126.304 4.45479 125.927 4.78356C125.55 5.11233 125.306 5.61096 125.195 6.27945H129.006C128.983 5.74247 128.828 5.27671 128.54 4.88219C128.251 4.48767 127.807 4.29041 127.208 4.29041ZM129.705 10.1918C129.405 10.4219 129.067 10.5863 128.689 10.6849C128.312 10.7836 127.902 10.8329 127.458 10.8329C126.393 10.8329 125.533 10.4986 124.879 9.83014C124.224 9.15069 123.897 8.2411 123.897 7.10137C123.897 5.9726 124.202 5.04658 124.812 4.32329C125.422 3.6 126.215 3.23836 127.192 3.23836C128.19 3.23836 128.945 3.56712 129.455 4.22466C129.965 4.88219 130.22 5.74247 130.22 6.80548V7.24932H125.128C125.161 8.09315 125.417 8.72329 125.894 9.13973C126.371 9.54521 126.942 9.74795 127.608 9.74795C128.018 9.74795 128.384 9.69315 128.706 9.58356C129.039 9.47397 129.372 9.29863 129.705 9.05753V10.1918Z" fill="white"/>
<path d="M135.694 10.6849V0.591781H137.008V9.51781H142.217V10.6849H135.694Z" fill="white"/>
<path d="M146.629 4.29041C146.152 4.29041 145.725 4.45479 145.347 4.78356C144.97 5.11233 144.726 5.61096 144.615 6.27945H148.426C148.404 5.74247 148.249 5.27671 147.96 4.88219C147.672 4.48767 147.228 4.29041 146.629 4.29041ZM149.125 10.1918C148.825 10.4219 148.487 10.5863 148.11 10.6849C147.733 10.7836 147.322 10.8329 146.878 10.8329C145.813 10.8329 144.953 10.4986 144.299 9.83014C143.644 9.15069 143.317 8.2411 143.317 7.10137C143.317 5.9726 143.622 5.04658 144.232 4.32329C144.843 3.6 145.636 3.23836 146.612 3.23836C147.611 3.23836 148.365 3.56712 148.875 4.22466C149.386 4.88219 149.641 5.74247 149.641 6.80548V7.24932H144.549C144.582 8.09315 144.837 8.72329 145.314 9.13973C145.791 9.54521 146.362 9.74795 147.028 9.74795C147.439 9.74795 147.805 9.69315 148.126 9.58356C148.459 9.47397 148.792 9.29863 149.125 9.05753V10.1918Z" fill="white"/>
<path d="M155.452 8.87671V8.12055C155.352 7.84658 155.136 7.6274 154.803 7.46301C154.481 7.29863 154.126 7.21644 153.738 7.21644C153.294 7.21644 152.889 7.32055 152.523 7.52877C152.157 7.72603 151.974 8.04384 151.974 8.48219C151.974 8.92055 152.157 9.24932 152.523 9.46849C152.889 9.67671 153.294 9.78082 153.738 9.78082C154.126 9.78082 154.481 9.69863 154.803 9.53425C155.136 9.36986 155.352 9.15069 155.452 8.87671ZM155.452 6.78904V5.83562C155.452 5.3863 155.291 5.03014 154.969 4.76712C154.659 4.50411 154.232 4.3726 153.688 4.3726C153.277 4.3726 152.9 4.43288 152.556 4.55342C152.223 4.66301 151.902 4.81644 151.591 5.0137V3.84658C151.835 3.67123 152.162 3.52877 152.573 3.41918C152.995 3.29863 153.433 3.23836 153.888 3.23836C154.753 3.23836 155.43 3.46301 155.918 3.91233C156.417 4.36164 156.667 4.96986 156.667 5.73699V10.6849H155.452V10.1425C155.308 10.2849 155.058 10.4329 154.703 10.5863C154.359 10.7397 153.971 10.8164 153.538 10.8164C152.784 10.8164 152.135 10.6082 151.591 10.1918C151.059 9.77534 150.792 9.20548 150.792 8.48219C150.792 7.80274 151.064 7.25479 151.608 6.83836C152.151 6.41096 152.817 6.19726 153.605 6.19726C153.982 6.19726 154.343 6.26301 154.686 6.39452C155.041 6.51507 155.297 6.64658 155.452 6.78904Z" fill="white"/>
<path d="M162.595 3.35343V4.61918C162.495 4.55342 162.368 4.50411 162.212 4.47123C162.068 4.43836 161.918 4.42192 161.763 4.42192C161.375 4.42192 161.02 4.54247 160.698 4.78356C160.387 5.02466 160.171 5.3589 160.049 5.7863V10.6849H158.801V3.3863H160.049V4.33973C160.204 4.03288 160.443 3.77534 160.765 3.56712C161.097 3.34795 161.469 3.23836 161.88 3.23836C162.035 3.23836 162.174 3.24932 162.296 3.27123C162.429 3.29315 162.529 3.32055 162.595 3.35343Z" fill="white"/>
<path d="M164.148 10.6849V3.3863H165.396V4.30685C165.606 4.02192 165.9 3.77534 166.278 3.56712C166.666 3.34795 167.099 3.23836 167.576 3.23836C168.408 3.23836 169.046 3.48493 169.489 3.97808C169.944 4.47123 170.172 5.11233 170.172 5.90137V10.6849H168.907V6.09863C168.907 5.59452 168.774 5.18356 168.508 4.86575C168.241 4.53699 167.831 4.3726 167.276 4.3726C166.843 4.3726 166.455 4.50411 166.111 4.76712C165.767 5.01918 165.529 5.34247 165.396 5.73699V10.6849H164.148Z" fill="white"/>
<path d="M173.721 1.18356C173.721 1.39178 173.637 1.57808 173.471 1.74247C173.316 1.89589 173.127 1.9726 172.905 1.9726C172.694 1.9726 172.506 1.89589 172.339 1.74247C172.184 1.57808 172.106 1.39178 172.106 1.18356C172.106 0.964384 172.184 0.778082 172.339 0.624657C172.506 0.471233 172.694 0.39452 172.905 0.39452C173.127 0.39452 173.316 0.471233 173.471 0.624657C173.637 0.778082 173.721 0.964384 173.721 1.18356ZM173.538 3.3863V10.6849H172.29V3.3863H173.538Z" fill="white"/>
<path d="M175.767 10.6849V3.3863H177.015V4.30685C177.226 4.02192 177.52 3.77534 177.897 3.56712C178.286 3.34795 178.718 3.23836 179.195 3.23836C180.028 3.23836 180.665 3.48493 181.109 3.97808C181.564 4.47123 181.791 5.11233 181.791 5.90137V10.6849H180.527V6.09863C180.527 5.59452 180.394 5.18356 180.127 4.86575C179.861 4.53699 179.451 4.3726 178.896 4.3726C178.463 4.3726 178.075 4.50411 177.731 4.76712C177.387 5.01918 177.149 5.34247 177.015 5.73699V10.6849H175.767Z" fill="white"/>
<path d="M188.735 8.44932V5.47397C188.547 5.13425 188.286 4.86027 187.953 4.65206C187.62 4.44384 187.254 4.33973 186.855 4.33973C186.156 4.33973 185.612 4.59178 185.224 5.09589C184.836 5.58904 184.641 6.2137 184.641 6.96986C184.641 7.72603 184.836 8.35069 185.224 8.84384C185.612 9.33699 186.156 9.58356 186.855 9.58356C187.254 9.58356 187.62 9.47945 187.953 9.27123C188.286 9.06301 188.547 8.78904 188.735 8.44932ZM188.735 10.1918V9.71507C188.558 9.96712 188.28 10.1973 187.903 10.4055C187.537 10.6027 187.127 10.7014 186.672 10.7014C185.596 10.7014 184.775 10.3233 184.209 9.56712C183.654 8.81096 183.377 7.94521 183.377 6.96986C183.377 5.99452 183.654 5.12877 184.209 4.3726C184.775 3.61644 185.596 3.23836 186.672 3.23836C187.127 3.23836 187.537 3.33699 187.903 3.53425C188.28 3.73151 188.558 3.95616 188.735 4.20822V3.3863H190V10.1096C190 11.3808 189.617 12.2849 188.852 12.8219C188.086 13.3699 187.265 13.6438 186.389 13.6438C185.912 13.6438 185.462 13.5836 185.041 13.463C184.63 13.3425 184.286 13.1836 184.009 12.9863V11.6219C184.375 11.9616 184.752 12.1973 185.141 12.3288C185.54 12.4603 185.956 12.526 186.389 12.526C187.043 12.526 187.598 12.3288 188.053 11.9342C188.508 11.5507 188.735 10.9699 188.735 10.1918Z" fill="white"/>
<path d="M78.5377 30.2055V20.1123H81.8161C83.3027 20.1123 84.5009 20.5726 85.4106 21.4932C86.3203 22.4027 86.7752 23.6247 86.7752 25.1589C86.7752 26.6932 86.3203 27.9205 85.4106 28.8411C84.5009 29.7507 83.3027 30.2055 81.8161 30.2055H78.5377ZM79.8524 29.0384H81.7994C82.9532 29.0384 83.8519 28.6877 84.4953 27.9863C85.1499 27.274 85.4772 26.3315 85.4772 25.1589C85.4772 23.9863 85.1499 23.0438 84.4953 22.3315C83.8519 21.6192 82.9532 21.263 81.7994 21.263H79.8524V29.0384Z" fill="white"/>
<path d="M91.3741 23.811C90.897 23.811 90.4699 23.9753 90.0927 24.3041C89.7155 24.6329 89.4714 25.1315 89.3605 25.8H93.1714C93.1492 25.263 92.9938 24.7973 92.7054 24.4027C92.4169 24.0082 91.9732 23.811 91.3741 23.811ZM93.8703 29.7123C93.5707 29.9425 93.2324 30.1069 92.8552 30.2055C92.478 30.3041 92.0675 30.3534 91.6237 30.3534C90.5587 30.3534 89.6989 30.0192 89.0443 29.3507C88.3897 28.6712 88.0624 27.7616 88.0624 26.6219C88.0624 25.4932 88.3675 24.5671 88.9777 23.8438C89.5879 23.1205 90.3811 22.7589 91.3574 22.7589C92.3559 22.7589 93.1103 23.0877 93.6207 23.7452C94.131 24.4027 94.3862 25.263 94.3862 26.326V26.7699H89.2939C89.3272 27.6137 89.5824 28.2438 90.0594 28.6603C90.5365 29.0658 91.1078 29.2685 91.7735 29.2685C92.184 29.2685 92.5501 29.2137 92.8718 29.1041C93.2046 28.9945 93.5375 28.8192 93.8703 28.5781V29.7123Z" fill="white"/>
<path d="M99.2352 30.2055H98.0037L95.1414 22.9068H96.4894L98.6527 28.6438L100.799 22.9068H102.114L99.2352 30.2055Z" fill="white"/>
<path d="M106.179 23.811C105.702 23.811 105.275 23.9753 104.898 24.3041C104.52 24.6329 104.276 25.1315 104.165 25.8H107.976C107.954 25.263 107.799 24.7973 107.51 24.4027C107.222 24.0082 106.778 23.811 106.179 23.811ZM108.675 29.7123C108.376 29.9425 108.037 30.1069 107.66 30.2055C107.283 30.3041 106.872 30.3534 106.429 30.3534C105.364 30.3534 104.504 30.0192 103.849 29.3507C103.195 28.6712 102.867 27.7616 102.867 26.6219C102.867 25.4932 103.173 24.5671 103.783 23.8438C104.393 23.1205 105.186 22.7589 106.162 22.7589C107.161 22.7589 107.915 23.0877 108.426 23.7452C108.936 24.4027 109.191 25.263 109.191 26.326V26.7699H104.099C104.132 27.6137 104.387 28.2438 104.864 28.6603C105.341 29.0658 105.913 29.2685 106.578 29.2685C106.989 29.2685 107.355 29.2137 107.677 29.1041C108.01 28.9945 108.342 28.8192 108.675 28.5781V29.7123Z" fill="white"/>
<path d="M112.14 19.5205V30.2055H110.892V19.5205H112.14Z" fill="white"/>
<path d="M120.627 26.5562C120.627 27.663 120.311 28.5726 119.678 29.2849C119.046 29.9973 118.23 30.3534 117.232 30.3534C116.222 30.3534 115.401 29.9973 114.769 29.2849C114.148 28.5726 113.837 27.663 113.837 26.5562C113.837 25.4493 114.148 24.5397 114.769 23.8274C115.401 23.1151 116.222 22.7589 117.232 22.7589C118.23 22.7589 119.046 23.1151 119.678 23.8274C120.311 24.5397 120.627 25.4493 120.627 26.5562ZM119.362 26.5562C119.362 25.7671 119.173 25.1205 118.796 24.6164C118.419 24.1014 117.898 23.8438 117.232 23.8438C116.566 23.8438 116.045 24.1014 115.668 24.6164C115.29 25.1205 115.102 25.7671 115.102 26.5562C115.102 27.3452 115.29 27.9973 115.668 28.5123C116.045 29.0164 116.566 29.2685 117.232 29.2685C117.898 29.2685 118.419 29.0164 118.796 28.5123C119.173 27.9973 119.362 27.3452 119.362 26.5562Z" fill="white"/>
<path d="M123.565 25.0767V28.0356C123.753 28.4082 124.02 28.7041 124.363 28.9233C124.707 29.1315 125.073 29.2356 125.462 29.2356C126.161 29.2356 126.71 28.9836 127.109 28.4795C127.509 27.9644 127.708 27.3233 127.708 26.5562C127.708 25.789 127.509 25.1534 127.109 24.6493C126.71 24.1342 126.161 23.8767 125.462 23.8767C125.073 23.8767 124.707 23.9863 124.363 24.2055C124.02 24.4137 123.753 24.7041 123.565 25.0767ZM123.565 29.3507V33H122.317V22.9068H123.565V23.7616C123.753 23.4986 124.031 23.2685 124.397 23.0712C124.774 22.863 125.19 22.7589 125.645 22.7589C126.732 22.7589 127.559 23.1425 128.124 23.9096C128.69 24.6658 128.973 25.5479 128.973 26.5562C128.973 27.5644 128.69 28.4521 128.124 29.2192C127.559 29.9753 126.732 30.3534 125.645 30.3534C125.19 30.3534 124.774 30.2548 124.397 30.0575C124.031 29.8493 123.753 29.6137 123.565 29.3507Z" fill="white"/>
<path d="M135.912 23.926C136.145 23.5973 136.45 23.3233 136.827 23.1041C137.204 22.874 137.648 22.7589 138.158 22.7589C138.902 22.7589 139.473 23 139.872 23.4822C140.283 23.9534 140.488 24.5836 140.488 25.3726V30.2055H139.223V25.5699C139.223 25.0658 139.107 24.6603 138.874 24.3534C138.652 24.0356 138.303 23.8767 137.826 23.8767C137.448 23.8767 137.11 23.9973 136.81 24.2384C136.511 24.4685 136.306 24.7808 136.195 25.1753V30.2055H134.947V25.5699C134.947 25.0658 134.83 24.6603 134.597 24.3534C134.375 24.0356 134.026 23.8767 133.549 23.8767C133.172 23.8767 132.833 23.9973 132.534 24.2384C132.234 24.4685 132.029 24.7808 131.918 25.1753V30.2055H130.67V22.9068H131.918V23.7616C132.095 23.4767 132.356 23.2411 132.7 23.0548C133.055 22.8575 133.46 22.7589 133.915 22.7589C134.381 22.7589 134.786 22.8685 135.13 23.0877C135.474 23.3068 135.734 23.5863 135.912 23.926Z" fill="white"/>
<path d="M145.377 23.811C144.9 23.811 144.473 23.9753 144.096 24.3041C143.719 24.6329 143.475 25.1315 143.364 25.8H147.175C147.152 25.263 146.997 24.7973 146.709 24.4027C146.42 24.0082 145.976 23.811 145.377 23.811ZM147.874 29.7123C147.574 29.9425 147.236 30.1069 146.858 30.2055C146.481 30.3041 146.071 30.3534 145.627 30.3534C144.562 30.3534 143.702 30.0192 143.048 29.3507C142.393 28.6712 142.066 27.7616 142.066 26.6219C142.066 25.4932 142.371 24.5671 142.981 23.8438C143.591 23.1205 144.384 22.7589 145.361 22.7589C146.359 22.7589 147.114 23.0877 147.624 23.7452C148.134 24.4027 148.389 25.263 148.389 26.326V26.7699H143.297C143.33 27.6137 143.586 28.2438 144.063 28.6603C144.54 29.0658 145.111 29.2685 145.777 29.2685C146.187 29.2685 146.553 29.2137 146.875 29.1041C147.208 28.9945 147.541 28.8192 147.874 28.5781V29.7123Z" fill="white"/>
<path d="M150.09 30.2055V22.9068H151.338V23.8274C151.549 23.5425 151.843 23.2959 152.22 23.0877C152.609 22.8685 153.041 22.7589 153.518 22.7589C154.35 22.7589 154.988 23.0055 155.432 23.4986C155.887 23.9918 156.114 24.6329 156.114 25.4219V30.2055H154.85V25.6192C154.85 25.1151 154.716 24.7041 154.45 24.3863C154.184 24.0575 153.773 23.8932 153.219 23.8932C152.786 23.8932 152.398 24.0247 152.054 24.2877C151.71 24.5397 151.471 24.863 151.338 25.2575V30.2055H150.09Z" fill="white"/>
<path d="M160.296 23.9589V30.2055H159.048V23.9589H157.5V22.9068H159.048V20.9836H160.296V22.9068H162.01V23.9589H160.296Z" fill="white"/>
</svg>
