<svg width="56" height="56" viewBox="0 0 56 56" fill="none" xmlns="http://www.w3.org/2000/svg">
<g clip-path="url(#clip0_926_54074)">
<path d="M18.0737 26.0474C18.0737 26.6073 18.1342 27.0612 18.2401 27.3941C18.3612 27.727 18.5125 28.0902 18.7243 28.4836C18.8 28.6047 18.8303 28.7257 18.8303 28.8316C18.8303 28.983 18.7395 29.1343 18.5428 29.2856L17.5895 29.9211C17.4533 30.0119 17.3171 30.0573 17.196 30.0573C17.0447 30.0573 16.8934 29.9816 16.7421 29.8455C16.5303 29.6185 16.3487 29.3764 16.1974 29.1343C16.046 28.877 15.8947 28.5895 15.7283 28.2415C14.548 29.6336 13.0651 30.3297 11.2796 30.3297C10.0085 30.3297 8.99473 29.9665 8.25328 29.2402C7.51183 28.5139 7.13354 27.5455 7.13354 26.3349C7.13354 25.0487 7.58749 24.0047 8.51052 23.2178C9.43354 22.431 10.6592 22.0376 12.2178 22.0376C12.7322 22.0376 13.2618 22.083 13.8217 22.1586C14.3816 22.2343 14.9566 22.3553 15.5618 22.4915V21.3869C15.5618 20.2369 15.3197 19.4349 14.8506 18.9658C14.3664 18.4968 13.5493 18.2698 12.3842 18.2698C11.8546 18.2698 11.3099 18.3303 10.75 18.4665C10.1901 18.6027 9.64539 18.7691 9.11578 18.981C8.87368 19.0869 8.6921 19.1474 8.58618 19.1777C8.48026 19.208 8.4046 19.2231 8.34407 19.2231C8.13223 19.2231 8.02631 19.0718 8.02631 18.754V18.0126C8.02631 17.7705 8.05657 17.5889 8.13223 17.483C8.20789 17.377 8.34407 17.2711 8.55591 17.1652C9.08552 16.8928 9.72104 16.6658 10.4625 16.4843C11.2039 16.2876 11.9908 16.1968 12.823 16.1968C14.6237 16.1968 15.9401 16.6053 16.7875 17.4224C17.6197 18.2395 18.0434 19.4803 18.0434 21.1448V26.0474H18.0737ZM11.9303 28.3474C12.4296 28.3474 12.9441 28.2566 13.4888 28.0751C14.0335 27.8935 14.5178 27.5606 14.9263 27.1066C15.1684 26.8191 15.35 26.5014 15.4408 26.1382C15.5316 25.7751 15.5921 25.3362 15.5921 24.8218V24.1862C15.1533 24.0803 14.6842 23.9895 14.2 23.929C13.7158 23.8685 13.2467 23.8382 12.7776 23.8382C11.7638 23.8382 11.0224 24.0349 10.523 24.4435C10.0237 24.852 9.78157 25.427 9.78157 26.1836C9.78157 26.8948 9.96315 27.4244 10.3414 27.7876C10.7046 28.1658 11.2342 28.3474 11.9303 28.3474ZM24.0809 29.9816C23.8085 29.9816 23.627 29.9362 23.5059 29.8303C23.3849 29.7395 23.2789 29.5277 23.1881 29.2402L19.6322 17.5435C19.5414 17.2408 19.496 17.0441 19.496 16.9382C19.496 16.6961 19.6171 16.5599 19.8592 16.5599H21.3421C21.6296 16.5599 21.8263 16.6053 21.9322 16.7112C22.0533 16.802 22.1441 17.0139 22.2349 17.3014L24.777 27.3185L27.1375 17.3014C27.2131 16.9987 27.3039 16.802 27.425 16.7112C27.546 16.6205 27.7579 16.5599 28.0303 16.5599H29.2408C29.5283 16.5599 29.725 16.6053 29.846 16.7112C29.9671 16.802 30.073 17.0139 30.1335 17.3014L32.5243 27.4395L35.1421 17.3014C35.2329 16.9987 35.3388 16.802 35.4447 16.7112C35.5658 16.6205 35.7625 16.5599 36.0349 16.5599H37.4421C37.6842 16.5599 37.8204 16.681 37.8204 16.9382C37.8204 17.0139 37.8052 17.0895 37.7901 17.1803C37.775 17.2711 37.7447 17.3922 37.6842 17.5586L34.0375 29.2553C33.9467 29.558 33.8408 29.7547 33.7197 29.8455C33.5987 29.9362 33.402 29.9968 33.1447 29.9968H31.8434C31.5559 29.9968 31.3592 29.9514 31.2381 29.8455C31.1171 29.7395 31.0112 29.5428 30.9506 29.2402L28.6053 19.4803L26.275 29.2251C26.1993 29.5277 26.1085 29.7244 25.9875 29.8303C25.8664 29.9362 25.6546 29.9816 25.3822 29.9816H24.0809ZM43.525 30.3902C42.7381 30.3902 41.9513 30.2994 41.1947 30.1178C40.4381 29.9362 39.848 29.7395 39.4546 29.5126C39.2125 29.3764 39.046 29.2251 38.9855 29.0889C38.925 28.9527 38.8947 28.8014 38.8947 28.6652V27.8935C38.8947 27.5757 39.0158 27.4244 39.2427 27.4244C39.3335 27.4244 39.4243 27.4395 39.5151 27.4698C39.6059 27.5001 39.7421 27.5606 39.8934 27.6211C40.4079 27.8481 40.9677 28.0297 41.5579 28.1507C42.1631 28.2718 42.7533 28.3323 43.3585 28.3323C44.3118 28.3323 45.0533 28.1658 45.5677 27.833C46.0822 27.5001 46.3546 27.0158 46.3546 26.3955C46.3546 25.9718 46.2184 25.6237 45.946 25.3362C45.6737 25.0487 45.1592 24.7915 44.4177 24.5494L42.2237 23.8685C41.1191 23.5205 40.302 23.006 39.8026 22.3251C39.3033 21.6593 39.046 20.9178 39.046 20.131C39.046 19.4955 39.1822 18.9356 39.4546 18.4514C39.727 17.9672 40.0901 17.5435 40.5441 17.2106C40.998 16.8626 41.5125 16.6053 42.1177 16.4237C42.723 16.2422 43.3585 16.1665 44.0243 16.1665C44.3572 16.1665 44.7052 16.1816 45.0381 16.227C45.3862 16.2724 45.7039 16.333 46.0217 16.3935C46.3243 16.4691 46.6118 16.5448 46.8842 16.6356C47.1566 16.7264 47.3684 16.8172 47.5197 16.908C47.7316 17.029 47.8829 17.1501 47.9737 17.2862C48.0645 17.4073 48.1099 17.5737 48.1099 17.7856V18.4968C48.1099 18.8145 47.9888 18.981 47.7618 18.981C47.6408 18.981 47.4441 18.9205 47.1868 18.7994C46.3243 18.406 45.3559 18.2093 44.2816 18.2093C43.4191 18.2093 42.7381 18.3455 42.2691 18.633C41.8 18.9205 41.5579 19.3593 41.5579 19.9797C41.5579 20.4033 41.7092 20.7665 42.0118 21.054C42.3145 21.3415 42.8743 21.629 43.6763 21.8862L45.825 22.5672C46.9145 22.9152 47.7013 23.3994 48.1704 24.0198C48.6395 24.6402 48.8664 25.3514 48.8664 26.1382C48.8664 26.7889 48.7302 27.379 48.473 27.8935C48.2006 28.408 47.8375 28.8619 47.3684 29.2251C46.8993 29.6033 46.3395 29.8757 45.6888 30.0724C45.0079 30.2843 44.2967 30.3902 43.525 30.3902Z" fill="#252F3E"/>
<path fill-rule="evenodd" clip-rule="evenodd" d="M46.3849 37.7442C41.4066 41.4212 34.1737 43.3731 27.9546 43.3731C19.2389 43.3731 11.3856 40.1501 5.454 34.7935C4.98492 34.3698 5.4086 33.7948 5.96847 34.1277C12.3843 37.8501 20.2981 40.1047 28.4843 40.1047C34.0073 40.1047 40.075 38.9547 45.6586 36.5942C46.4908 36.2159 47.202 37.1389 46.3849 37.7442Z" fill="#FF9900"/>
<path fill-rule="evenodd" clip-rule="evenodd" d="M48.4579 35.3837C47.8224 34.5666 44.2513 34.9903 42.6323 35.187C42.148 35.2475 42.0724 34.8238 42.5112 34.5061C45.3559 32.5087 50.0316 33.0837 50.5763 33.7495C51.1211 34.4304 50.425 39.1061 47.7619 41.3456C47.3533 41.6936 46.9599 41.512 47.1415 41.0581C47.7467 39.56 49.0934 36.1857 48.4579 35.3837Z" fill="#FF9900"/>
</g>
<defs>
<clipPath id="clip0_926_54074">
<rect width="46" height="27.5395" fill="white" transform="translate(5 16)"/>
</clipPath>
</defs>
</svg>
