<svg width="24" height="19" viewBox="0 0 24 19" fill="none" xmlns="http://www.w3.org/2000/svg">
<path fill-rule="evenodd" clip-rule="evenodd" d="M7.3125 0C4.7564 0 2.64779 1.99882 2.62504 4.45641L2.62496 4.46429L2.62504 4.47216C2.63755 5.8232 3.28043 7.03559 4.2815 7.85347C2.19053 8.89758 0.75 10.9852 0.75 13.3929V15.1786H2.625V13.3929C2.625 10.9298 4.74553 8.92857 7.3125 8.92857H7.70254C7.988 9.5508 8.41808 10.0991 8.95231 10.5349C6.86269 11.5803 5.4375 13.6674 5.4375 16.0714V18.75H7.3125V16.0714C7.3125 13.6059 9.41117 11.6071 12 11.6071C14.5888 11.6071 16.6875 13.6059 16.6875 16.0714V18.75H18.5625V16.0714C18.5625 13.6674 17.1373 11.5803 15.0477 10.5349C15.5819 10.0991 16.012 9.5508 16.2975 8.92857H16.6875C19.2545 8.92857 21.375 10.9298 21.375 13.3929V15.1786H23.25V13.3929C23.25 10.9852 21.8095 8.89758 19.7185 7.85347C20.7196 7.03559 21.3625 5.8232 21.375 4.47216L21.375 4.46429L21.375 4.45641C21.3522 1.99882 19.2436 0 16.6875 0C14.6866 0 12.98 1.1262 12.2655 2.68561C12.1776 2.68094 12.0891 2.67857 12 2.67857C11.9109 2.67857 11.8224 2.68094 11.7345 2.68561C11.02 1.1262 9.31339 0 7.3125 0ZM9.88649 3.15703C9.41168 2.37391 8.46344 1.78571 7.3125 1.78571C5.79837 1.78571 4.51826 2.98063 4.50005 4.46429C4.51826 5.94794 5.79837 7.14286 7.3125 7.14286C7.3125 5.40147 8.3594 3.89295 9.88649 3.15703ZM16.6875 7.14286C16.6875 5.40147 15.6406 3.89295 14.1135 3.15703C14.5883 2.37391 15.5366 1.78571 16.6875 1.78571C18.2016 1.78571 19.4817 2.98063 19.5 4.46429C19.4817 5.94794 18.2016 7.14286 16.6875 7.14286ZM12 9.82143C13.5533 9.82143 14.8125 8.62219 14.8125 7.14286C14.8125 5.66352 13.5533 4.46429 12 4.46429C10.4467 4.46429 9.1875 5.66352 9.1875 7.14286C9.1875 8.62219 10.4467 9.82143 12 9.82143Z" fill="#666666"/>
</svg>
