<svg width="24" height="21" viewBox="0 0 24 21" fill="none" xmlns="http://www.w3.org/2000/svg">
<path fill-rule="evenodd" clip-rule="evenodd" d="M0 3C0 1.34315 1.34315 0 3 0H21C22.6569 0 24 1.34315 24 3C24 4.65685 22.6569 6 21 6H3C1.34315 6 0 4.65685 0 3ZM22.5 3C22.5 3.82843 21.8284 4.5 21 4.5C20.1716 4.5 19.5 3.82843 19.5 3C19.5 2.17157 20.1716 1.5 21 1.5C21.8284 1.5 22.5 2.17157 22.5 3ZM16.5 4.5C17.3284 4.5 18 3.82843 18 3C18 2.17157 17.3284 1.5 16.5 1.5C15.6716 1.5 15 2.17157 15 3C15 3.82843 15.6716 4.5 16.5 4.5ZM0 10.5C0 8.84315 1.34315 7.5 3 7.5H21C22.6569 7.5 24 8.84315 24 10.5C24 12.1569 22.6569 13.5 21 13.5H3C1.34315 13.5 0 12.1569 0 10.5ZM22.5 10.5C22.5 11.3284 21.8284 12 21 12C20.1716 12 19.5 11.3284 19.5 10.5C19.5 9.67157 20.1716 9 21 9C21.8284 9 22.5 9.67157 22.5 10.5ZM16.5 12C17.3284 12 18 11.3284 18 10.5C18 9.67157 17.3284 9 16.5 9C15.6716 9 15 9.67157 15 10.5C15 11.3284 15.6716 12 16.5 12ZM3 15C1.34315 15 0 16.3431 0 18C0 19.6569 1.34315 21 3 21H21C22.6569 21 24 19.6569 24 18C24 16.3431 22.6569 15 21 15H3ZM21 19.5C21.8284 19.5 22.5 18.8284 22.5 18C22.5 17.1716 21.8284 16.5 21 16.5C20.1716 16.5 19.5 17.1716 19.5 18C19.5 18.8284 20.1716 19.5 21 19.5ZM18 18C18 18.8284 17.3284 19.5 16.5 19.5C15.6716 19.5 15 18.8284 15 18C15 17.1716 15.6716 16.5 16.5 16.5C17.3284 16.5 18 17.1716 18 18Z" fill="#0D1E2B"/>
</svg>

