<svg width="56" height="56" viewBox="0 0 56 56" fill="none" xmlns="http://www.w3.org/2000/svg">
<g clip-path="url(#clip0_926_54073)">
<path d="M35.9222 19.649L40.0946 15.4783L40.3727 13.7222C32.7694 6.8114 20.683 7.59501 13.8289 15.3572C11.925 17.5131 10.5126 20.2009 9.7594 22.9764L11.2538 22.766L19.5985 21.3905L20.2427 20.7319C23.9546 16.657 30.2308 16.1088 34.5167 19.5759L35.9222 19.649Z" fill="#EA4335"/>
<path d="M46.0384 22.8537C45.0794 19.3234 43.1104 16.1498 40.3728 13.7222L34.5168 19.5757C36.9895 21.5953 38.3982 24.6379 38.3378 27.8292V28.8682C41.2161 28.8682 43.5498 31.2007 43.5498 34.0778C43.5498 36.955 41.2161 39.229 38.3378 39.229H27.8995L26.8746 40.3412V46.5898L27.8995 47.5702H38.3378C45.8247 47.6285 51.9413 41.6676 51.9996 34.1838C52.0349 29.6477 49.7974 25.3951 46.0384 22.8537Z" fill="#4285F4"/>
<path d="M17.4757 47.5703H27.8994V39.2289H17.4757C16.733 39.2287 16.0137 39.0692 15.3384 38.7607L13.8596 39.2143L9.65787 43.385L9.29187 44.8045C11.6482 46.5829 14.5231 47.583 17.4757 47.5703Z" fill="#34A853"/>
<path d="M17.4757 20.5123C9.98862 20.5569 3.95562 26.6601 4.00025 34.1438C4.02518 38.3229 5.97781 42.2569 9.29187 44.8045L15.3384 38.7607C12.7151 37.576 11.5494 34.4901 12.7346 31.8681C13.9196 29.2461 17.0069 28.0809 19.6299 29.2654C20.7858 29.7874 21.7115 30.7129 22.2337 31.8681L28.2802 25.8244C25.7075 22.4626 21.71 20.4971 17.4757 20.5123Z" fill="#FBBC05"/>
</g>
<defs>
<clipPath id="clip0_926_54073">
<rect width="48" height="38.6087" fill="white" transform="translate(4 9)"/>
</clipPath>
</defs>
</svg>
