<svg width="56" height="56" viewBox="0 0 56 56" fill="none" xmlns="http://www.w3.org/2000/svg">
<path d="M27.8449 5.65921C27.4495 5.67972 27.0621 5.78068 26.7054 5.95615L11.156 13.6068C10.7536 13.8047 10.4 14.0927 10.1214 14.4493C9.8429 14.806 9.64663 15.2222 9.5472 15.6669L5.71106 32.8522C5.62247 33.2482 5.61256 33.6582 5.6819 34.0582C5.75124 34.4581 5.89843 34.8398 6.11476 35.1806C6.16721 35.2639 6.22362 35.3445 6.28379 35.4222L17.0465 49.202C17.325 49.5586 17.6787 49.8464 18.0812 50.0443C18.4836 50.2421 18.9246 50.3448 19.3712 50.3447L36.6309 50.3406C37.0774 50.3409 37.5182 50.2386 37.9206 50.0411C38.3231 49.8436 38.6768 49.5561 38.9556 49.1999L49.7143 35.4181C49.993 35.0614 50.1895 34.6451 50.289 34.2001C50.3885 33.7552 50.3885 33.2931 50.289 32.8481L46.4469 15.6628C46.3475 15.2181 46.1512 14.8019 45.8727 14.4452C45.5942 14.0886 45.2405 13.8006 44.8381 13.6027L29.2867 5.95615C28.838 5.73542 28.3423 5.63332 27.8449 5.65921V5.65921Z" fill="#326CE5"/>
<path d="M27.9991 11.5078C27.4851 11.5079 27.0683 11.9846 27.0684 12.5727C27.0684 12.5817 27.0702 12.5903 27.0703 12.5993C27.0696 12.6792 27.0658 12.7755 27.0684 12.845C27.0806 13.1842 27.1524 13.4438 27.1956 13.7563C27.2739 14.4252 27.3395 14.9796 27.299 15.4949C27.2597 15.6892 27.1207 15.867 26.9968 15.9905L26.9749 16.396C26.4164 16.4436 25.8541 16.5309 25.2925 16.6622C22.8759 17.2272 20.7952 18.509 19.2111 20.2397C19.1083 20.1675 18.9285 20.0347 18.875 19.994C18.7089 20.0171 18.5409 20.0699 18.3222 19.9387C17.9057 19.65 17.5263 19.2515 17.0673 18.7714C16.857 18.5418 16.7047 18.3231 16.4548 18.1018C16.3981 18.0515 16.3115 17.9835 16.248 17.9318C16.0526 17.7714 15.8222 17.6878 15.5997 17.6799C15.3136 17.6698 15.0382 17.785 14.8579 18.0178C14.5375 18.4317 14.6401 19.0642 15.0866 19.4308C15.0912 19.4345 15.096 19.4374 15.1005 19.4411C15.1619 19.4923 15.237 19.5579 15.2934 19.6008C15.5586 19.8024 15.8008 19.9056 16.065 20.0656C16.6217 20.4196 17.0831 20.7131 17.4492 21.067C17.5921 21.2239 17.6171 21.5004 17.6361 21.6199L17.9344 21.8943C16.3375 24.369 15.5985 27.4257 16.0352 30.5402L15.6454 30.657C15.5427 30.7936 15.3975 31.0085 15.2457 31.0727C14.7668 31.228 14.2279 31.285 13.5772 31.3553C13.2717 31.3814 13.0082 31.3658 12.6843 31.429C12.613 31.4429 12.5137 31.4695 12.4357 31.4884C12.433 31.489 12.4305 31.4898 12.4278 31.4904C12.4235 31.4914 12.4179 31.4936 12.4139 31.4945C11.8653 31.631 11.5129 32.1502 11.6263 32.6618C11.7398 33.1735 12.2756 33.4846 12.8275 33.3621C12.8315 33.3612 12.8373 33.361 12.8414 33.3601C12.8476 33.3586 12.8531 33.3555 12.8593 33.3539C12.9362 33.3366 13.0326 33.3172 13.0999 33.2986C13.4183 33.2109 13.6489 33.0819 13.9352 32.969C14.551 32.7415 15.061 32.5515 15.5579 32.4775C15.7655 32.4607 15.9841 32.6093 16.0929 32.672L16.4986 32.6003C17.4322 35.5808 19.3886 37.9899 21.866 39.5015L21.697 39.9192C21.7579 40.0815 21.8251 40.3009 21.7797 40.4611C21.5991 40.9435 21.2896 41.4527 20.9373 42.0203C20.7667 42.2826 20.5921 42.4861 20.4381 42.7862C20.4013 42.858 20.3544 42.9683 20.3188 43.0442C20.0796 43.5712 20.2551 44.1782 20.7146 44.406C21.1769 44.6352 21.7509 44.3935 21.9992 43.8654C21.9996 43.8646 22.0009 43.8641 22.0012 43.8633C22.0015 43.8628 22.001 43.8619 22.0012 43.8613C22.0366 43.7864 22.0867 43.688 22.1166 43.6176C22.2484 43.3065 22.2923 43.04 22.385 42.7391C22.6313 42.1021 22.7666 41.4338 23.1056 41.0173C23.1984 40.9033 23.3497 40.8595 23.5066 40.8162L23.7174 40.423C25.8772 41.2767 28.2947 41.5057 30.7096 40.9411C31.2605 40.8123 31.7924 40.6456 32.3065 40.4455C32.3658 40.5538 32.4759 40.7618 32.5054 40.8141C32.6648 40.8676 32.8389 40.8952 32.9807 41.1111C33.2343 41.5573 33.4077 42.0851 33.619 42.7227C33.7118 43.0236 33.7576 43.2902 33.8895 43.6012C33.9195 43.6721 33.9694 43.7719 34.0048 43.847C34.2527 44.3768 34.8284 44.6193 35.2915 44.3896C35.7509 44.1617 35.9266 43.5548 35.6872 43.0278C35.6517 42.9519 35.6028 42.8416 35.5659 42.7698C35.412 42.4697 35.2374 42.2682 35.0668 42.006C34.7144 41.4384 34.4222 40.9668 34.2415 40.4844C34.1659 40.2357 34.2542 40.0809 34.3131 39.9192C34.2778 39.8777 34.2024 39.6427 34.158 39.5322C36.7326 37.9668 38.6316 35.4679 39.5234 32.5819C39.6438 32.6014 39.8531 32.6395 39.9211 32.6536C40.0611 32.5585 40.1898 32.4345 40.4422 32.455C40.9391 32.529 41.4491 32.719 42.0649 32.9464C42.3512 33.0593 42.5817 33.1904 42.9001 33.2782C42.9674 33.2967 43.0638 33.314 43.1408 33.3314C43.147 33.333 43.1524 33.3361 43.1587 33.3376C43.1628 33.3385 43.1686 33.3387 43.1726 33.3396C43.7245 33.4619 44.2604 33.151 44.3738 32.6393C44.4871 32.1277 44.1348 31.6083 43.5862 31.472C43.5064 31.4533 43.3933 31.4216 43.3158 31.4065C42.9919 31.3433 42.7283 31.3589 42.4229 31.3327C41.7722 31.2625 41.2333 31.2054 40.7544 31.0501C40.5591 30.9721 40.4202 30.7329 40.3527 30.6344L39.9768 30.5218C40.1717 29.07 40.1191 27.5591 39.7819 26.0473C39.4416 24.5215 38.8401 23.1259 38.0378 21.8964C38.1343 21.8061 38.3163 21.6401 38.368 21.5913C38.3831 21.4193 38.3701 21.239 38.543 21.0486C38.909 20.6947 39.3705 20.4012 39.9271 20.0472C40.1913 19.8872 40.4355 19.784 40.7007 19.5824C40.7606 19.5368 40.8425 19.4646 40.9055 19.4124C41.3519 19.0457 41.4547 18.4132 41.1342 17.9994C40.8137 17.5856 40.1926 17.5467 39.7461 17.9134C39.6826 17.9652 39.5963 18.0328 39.5393 18.0834C39.2894 18.3047 39.1351 18.5234 38.9248 18.753C38.4658 19.2331 38.0864 19.6336 37.6699 19.9223C37.4895 20.0305 37.2251 19.9931 37.1052 19.9858L36.7512 20.2459C34.7327 18.0663 31.9844 16.6728 29.0252 16.4021C29.0169 16.2744 29.0061 16.0436 29.0033 15.9741C28.8822 15.8547 28.7358 15.7528 28.6991 15.4949C28.6586 14.9796 28.7262 14.4252 28.8045 13.7563C28.8477 13.4438 28.9195 13.1842 28.9317 12.845C28.9345 12.7679 28.9301 12.656 28.9298 12.5727C28.9297 11.9846 28.5131 11.5078 27.9991 11.5078H27.9991ZM26.8337 18.9414L26.5573 23.9688L26.5374 23.979C26.5188 24.4288 26.1594 24.7879 25.7181 24.7879C25.5373 24.7879 25.3704 24.7281 25.2348 24.6261L25.2269 24.6302L21.2237 21.708C22.454 20.4622 24.0277 19.5415 25.8413 19.1175C26.1726 19.04 26.5038 18.9826 26.8337 18.9414ZM29.1664 18.9414C31.2838 19.2096 33.2421 20.1969 34.7426 21.71L30.7653 24.6138L30.7514 24.6077C30.3983 24.8732 29.901 24.8073 29.6258 24.4521C29.5131 24.3065 29.4539 24.1354 29.4468 23.9626L29.4428 23.9606L29.1664 18.9414ZM19.7719 23.5858L23.4271 26.9525L23.4231 26.9729C23.753 27.2683 23.8017 27.7808 23.5265 28.1361C23.4138 28.2816 23.2629 28.3793 23.101 28.4248L23.097 28.4412L18.4117 29.8337C18.1732 27.5883 18.6871 25.4056 19.7719 23.5858ZM36.2003 23.5879C36.7434 24.4943 37.1547 25.5068 37.3995 26.6043C37.6414 27.6887 37.7021 28.7712 37.6023 29.8174L32.8932 28.4207L32.8892 28.4003C32.4675 28.2816 32.2083 27.8399 32.3065 27.3968C32.3467 27.2153 32.4403 27.0618 32.567 26.9484L32.565 26.9381L36.2003 23.5879H36.2003ZM27.2493 27.2125H28.7468L29.6775 28.4105L29.3434 29.9054L27.9991 30.5709L26.6507 29.9034L26.3166 28.4085L27.2493 27.2125ZM32.05 31.3123C32.1136 31.3089 32.177 31.3149 32.2389 31.3266L32.2469 31.3164L37.0932 32.1601C36.384 34.212 35.0268 35.9897 33.2133 37.1793L31.3321 32.5L31.338 32.4918C31.1652 32.0783 31.3382 31.5934 31.7358 31.3962C31.8376 31.3457 31.9439 31.3178 32.05 31.3123H32.05ZM23.9104 31.3327C24.2802 31.3381 24.6119 31.6024 24.6979 31.9901C24.7381 32.1716 24.7185 32.3514 24.6521 32.5102L24.666 32.5287L22.8047 37.1608C21.0643 36.0109 19.6782 34.289 18.9367 32.1764L23.7413 31.3368L23.7493 31.3471C23.803 31.3369 23.8575 31.332 23.9104 31.3327V31.3327ZM27.9692 33.3621C28.0981 33.3573 28.2288 33.3845 28.353 33.4461C28.5159 33.5269 28.6417 33.654 28.7209 33.8065H28.7388L31.1073 38.2134C30.8 38.3195 30.4839 38.4102 30.1607 38.4858C28.3493 38.9093 26.5437 38.781 24.9087 38.2073L27.2712 33.8086H27.2752C27.4169 33.5357 27.6858 33.3729 27.9692 33.3621Z" fill="white" stroke="white" stroke-width="0.25"/>
</svg>
