<svg width="52" height="41" viewBox="0 0 52 41" fill="none" xmlns="http://www.w3.org/2000/svg">
<path fill-rule="evenodd" clip-rule="evenodd" d="M5.26148 8.56098C6.98004 8.45864 8.46774 9.789 8.57034 11.5031C8.67294 13.2172 7.33914 14.7011 5.62058 14.8034C3.90203 14.9058 2.41433 13.5754 2.31173 11.8613C2.20913 10.1472 3.51728 8.66331 5.26148 8.56098ZM41.1715 5.87468C42.7875 5.77234 44.1469 7.00037 44.2495 8.61214C44.3521 10.2239 43.1209 11.5799 41.505 11.6822C41.0433 11.7078 40.5816 11.631 40.1712 11.4519L40.1455 11.4775C38.5552 11.8613 37.324 12.7567 36.3493 14.0871C36.375 14.2662 36.4006 14.4197 36.4263 14.5987C36.5545 16.6454 34.9642 18.3851 32.9122 18.5131C30.8602 18.641 29.116 17.0548 28.9878 15.0081C28.8595 12.9614 30.4498 11.2217 32.5018 11.0938C33.2713 11.0426 34.0152 11.2473 34.6308 11.6054C36.1698 11.1194 37.4266 10.2495 38.4526 8.9959V8.94473C38.35 7.33295 39.5556 5.97701 41.1715 5.87468ZM23.4987 6.82128C21.8827 6.92361 20.6772 8.27955 20.7541 9.89133C20.8567 11.5031 22.2162 12.7055 23.8321 12.6288C25.4481 12.5265 26.6536 11.1705 26.5767 9.55874V9.53316C27.5001 8.10047 28.68 7.33295 30.0651 7.07712C30.7063 7.46087 31.4502 7.66554 32.2453 7.61438C34.323 7.48646 35.9133 5.72118 35.785 3.64889C35.6824 1.60219 33.8869 0.0159955 31.8093 0.143914C29.7316 0.271833 28.1413 2.03711 28.2696 4.1094C28.2696 4.28849 28.2952 4.46757 28.3465 4.62107C27.4744 5.87468 26.2689 6.64219 24.8581 7.05153H24.8325C24.4221 6.89803 23.986 6.7957 23.4987 6.82128ZM41.8641 25.3183C42.2488 25.2928 42.6079 25.3439 42.9414 25.4718L42.967 25.4463C45.0703 24.6788 46.5324 23.5019 47.3019 21.8645L47.3275 21.839C47.3532 20.6365 48.3022 19.6132 49.5334 19.562C50.8159 19.4852 51.9189 20.483 51.9958 21.7622C52.0728 23.0414 51.0724 24.1415 49.7899 24.2182C49.6104 24.2182 49.4308 24.2182 49.2513 24.1927C47.4301 24.9602 45.9424 26.137 44.8651 27.8C44.8651 27.8767 44.8908 27.9535 44.8908 28.0302C44.9934 29.6164 43.7622 30.9724 42.1719 31.0747C40.5816 31.177 39.2221 29.949 39.1195 28.3628C39.0682 26.7766 40.2738 25.4207 41.8641 25.3183ZM19.6768 24.1415C21.5493 24.0392 23.1396 25.4718 23.2422 27.3139C23.3448 29.1815 21.9084 30.7677 20.0616 30.87C18.1891 30.9724 16.5988 29.5397 16.4962 27.6976C16.4705 27.2371 16.5475 26.8022 16.6757 26.3929C16.0858 24.8323 14.8802 23.7577 13.3412 22.9391C13.0078 23.067 12.623 23.1437 12.2383 23.1693C10.1606 23.2972 8.39079 21.711 8.26254 19.6387C8.13429 17.5665 9.72459 15.8012 11.8022 15.6733C13.8799 15.5453 15.6497 17.1315 15.778 19.2038C15.8036 19.7923 15.701 20.3295 15.4958 20.8412C16.1884 22.325 17.2913 23.4763 18.8303 24.2438L18.8816 24.2694C19.1125 24.2182 19.3947 24.1671 19.6768 24.1415ZM37.1188 33.6587C36.0672 32.4306 35.2977 31.1514 34.8873 29.7443C35.6568 28.9768 36.1185 27.8767 36.0672 26.6743C36.0415 26.2649 35.9646 25.8812 35.8363 25.523C37.324 23.8857 39.0169 22.4785 41.0176 21.5064L41.0433 21.4808C41.428 21.6343 41.8384 21.6855 42.2745 21.6599C43.9417 21.5575 45.2242 20.1248 45.1473 18.4619C45.0447 16.799 43.6083 15.5198 41.941 15.5965C40.2738 15.6988 38.9913 17.1315 39.0682 18.7945C39.0682 18.8968 39.0939 19.0247 39.0939 19.1271C37.7344 21.0714 36.0672 22.453 34.1691 23.5019C33.5022 23.0926 32.6814 22.8623 31.8349 22.9135C31.245 22.9391 30.7063 23.0926 30.219 23.3484C28.6287 22.2739 27.2949 20.9691 26.3715 19.3573H26.3458C26.551 18.8201 26.6536 18.2316 26.628 17.6432C26.4997 15.4174 24.576 13.7033 22.3444 13.8312C20.1129 13.9592 18.3943 15.8779 18.5226 18.1037C18.6508 20.3295 20.5746 22.0436 22.8061 21.9157C23.3191 21.8901 23.8065 21.7622 24.2425 21.5575L24.2682 21.5831C25.9611 22.5297 27.2949 23.7833 28.4235 25.216C28.1413 25.8044 28.0131 26.444 28.0644 27.1348C28.1926 29.335 30.0907 31.0235 32.2966 30.8956C32.4249 30.8956 32.5531 30.87 32.6814 30.8444C33.6048 32.0725 34.2717 33.4028 34.6564 34.9123C34.1947 35.5007 33.9382 36.2682 33.9895 37.0613C34.0921 38.8522 35.6311 40.2337 37.4266 40.1314C39.2221 40.029 40.6072 38.494 40.5046 36.7031C40.402 34.9634 38.8887 33.5819 37.1188 33.6587ZM10.8019 25.1904C9.64764 25.2672 8.77554 26.2394 8.85249 27.365C8.92944 28.5163 9.90414 29.3862 11.0327 29.3094C12.187 29.2327 13.0591 28.2605 12.9821 27.1348C12.9308 25.9835 11.9561 25.1137 10.8019 25.1904ZM2.95298 18.0781C4.67153 17.9758 6.15924 19.3062 6.26184 21.0203C6.36444 22.7344 5.03063 24.2182 3.31208 24.3206C1.59353 24.4229 0.105828 23.0926 0.00322746 21.3784C-0.0737226 19.6388 1.23443 18.1805 2.95298 18.0781ZM47.7892 11.7334C48.9435 11.6566 49.9182 12.552 49.9695 13.6777C50.0464 14.829 49.1487 15.8012 48.0201 15.8524C46.8658 15.9291 45.8911 15.0337 45.8398 13.908C45.7629 12.7823 46.635 11.8101 47.7892 11.7334ZM21.0619 0.578838C22.2162 0.502087 23.1909 1.39752 23.2422 2.52321C23.3191 3.67448 22.4214 4.64666 21.2927 4.69783C20.1385 4.77458 19.1638 3.87915 19.1125 2.75346C19.0612 1.62777 19.9333 0.65559 21.0619 0.578838ZM13.8799 3.62331C15.9832 3.49539 17.753 5.10717 17.8813 7.17945C18.0096 9.27732 16.3936 11.0426 14.3159 11.1705C12.2126 11.2984 10.4428 9.68666 10.3145 7.61438C10.1863 5.54209 11.8022 3.75123 13.8799 3.62331Z" fill="#F37721"/>
</svg>
