<svg xmlns="http://www.w3.org/2000/svg" viewBox="0 0 1024 1024"><path d="M107 107q-27 0-45.5 18.5T43 171v128q0 26 18.5 45t45.5 19h810q27 0 45.5-19t18.5-45V171q0-27-18.5-45.5T917 107H107zm0 42h810q9 0 15.5 6.5T939 171v128q0 9-6.5 15t-15.5 6H107q-9 0-15.5-6T85 299V171q0-9 6.5-15.5T107 149zm64 171q-18 0-30.5 12.5T128 363v537q0 27 19 45.5t45 18.5h640q26 0 45-18.5t19-45.5V363q0-18-12.5-30.5T853 320H171zm0 43h682v537q0 9-6 15.5t-15 6.5H192q-9 0-15-6.5t-6-15.5V363zm222 85q-21 0-36.5 15T341 499v68q0 21 15.5 36.5T393 619h238q21 0 36.5-15.5T683 567v-68q0-21-15.5-36T631 448H393zm0 43h238q4 0 6.5 2t2.5 6v68q0 4-2.5 6.5T631 576H393q-4 0-6.5-2.5T384 567v-68q0-4 2.5-6t6.5-2z"/></svg>