<svg xmlns="http://www.w3.org/2000/svg" viewBox="0 0 1024 1024"><path d="M438 107h-75q-21 0-37.5 12T302 149h-67q-27 0-45.5 19T171 213v683q0 27 18.5 45.5T235 960h554q27 0 45.5-18.5T853 896V576h107q9 0 15-6t6-15-6-15.5-15-6.5H853V213q0-26-18.5-45T789 149h-67q-7-18-23.5-30T661 107h-75q-11-19-30.5-31T512 64t-43.5 12-30.5 31zm373 426H542l134-134q7-6 7-15t-7-15q-6-6-15-6t-15 6L460 555l186 185q6 7 15 7t15-7q7-6 7-15t-7-15L542 576h269v320q0 9-6.5 15t-15.5 6H235q-9 0-15.5-6t-6.5-15V213q0-9 6.5-15t15.5-6h64v21q0 27 18.5 45.5T363 277h298q27 0 45.5-18.5T725 213v-21h64q9 0 15.5 6t6.5 15v320zM683 171v42q0 9-6.5 15.5T661 235H363q-9 0-15.5-6.5T341 213v-42q0-9 6.5-15.5T363 149h106q0-17 12.5-29.5T512 107t30.5 12.5T555 149h106q9 0 15.5 6.5T683 171z"/></svg>