<svg xmlns="http://www.w3.org/2000/svg" viewBox="0 0 1024 1024"><path d="M387 376l-34-9q-8-2-16-3t-17-1q-53 0-90.5 37.5T192 491q0 10 1.5 20t4.5 19l13 39-40 14q-37 13-61.5 46T85 704q0 51 34.5 87.5T204 832h551l9-1q74-6 124.5-61T939 640q0-66-40-117t-100-68l-30-8-1-31q-4-76-59.5-128.5T576 235q-57 0-103.5 30.5T403 344l-16 32zm381 498v1l-567-1q-67-5-112.5-54T43 704q0-56 32-100t82-61q-4-13-6-26t-2-26q0-71 50-121t121-50q11 0 22.5 1.5T364 326q28-60 85-97t127-37q47 0 89 17 41 18 72.5 48t51.5 70q19 41 21 87 74 21 122.5 83T981 640q0 46-16 87-17 40-45.5 71.5T852 850t-84 24z"/></svg>