<svg xmlns="http://www.w3.org/2000/svg" viewBox="0 0 1024 1024"><path d="M320 21q9 0 15 6.5t6 15.5v64h86V43q0-9 6-15.5t15-6.5 15 6.5 6 15.5v64h86V43q0-9 6-15.5t15-6.5 15 6.5 6 15.5v64h86V43q0-9 6-15.5t15-6.5 15 6.5 6 15.5v64h162q22 0 37 15t15 36v162h64q8 0 14.5 6t6.5 15-6.5 15.5-14.5 6.5h-64v85h64q8 0 14.5 6t6.5 15-6.5 15.5-14.5 6.5h-64v85h64q8 0 14.5 6t6.5 15-6.5 15.5-14.5 6.5h-64v85h64q8 0 14.5 6t6.5 15-6.5 15.5-14.5 6.5h-64v162q0 21-15 36t-37 15H725v64q0 9-6 15t-15 6-15-6-6-15v-64h-86v64q0 9-6 15t-15 6-15-6-6-15v-64h-86v64q0 9-6 15t-15 6-15-6-6-15v-64h-86v64q0 9-6 15t-15 6-15-6-6-15v-64H137q-22 0-37-15t-15-36V747H21q-9 0-15-6.5T0 725t6-15 15-6h64v-85H21q-9 0-15-6.5T0 597t6-15 15-6h64v-85H21q-9 0-15-6.5T0 469t6-15 15-6h64v-85H21q-9 0-15-6.5T0 341t6-15 15-6h64V158q0-21 15-36t37-15h162V43q0-9 6-15.5t15-6.5zm0 128H137q-4 0-6.5 2.5T128 158v751q0 3 2.5 5.5t6.5 2.5h750q4 0 6.5-2.5t2.5-5.5V158q0-4-2.5-6.5T887 149H320zm439 128q4 0 6.5 2.5t2.5 6.5v495q0 3-2.5 5.5T759 789H265q-4 0-6.5-2.5T256 781V286q0-4 2.5-6.5t6.5-2.5h494zm-494-42q-22 0-37 15t-15 36v495q0 21 15 36t37 15h494q22 0 37-15t15-36V286q0-21-15-36t-37-15H265zm119 128q0 17-12.5 29.5T341 405h-42v-85h42q18 0 30.5 12.5T384 363zm128 42l-43-85-42 85h85zm85-85h-42v85h42v-85z"/></svg>