<svg xmlns="http://www.w3.org/2000/svg" viewBox="0 0 1331 1024"><path d="M146 241q32-1 56.5 20.5T228 315q2 32-19.5 56.5T155 398t-56.5-20T72 324q-1-33 20.5-57t53.5-26zm897-67q30-2 52 18t24 50-18 52.5-50 24.5q-9 0-17.5-1t-15.5-5l-1 1q-30 7-53.5 23.5T922 379q1 3 1.5 6.5t.5 6.5q3 38-23 66.5T836 490q-38 2-66.5-23.5T739 402q-3-38 23-66.5t64-31.5q15-1 28.5 2.5T879 317q29-9 53-25.5t43-39.5v-2q-3-30 17-52t51-24zm-441 24q-31 2-50.5 24.5T533 275q2 30 24.5 50t52.5 18 50-24 18-53q18-27 40-42t47-20q12 8 26 11.5t29 2.5q39-3 65-32t23-67q-2-39-31-65t-68-24q-39 3-65 32t-23 67q0 4 .5 7t1.5 6q-17 24-39 38.5T636 203h-1q-8-3-16.5-4.5T602 198zm458 462q7 0 13.5.5t13.5 3.5v-1q40-14 67-36.5t42-52.5v-1q1-23 16.5-39.5T1251 516q24-1 42 15t20 40q1 24-15 42t-40 20q-4 0-7-.5t-7-.5q-34 14-61.5 36.5T1135 722v6q2 30-18 52t-49 24q-30 2-52.5-18T991 736q-1-30 19-52t50-24zm-554-29q35-2 61 21t28 58q1 35-22 61t-58 28-61-21.5-28-57.5q0-9 1-17t4-16q-11-29-33-50t-50-36q-7 2-14 3.5t-14 1.5q-39 3-68-23t-31-65q-3-39 23-68t65-31q39-3 68 23t31 65q1 11-1 21t-6 20q13 28 34 49.5t49 35.5l2 1q5-1 9.5-2t10.5-1zm435 238q-19-23-33.5-47.5T886 771q14-15 22-34.5t7-42.5q0-8-1.5-15t-4.5-14q28-31 60-56.5t70-43.5v-1q8 3 15.5 4t15.5 1q31-2 52-25.5t20-54.5q-2-32-25.5-53t-54.5-19-52 25.5-20 54.5q0 2 .5 4t.5 4q-26 37-57 63.5T868 615q-13-8-28-12t-30-3q-11 0-21.5 3t-19.5 8q-29-20-53.5-45T673 511q3-10 5-21t2-22q-3-42-34-70t-73-25q-42 2-70 33.5T477 480q3 41 34.5 69t72.5 26q10-1 19-3t17-6l1 1q31 17 56.5 40.5T724 657q-5 12-7 24t-1 24q2 42 33 69.5t72 25.5q3 0 5-.5t5-1.5q17 23 29.5 48.5T880 900q-9 11-13.5 25t-3.5 29q2 33 27.5 56t58.5 21q34-2 56.5-27.5T1026 945t-26.5-55-58.5-21zM285 657q-22 1-36 17t-13 37q2 22 17.5 36t37.5 13q21-2 35.5-17.5T339 705q-1-21-17-35.5T285 657zM89 479q32-2 56.5 19.5T172 553q1 32-20.5 56T98 635t-56.5-19.5T15 561q-2-32 20-56t54-26zm1119-158q21-2 37 12.5t17 35.5q2 22-12.5 38t-36.5 17q-21 1-37-13.5t-17-35.5 13-37 36-17zM541 42q21-2 37 12.5T595 90q2 22-12.5 38T547 145q-22 1-38-13.5T492 96t13-37 36-17zm-179 76q39-2 68 24t31 65q3 39-23.5 68T372 307q-39 2-68-24t-31-65q-3-40 23-69t66-31z"/></svg>