<svg xmlns="http://www.w3.org/2000/svg" viewBox="0 0 1138 1024"><path d="M931 952q35-34 62-76 28-41 47.5-86.5T1070 693q11-50 11-103 0-106-40-199-41-93-110.5-162.5T768 118q-93-40-199-40t-199 40q-94 41-163.5 110.5T97 391 57 590q0 53 10 103 11 51 30.5 96.5T144 876q28 42 63 76l-40 40q-39-38-70-84-31-45-52.5-96T12 705Q0 649 0 590q0-118 45-221 44-104 121.5-181T347 66q104-45 222-45t221 45q104 45 181 122t122 181q45 103 45 221 0 59-12 115-11 56-33 107t-52 96q-31 46-70 84l-40-40zM789 331l-20 88q-8 34-20 84t-26 100q-7 25-14 48.5T695 696q-7 20-13.5 37T668 761q-12 21-29 36.5T600 819t-44 1-43-17q-22-13-37-29.5T455 735t-1-44 17-44q7-11 18.5-25.5T515 592q14-16 31-33.5t36-35.5q36-36 74-71t66-61l67-60zM557 630q-14 16-23.5 27.5T520 676q-9 15-10.5 26t.5 18 9 15.5 22 17.5q16 9 26.5 11t18.5 0q7-2 15.5-9t17.5-22q4-8 9.5-21.5T641 678q6-20 13-43t14-47l12-46 12-45q-18 16-35.5 33T621 564l-34.5 34.5L557 630z"/></svg>