<svg xmlns="http://www.w3.org/2000/svg" viewBox="0 0 1024 1024"><path d="M427 218q0-43-22-66.5T363 128q-9 0-15.5-6t-6.5-15 6.5-15.5T363 85q40 0 69.5 33t35.5 81q11-4 22-5.5t22-1.5 22 1.5 22 5.5q6-48 35.5-81T661 85q9 0 15.5 6.5T683 107t-6.5 15-15.5 6q-20 0-42 23.5T597 218v1q29 20 46.5 52t17.5 70v11l-1 11h-43q1-6 1.5-11t.5-11q0-44-31.5-75T512 235t-75.5 31-31.5 75q0 6 .5 11t1.5 11h-43q-1-6-1-11v-11q0-38 17.5-70t46.5-52v-1zm489 428q-14-14-46-13t-62 31q-7 6-15.5 6t-15.5-6q-6-6-6-15t6-15q38-38 88-43.5t81 25.5q7 6 7 15t-7 15q-6 6-15 6t-15-6zm-700 18q-30-30-62-31t-46 13q-6 6-15 6t-15-6q-7-6-7-15t7-15q31-31 81-25.5t88 43.5q6 6 6 15t-6 15q-7 6-15.5 6t-15.5-6zm650 175q-7-19-36.5-31.5T760 810q-9 3-17-1t-11-12 1-16 12-12q50-18 98-2t63 57q3 9-.5 17T893 852q-8 3-16-1t-11-12zm-602-29q-40-15-69.5-2.5T158 839q-3 8-11 12t-16 1q-9-3-12.5-11t-.5-17q15-41 63-57t98 2q8 4 12 12t1 16-11 12-17 1zm618-349q-18-10-48.5-.5T782 507q-5 7-13.5 9.5T752 515q-7-5-9.5-13.5T745 485q26-46 73-64.5t85 3.5q8 5 10 13.5t-2 15.5q-5 8-13.5 10.5T882 461zm-640 46q-21-37-51.5-46.5t-48.5.5q-7 5-15.5 2.5T113 453q-4-7-2-15.5t10-13.5q38-22 85-3.5t73 64.5q5 8 2.5 16.5T272 515q-8 4-16.5 1.5T242 507zm249 432V341h42v598h-42zm21-22q-52 0-98-21-47-21-82-58.5T277 749q-21-51-21-109t21-109q20-51 55-88.5t82-58.5q46-21 98-21t98 21q47 21 82 58.5t55 88.5q21 51 21 109t-21 109q-20 51-55 88.5T610 896q-46 21-98 21zm0 43q62 0 116-25 55-25 95.5-68.5T787 765q24-59 24-125t-24-125q-23-58-63.5-101.5T628 345q-54-25-116-25t-116 25q-55 25-95.5 68.5T237 515q-24 59-24 125t24 125q23 58 63.5 101.5T396 935q54 25 116 25z"/></svg>