<svg xmlns="http://www.w3.org/2000/svg" viewBox="0 0 1024 1024"><path d="M887 235q4 0 6.5 2.5t2.5 5.5v324q0 4-2.5 6.5T887 576H137q-4 0-6.5-2.5T128 567V243q0-3 2.5-5.5t6.5-2.5h750zm-750-43q-22 0-37 15t-15 36v324q0 22 15 37t37 15h750q22 0 37-15t15-37V243q0-21-15-36t-37-15H137zm38 95h83q28 0 49.5 7.5T345 318q16 15 23.5 37t7.5 50-8 50-24 38q-16 15-38.5 23t-50.5 8h-80V287zm43 199h36q39 0 58-20.5t19-60.5-19-60-58-20h-36v161zm303 1q10 0 19-2.5t16-7.5q8-5 14.5-12.5T581 448q5-10 7.5-20.5T591 405q0-11-2-21t-7-20q-4-9-10-16.5T558 335t-17-8-20-3q-9 0-18 2.5t-17 7.5q-7 5-13.5 12T461 363q-4 9-6.5 19.5T452 405t2.5 22 6.5 19 10 16.5 14 13.5q8 5 17 8t19 3zm0 42q-15 0-29.5-4T464 514q-13-8-23-19t-18-25-12-30.5-4-34.5q0-16 3.5-31.5T422 344q7-14 17-25.5t23-19.5q13-9 28-13t31-4 30.5 3.5T579 297t23 19 18 25 12 30 4 34q0 17-3.5 32.5T621 467q-7 14-17 25.5T581 512q-14 9-28.5 13t-31.5 4zm261-1q-17 0-32-4t-27-11q-13-7-23.5-17.5T682 471q-8-14-11.5-30t-3.5-34 3.5-33.5T681 344q8-14 18-25t24-20q13-8 28.5-12t32.5-4q9 0 18 1.5t18 3.5q9 3 17 6.5t15 7.5l-7 41q-16-9-31-13t-29-4q-11 0-20 2.5t-18 6.5q-8 5-14.5 12T721 363q-4 9-6.5 19.5T712 406q0 18 5 32.5t15 25.5q10 10 23.5 15.5T786 485q7 0 15-1t16-4q9-2 16.5-5.5T849 467l4 41q-7 5-15.5 8.5T820 523q-9 2-18.5 3.5T782 528zM299 683q0-9 6-15.5t15-6.5h171q9 0 15 6.5t6 15.5-6 15-15 6H320q-9 0-15-6t-6-15zm0 128q0-9 6-15.5t15-6.5h171q9 0 15 6.5t6 15.5-6 15-15 6H320q-9 0-15-6t-6-15zm503-662H222q-4 0-6.5 2.5T213 158v34h-42v-34q0-21 15-36t36-15h580q21 0 36 15t15 36v34h-42v-34q0-4-2.5-6.5T802 149zM171 619h42v290q0 3 2.5 5.5t6.5 2.5h397v43H222q-21 0-36-15t-15-36V619zm682 106V619h-42v106h42zm-234-21h213q6 0 11.5 3.5t8.5 9.5q2 6 1 12.5t-6 10.5L634 954q-5 4-11.5 5.5T611 958q-6-2-10-7.5t-4-11.5V725q0-9 6.5-15t15.5-6zm21 43v140l140-140H640z"/></svg>