<svg xmlns="http://www.w3.org/2000/svg" viewBox="0 0 1024 1024"><path d="M222 149h580q4 0 6.5 2.5t2.5 6.5v567h42V158q0-21-15-36t-36-15H222q-21 0-36 15t-15 36v751q0 21 15 36t36 15h397v-43H222q-4 0-6.5-2.5T213 909V158q0-4 2.5-6.5t6.5-2.5zm397 555h213q6 0 11.5 3.5t8.5 9.5q2 6 1 12.5t-6 10.5L634 954q-5 4-11.5 5.5T611 958q-6-2-10-7.5t-4-11.5V725q0-9 6.5-15t15.5-6zm21 43v140l140-140H640zM299 256q0-9 6-15t15-6h384q9 0 15 6t6 15-6 15-15 6H320q-9 0-15-6t-6-15zm0 128q0-9 6-15t15-6h384q9 0 15 6t6 15-6 15-15 6H320q-9 0-15-6t-6-15zm0 128q0-9 6-15t15-6h384q9 0 15 6t6 15-6 15-15 6H320q-9 0-15-6t-6-15zm0 128q0-9 6-15t15-6h384q9 0 15 6t6 15-6 15-15 6H320q-9 0-15-6t-6-15zm0 128q0-9 6-15t15-6h213q9 0 15.5 6t6.5 15-6.5 15-15.5 6H320q-9 0-15-6t-6-15z"/></svg>