<svg xmlns="http://www.w3.org/2000/svg" viewBox="0 0 1024 1024"><path d="M939 917q0-8-3-15.5t-9-12.5L760 686q-6 8-15 13t-20 5H299q-11 0-20-5t-15-13L97 888q-6 6-9 13.5T85 917q0 18 12.5 30.5T128 960h768q18 0 30.5-12.5T939 917zM384 107v365L63 862l-5 7q-7 10-11 22.5T43 917q0 36 25 61t60 25h768q35 0 60-25t25-61q0-13-4-25.5T966 869l-5-7-321-390V107h43q9 0 15-6.5t6-15.5-6-15-15-6H341q-9 0-15 6t-6 15 6 15.5 15 6.5h43zm619 738h-2 1v1l1 1q6 9 10.5 19t6.5 21q2 8 3 15.5t1 14.5q0 53-37.5 90.5T896 1045H128q-53 0-90.5-37.5T0 917q0-7 1-14.5T4 887q2-11 6.5-21T21 847l1-1v-1h1-2l320-388V149q-26 0-45-18.5T277 85q0-26 19-45t45-19h342q26 0 45 19t19 45q0 27-19 45.5T683 149v308zM341 341q0-9 6.5-15t15.5-6h85q9 0 15 6t6 15-6 15.5-15 6.5h-85q-9 0-15.5-6.5T341 341zm0-128q0-9 6.5-15t15.5-6h85q9 0 15 6t6 15-6 15.5-15 6.5h-85q-9 0-15.5-6.5T341 213z"/></svg>