<svg xmlns="http://www.w3.org/2000/svg" viewBox="0 0 1024 1024"><path d="M512 747q-73 0-128-22-56-22-97.5-54T218 602q-28-37-45-69 17-31 45-68 27-37 68.5-69.5T384 342q55-22 128-22t128 22q56 21 97.5 53.5T806 465q28 37 45 68-17 32-45 69-27 37-68.5 69T640 725q-55 22-128 22zm0-470q-85 0-149 26-64 27-110 64.5T177 448t-47 76l-5 9 5 10q17 33 47 76 30 42 76 80t110 64 149 26 149-26 110-64 76-80q30-43 47-76l5-10-5-9q-17-33-47-76t-76-80.5T661 303q-64-26-149-26zm0 427q71 0 121-50t50-121q0-70-50-120t-121-50-121 50-50 120q0 71 50 121t121 50z"/></svg>