  <svg fill="none" viewBox="0 0 24 24" xmlns="http://www.w3.org/2000/svg">
    <path
      clip-rule="evenodd"
      d="M5 7.5C4.72386 7.5 4.5 7.72386 4.5 8C4.5 8.27614 4.72386 8.5 5 8.5H19C19.2761 8.5 19.5 8.27614 19.5 8C19.5 7.72386 19.2761 7.5 19 7.5H5ZM7.5 12C7.5 11.7239 7.72386 11.5 8 11.5H16C16.2761 11.5 16.5 11.7239 16.5 12C16.5 12.2761 16.2761 12.5 16 12.5H8C7.72386 12.5 7.5 12.2761 7.5 12ZM10.5 16C10.5 15.7239 10.7239 15.5 11 15.5H13C13.2761 15.5 13.5 15.7239 13.5 16C13.5 16.2761 13.2761 16.5 13 16.5H11C10.7239 16.5 10.5 16.2761 10.5 16Z"
      fill="currentcolor"
      fill-rule="evenodd"
    />
  </svg>
