<svg xmlns="http://www.w3.org/2000/svg" viewBox="0 0 1024 1024"><path d="M213 277q-35 0-60-25t-25-60 25-60 60-25q36 0 61 25t25 60-25 60-61 25zm0 43q53 0 90.5-37.5T341 192t-37.5-90.5T213 64t-90.5 37.5T85 192t37.5 90.5T213 320zm598-43q-36 0-61-25t-25-60 25-60 61-25q35 0 60 25t25 60-25 60-60 25zm0 43q53 0 90.5-37.5T939 192t-37.5-90.5T811 64t-90.5 37.5T683 192t37.5 90.5T811 320zM512 960q-35 0-60-25t-25-60q0-36 25-61t60-25 60 25 25 61q0 35-25 60t-60 25zm0 43q53 0 90.5-37.5T640 875t-37.5-90.5T512 747t-90.5 37.5T384 875t37.5 90.5T512 1003zM192 277h43v172q0 11 5 22t15 21q10 9 21.5 14.5T298 512q24-1 72.5-.5t89.5.5h265q11 0 22.5-5.5T769 492q10-10 15-21t5-22V277h43v172q0 21-9.5 40T799 522t-33.5 23.5T725 555H533v234h-42V555h-15l-17-1h-89.5l-70.5 1q-21 0-40.5-9.5T225 522t-23.5-33-9.5-40V277z"/></svg>