<svg xmlns="http://www.w3.org/2000/svg" viewBox="0 0 1024 1024"><path d="M149 149q-9 0-15 6.5t-6 15.5v256q0 9 6 15t15 6 15.5-6 6.5-15V192h234q9 0 15.5-6t6.5-15-6.5-15.5T405 149H149zm470 0q-9 0-15.5 6.5T597 171t6.5 15 15.5 6h234v235q0 9 6.5 15t15.5 6 15-6 6-15V171q0-9-6-15.5t-15-6.5H619zM149 619q9 0 15.5 6t6.5 15v235h234q9 0 15.5 6t6.5 15-6.5 15-15.5 6H149q-9 0-15-6t-6-15V640q0-9 6-15t15-6zm747 21q0-9-6-15t-15-6-15.5 6-6.5 15v235H619q-9 0-15.5 6t-6.5 15 6.5 15 15.5 6h256q9 0 15-6t6-15V640z"/></svg>