<svg xmlns="http://www.w3.org/2000/svg" viewBox="0 0 1024 1024"><path d="M299 235v85h-86v-85h86zm-128-43v171h170V192H171zm384 43v85h-86v-85h86zm-128-43v171h170V192H427zm384 43v85h-86v-85h86zm-128-43v171h170V192H683zM299 491v85h-86v-85h86zm-128-43v171h170V448H171zm384 43v85h-86v-85h86zm-128-43v171h170V448H427zm384 43v85h-86v-85h86zm-128-43v171h170V448H683zM299 747v85h-86v-85h86zm-128-43v171h170V704H171zm384 43v85h-86v-85h86zm-128-43v171h170V704H427zm384 43v85h-86v-85h86zm-128-43v171h170V704H683z"/></svg>