<svg xmlns="http://www.w3.org/2000/svg" viewBox="0 0 1293 1024"><path d="M394 21q81 0 145.5 41T632 166h29q29-63 93-104t145-41q52 0 98 19t80 51.5 54 76.5q21 44 21 94-1 55-25 102.5t-64 80.5q42 21 77 52t60 69.5 39 83.5q14 44 14 93v96h-101v-96q0-50-20-93-20-44-54.5-77T997 521q-46-18-98-18h-21q-11 25-28 46.5T811 589q42 21 77 52t60 69.5 39 83.5q13 45 13 93v145H899V887q0-49-19-93-20-44-54.5-76.5T745 666t-98-19q-53 0-99 19t-80 51.5-54 76.5-20 93v145H293V887q0-48 14-93t38.5-83.5T405 641t77-52q-21-18-38-39.5T415 503h-21q-52 0-98 18-46 19-80 52t-55 77q-20 43-20 93v96H40v-96q0-49 14-93 14-45 39-83.5t60-69.5 78-52q-41-33-65-80.5T141 262q1-50 21-94t54.5-76.5T297 40q45-19 97-19zm139 170q-19-31-55.5-52T394 118q-61 0-106 42t-45 102 45 102 106 42q0-70 38.5-127.5T533 191zm366 215q62 0 106.5-42t45.5-102q-1-60-45.5-102T899 118q-46 0-82.5 21T761 191q61 30 99.5 87.5T899 406zM647 551q63 0 107-42.5T798 406t-44-102-107-42-107.5 42T495 406t44.5 102.5T647 551z"/></svg>