<svg xmlns="http://www.w3.org/2000/svg" viewBox="0 0 1024 1024"><path d="M574 63l1 43q2 46 10.5 80t29.5 70q4 8 9 14.5t9 14.5l2 2 2 2q5 9 11 18t12 20q7 15 14 32.5t14 40.5q13-24 30.5-43.5T760 320l41-31-8 51q-2 14 .5 29.5T802 403q6 16 14.5 33.5T835 474q0 1 1 2.5t1 2.5q21 41 40 90.5T896 676t-25 116q-26 58-75 105t-120 76q-72 30-164 30t-163-29q-72-28-121-73.5T154 798q-26-57-26-115 0-55 9-102 9-46 23.5-86.5T194 417t39-74l19-35 18 36q12 24 25 43.5t27 35.5q5-53 22.5-105.5T394 223q29-37 50-56t50-41q10-7 21.5-16T541 90l33-27zm-56 99q-28 21-46 37.5T428 249q-34 44-50 104t-16 118v44l-35-27q-21-17-40-39.5T251 398q-33 63-56.5 129T171 683q0 48 21 97 22 49 65 89t107 66q64 25 148 25t148-26q64-27 107-68t64-92q22-50 22-98 0-49-16.5-92.5T799 498q-1-1-1.5-2.5T796 492l-18-38-16-37q-3-8-5.5-17t-3.5-17q-17 18-29.5 39.5T701 474l-27 74-14-78q-9-47-18.5-75.5T622 347q-5-9-10-17t-11-17q0-1-1-2l-2-2q-5-7-10-15t-10-17q-19-32-29-63t-13-66q-5 4-9.5 7.5T518 162zm-16 249l27 37q32 44 54 79t32 73q3 11 4 24t0 26q0 12-1.5 23.5T615 697q9-11 15.5-20t9.5-15l23-44 17 47-21 7q16-5 18.5-6l2.5-1v1.5l1 1.5q0 2 1 4t2 5q1 6 3.5 14t4.5 18q4 20 8 46t4 56q0 32-14.5 65.5T651 938q-25 28-60.5 46.5T512 1003t-78.5-18.5T373 938q-24-28-38.5-61.5T320 811q0-60 21-108.5t62-98.5q40-47 59-76.5t29-71.5l11-45zm149 309q-3 3-5.5 6t-5.5 6q-11 13-23 25t-21 19l-50 44 15-65v-1q1 0 1-1v-2q1-2 1.5-5t1.5-7q1-8 3-19t4-23 3-24 1-24q1-12 .5-21.5T574 611q-7-25-20.5-49T519 508q-12 32-32.5 59.5T436 632q-38 45-55.5 86.5T363 811q0 23 11 49.5t31 48.5q20 23 47.5 37t59.5 14 59.5-14 47.5-37q20-22 31-48.5t11-49.5q0-26-3-49t-7-42z"/></svg>