<svg fill="none" height="24" viewBox="0 0 24 24" width="24" xmlns="http://www.w3.org/2000/svg">
<path
    clip-rule="evenodd"
    d="M4 5C4 4.93097 4.007 4.86356 4.02032 4.79847C4.03364 4.73337 4.05328 4.67057 4.07859 4.61076C4.17979 4.37148 4.37148 4.17979 4.61076 4.07859C4.67057 4.05328 4.73337 4.03364 4.79847 4.02032C4.86155 4.00741 4.9268 4.00044 4.9936 4.00002L5 4H19C19.5523 4 20 4.44772 20 5V19C20 19.5523 19.5523 20 19 20H5C4.99784 20 4.99569 20 4.99353 20C4.44422 19.9965 4 19.5501 4 19V5ZM5 7.69232H9V5H5L5 7.69232ZM9 15.0769H5L5 12.6154H9V15.0769ZM14 15.0769H10V12.6154L14 12.6154V15.0769ZM19 15.0769H15V12.6154H19V15.0769ZM19 8.92308V11.3846H15V8.92308H19ZM14 8.92308V11.3846L10 11.3846V8.92308L14 8.92308ZM9 8.92308V11.3846H5L5 8.92308H9ZM19 16.3077H15V19H19V16.3077ZM14 19V16.3077H10V19H14ZM9 19V16.3077H5L5 19H9ZM19 7.69232V5H15V7.69232H19ZM14 7.69232V5H10V7.69232L14 7.69232Z"
    fill="currentcolor"
    fill-rule="evenodd"
/>
<rect fill="currentcolor" height="4" width="4" x="15" y="5" />
<rect fill="currentcolor" height="4" width="4" x="5" y="5" />
<rect fill="currentcolor" height="4" width="4" x="15" y="12" />
<rect fill="currentcolor" height="4" width="4" x="10" y="15" />
</svg>
