<svg xmlns="http://www.w3.org/2000/svg" viewBox="0 0 1024 1024"><path d="M512 917q-80 0-149-30-70-30-122.5-82T158 683t-30-150q0-79 30-149t82.5-122T363 180q69-31 149-31t149 31q70 30 122.5 82T866 384t30 149q0 80-30 150t-82.5 122T661 887q-69 30-149 30zm0 43q88 0 166-34 78-33 136-91t91-136q34-77 34-166 0-88-34-166-33-77-91-135t-136-92q-78-33-166-33t-166 33q-78 34-136 92t-91 135q-34 78-34 166 0 89 34 166 33 78 91 136t136 91q78 34 166 34zm-21-512v277q0 9 6 15.5t15 6.5 15-6.5 6-15.5V448q0-9-6-15t-15-6-15 6-6 15zm21-85q-9 0-15-6.5t-6-15.5 6-15 15-6 15 6 6 15-6 15.5-15 6.5z"/></svg>