<svg xmlns="http://www.w3.org/2000/svg" viewBox="0 0 1024 1024"><path d="M502 173q5-2 10-2t10 2l470 256q5 3 8 8t3 11-3 11-8 8L522 723q-5 2-10 2t-10-2L32 467q-5-3-8-8t-3-11 3-11 8-8l470-256zM87 448l425 232 425-232-425-232L87 448zm809 277V491h43v234h-43zm-683 43V555h43v201l256 158 256-158V555h43v213q0 6-3 10.5t-7 7.5L523 957q-5 3-11 3t-11-3L223 786q-4-3-7-7.5t-3-10.5zm704-21q-9 0-15 6t-6 15 6 15 15 6 15.5-6 6.5-15-6.5-15-15.5-6zm64 21q0 27-18.5 45.5T917 832q-26 0-45-18.5T853 768t19-45.5 45-18.5q27 0 45.5 18.5T981 768z"/></svg>