<svg xmlns="http://www.w3.org/2000/svg" viewBox="0 0 1024 1024"><path d="M802 149H222q-4 0-6.5 2.5T213 158v34h-42v-34q0-21 15-36t36-15h580q21 0 36 15t15 36v34h-42v-34q0-4-2.5-6.5T802 149zM171 619h42v290q0 3 2.5 5.5t6.5 2.5h397v43H222q-21 0-36-15t-15-36V619zm682 106V619h-42v106h42zm-234-21h213q6 0 11.5 3.5t8.5 9.5q2 6 1 12.5t-6 10.5L634 954q-5 4-11.5 5.5T611 958q-6-2-10-7.5t-4-11.5V725q0-9 6.5-15t15.5-6zm21 43v140l140-140H640zm247-512q4 0 6.5 2.5t2.5 5.5v324q0 4-2.5 6.5T887 576H137q-4 0-6.5-2.5T128 567V243q0-3 2.5-5.5t6.5-2.5h750zm-750-43q-22 0-37 15t-15 36v324q0 22 15 37t37 15h750q22 0 37-15t15-37V243q0-21-15-36t-37-15H137zm36 96h48v198h107v39H173V288zm302 199q11 0 20.5-2.5T513 477q9-5 16-12t12-16q5-10 7.5-20.5T551 406q0-11-2.5-21t-6.5-19q-5-10-11.5-17T515 336q-9-5-19-8t-21-3-20.5 2.5T437 335q-9 5-16 12.5T409 364t-7.5 19.5T399 406t2.5 22 7.5 19q4 9 11 16.5t15 13.5q9 5 19 7.5t21 2.5zm0 43q-17 0-32.5-4T412 515q-14-8-25-19t-20-25q-8-14-12.5-30t-4.5-35q0-16 4-31.5t12-29.5 19-25 25-20q15-8 31-12.5t34-4.5q17 0 33 4t30 12q14 7 25.5 18t19.5 25q9 14 13 30t4 34q0 17-4 32.5T584 468q-7 14-18.5 25T540 513q-15 8-31 12.5t-34 4.5zm288-2q-19 0-35.5-3.5T696 514q-14-7-25.5-17.5T651 472q-8-13-12-29t-4-34 4-34.5 12-30.5 19.5-25 26.5-18q15-8 33-12t38-4q11 0 21.5 1t21.5 4q10 2 20 5.5t18 7.5l-8 41q-8-4-17-7t-19-5q-9-3-19-4t-20-1q-12 0-23 2.5t-20 7.5-16.5 12-12.5 16q-6 9-8.5 19.5T683 407q0 19 5.5 33.5T705 465q11 11 26.5 16t34.5 5q10 0 21-1t23-4v-51h-47v-38h91v119q-20 9-42.5 13t-48.5 4z"/></svg>