<svg xmlns="http://www.w3.org/2000/svg" viewBox="0 0 1024 1024"><path d="M75 280q5-3 10.5-3t10.5 3l427 256q5 3 7.5 8t2.5 11v426q0 6-2.5 11t-7.5 8q-6 3-11.5 3t-10.5-3L74 744q-4-3-7-8t-3-11V299q0-6 3-11t8-8zm32 56v377l384 231V567L107 336zm842-56q5 3 8 8t3 11v426q0 6-3 11t-7 8l-427 256q-5 3-10.5 3t-11.5-3q-5-3-7.5-8t-2.5-11V555q0-6 2.5-11t7.5-8l427-256q5-3 10.5-3t10.5 3zM533 567v377l384-231V336zM502 66q5-2 10-2t10 2l426 214q5 2 8.5 7t3.5 11-2.5 11-7.5 8L523 573q-5 3-11 3t-11-3L74 317q-5-3-7.5-8T64 298t3.5-11 8.5-7L502 66zM130 300l382 230 382-230-382-191-382 191z"/></svg>