<svg xmlns="http://www.w3.org/2000/svg" viewBox="0 0 1024 1024"><path d="M836 64q25 0 42.5 17.5T896 124v819q0 25-17.5 42.5T836 1003H179q-3 0-5.5-2.5T171 994v-77h64q9 0 15-6t6-15-6-15-15-6h-64v-86h64q9 0 15-6t6-15-6-15-15-6h-64v-86h64q9 0 15-6t6-15-6-15-15-6h-64v-86h64q9 0 15-6t6-15-6-15-15-6h-64v-86h64q9 0 15-6t6-15-6-15-15-6h-64v-86h64q9 0 15-6t6-15-6-15-15-6h-64v-81h64q9 0 15-6.5t6-15.5-6-15-15-6h-64V73q0-4 2.5-6.5T179 64h657zM128 789v86H64q-9 0-15 6t-6 15 6 15 15 6h64v77q0 21 15 36t36 15h657q43 0 73-30t30-72V124q0-43-30-73t-73-30H179q-21 0-36 15t-15 37v38H64q-9 0-15 6t-6 15 6 15.5 15 6.5h64v81H64q-9 0-15 6t-6 15 6 15 15 6h64v86H64q-9 0-15 6t-6 15 6 15 15 6h64v86H64q-9 0-15 6t-6 15 6 15 15 6h64v86H64q-9 0-15 6t-6 15 6 15 15 6h64v86H64q-9 0-15 6t-6 15 6 15 15 6h64zm265-597q-4 0-6.5 2.5T384 201v238q0 4 2.5 6.5t6.5 2.5h366q4 0 6.5-2.5t2.5-6.5V201q0-4-2.5-6.5T759 192H393zm-52 9q0-22 15-37t37-15h366q22 0 37 15t15 37v238q0 22-15 37t-37 15H393q-22 0-37-15t-15-37V201z"/></svg>