<svg fill="none" viewBox="0 0 24 24" xmlns="http://www.w3.org/2000/svg">
  <path
    clipRule="evenodd"
    d="M13.5 8C13.5 7.17157 14.1716 6.5 15 6.5C15.8284 6.5 16.5 7.17157 16.5 8C16.5 8.82843 15.8284 9.5 15 9.5C14.1716 9.5 13.5 8.82843 13.5 8ZM12.55 7.5H4C3.72386 7.5 3.5 7.72386 3.5 8C3.5 8.27614 3.72386 8.5 4 8.5H12.55C12.7816 9.64112 13.7905 10.5 15 10.5C16.2095 10.5 17.2184 9.64112 17.45 8.5H20C20.2761 8.5 20.5 8.27614 20.5 8C20.5 7.72386 20.2761 7.5 20 7.5H17.45C17.2184 6.35888 16.2095 5.5 15 5.5C13.7905 5.5 12.7816 6.35888 12.55 7.5ZM3.5 16C3.5 15.7239 3.72386 15.5 4 15.5H6.55001C6.78164 14.3589 7.79052 13.5 9 13.5C10.2095 13.5 11.2184 14.3589 11.45 15.5H20C20.2761 15.5 20.5 15.7239 20.5 16C20.5 16.2761 20.2761 16.5 20 16.5H11.45C11.2184 17.6411 10.2095 18.5 9 18.5C7.79052 18.5 6.78164 17.6411 6.55001 16.5H4C3.72386 16.5 3.5 16.2761 3.5 16ZM9 14.5C9.82843 14.5 10.5 15.1716 10.5 16C10.5 16.8284 9.82843 17.5 9 17.5C8.17157 17.5 7.5 16.8284 7.5 16C7.5 15.1716 8.17157 14.5 9 14.5Z"
    fill="currentcolor"
    fillRule="evenodd"
  />
</svg>
