<svg xmlns="http://www.w3.org/2000/svg" viewBox="0 0 1024 1024"><path d="M64 128q9 0 15-6t6-15-6-15.5T64 85t-15 6.5-6 15.5 6 15 15 6zm0 107q9 0 15-6.5t6-15.5-6-15-15-6-15 6-6 15 6 15.5 15 6.5zm21 85q0 9-6 15t-15 6-15-6-6-15 6-15 15-6 15 6 6 15zM64 448q9 0 15-6t6-15-6-15.5-15-6.5-15 6.5-6 15.5 6 15 15 6zm21 85q0 9-6 15.5T64 555t-15-6.5-6-15.5 6-15 15-6 15 6 6 15zM64 661q9 0 15-6t6-15-6-15-15-6-15 6-6 15 6 15 15 6zm21 86q0 9-6 15t-15 6-15-6-6-15 6-15.5 15-6.5 15 6.5 6 15.5zM64 875q9 0 15-6.5t6-15.5-6-15-15-6-15 6-6 15 6 15.5 15 6.5zm21 85q0 9-6 15t-15 6-15-6-6-15 6-15 15-6 15 6 6 15zm278-832q9 0 15-6t6-15-6-15.5-15-6.5-15.5 6.5T341 107t6.5 15 15.5 6zm0 107q9 0 15-6.5t6-15.5-6-15-15-6-15.5 6-6.5 15 6.5 15.5T363 235zm21 85q0 9-6 15t-15 6-15.5-6-6.5-15 6.5-15 15.5-6 15 6 6 15zm-21 128q9 0 15-6t6-15-6-15.5-15-6.5-15.5 6.5T341 427t6.5 15 15.5 6zm21 85q0 9-6 15.5t-15 6.5-15.5-6.5T341 533t6.5-15 15.5-6 15 6 6 15zm-21 128q9 0 15-6t6-15-6-15-15-6-15.5 6-6.5 15 6.5 15 15.5 6zm21 86q0 9-6 15t-15 6-15.5-6-6.5-15 6.5-15.5T363 725t15 6.5 6 15.5zm-21 128q9 0 15-6.5t6-15.5-6-15-15-6-15.5 6-6.5 15 6.5 15.5T363 875zm21 85q0 9-6 15t-15 6-15.5-6-6.5-15 6.5-15 15.5-6 15 6 6 15zm299-853q0 9-6.5 15t-15.5 6-15-6-6-15 6-15.5 15-6.5 15.5 6.5T683 107zm0 106q0 9-6.5 15.5T661 235t-15-6.5-6-15.5 6-15 15-6 15.5 6 6.5 15zm-22 128q9 0 15.5-6t6.5-15-6.5-15-15.5-6-15 6-6 15 6 15 15 6zm22 86q0 9-6.5 15t-15.5 6-15-6-6-15 6-15.5 15-6.5 15.5 6.5T683 427zm-22 128q9 0 15.5-6.5T683 533t-6.5-15-15.5-6-15 6-6 15 6 15.5 15 6.5zm22 85q0 9-6.5 15t-15.5 6-15-6-6-15 6-15 15-6 15.5 6 6.5 15zm-22 128q9 0 15.5-6t6.5-15-6.5-15.5T661 725t-15 6.5-6 15.5 6 15 15 6zm22 85q0 9-6.5 15.5T661 875t-15-6.5-6-15.5 6-15 15-6 15.5 6 6.5 15zm-22 128q9 0 15.5-6t6.5-15-6.5-15-15.5-6-15 6-6 15 6 15 15 6zm299-853q9 0 15-6t6-15-6-15.5-15-6.5-15 6.5-6 15.5 6 15 15 6zm0 107q9 0 15-6.5t6-15.5-6-15-15-6-15 6-6 15 6 15.5 15 6.5zm21 85q0 9-6 15t-15 6-15-6-6-15 6-15 15-6 15 6 6 15zm-21 128q9 0 15-6t6-15-6-15.5-15-6.5-15 6.5-6 15.5 6 15 15 6zm21 85q0 9-6 15.5t-15 6.5-15-6.5-6-15.5 6-15 15-6 15 6 6 15zm-21 128q9 0 15-6t6-15-6-15-15-6-15 6-6 15 6 15 15 6zm21 86q0 9-6 15t-15 6-15-6-6-15 6-15.5 15-6.5 15 6.5 6 15.5zm-21 128q9 0 15-6.5t6-15.5-6-15-15-6-15 6-6 15 6 15.5 15 6.5zm21 85q0 9-6 15t-15 6-15-6-6-15 6-15 15-6 15 6 6 15zM44 206q3-8 11-12t16-1l299 107q2 1 4.5 2.5t3.5 2.5l295 317 40 14 230-328q5-7 13.5-9t15.5 4q7 5 9 13.5t-4 15.5L755 651l212 76q8 3 12 11t1 16-11 12-16 1l-224-80-50 72q-4 6-11 8t-14 0L363 663 71 767q-8 3-16-1t-11-12 1-16 12-11l298-107q4-1 7.5-1t7.5 1l283 101 35-49-34-12q-2-1-4.5-2.5T646 655L351 338 57 233q-8-3-12-11t-1-16z"/></svg>