<svg xmlns="http://www.w3.org/2000/svg" viewBox="0 0 1024 1024"><path d="M850 107q-25-25-60.5-25T729 107L186 650q-3 3-5 5.5t-4 5.5h-.5l-.5 1h-1l-1 1-1 .5-2 1.5-3 4-124 334 335-123 3-3q2-2 3-3.5t2-3.5q3-2 5.5-4t4.5-4l543-544q25-25 25-60t-25-60l-90-91zM203 697l2 3q0-1 .5-2t.5-2q3-1 7-1.5t8-1.5q5-1 10-1t10 1q4 0 6 1t2 2l1 1 1 5-.5 9-1.5 12v1q-1 6-1.5 13.5T247 752q1 8 4 17t10 17q8 8 17 11t17 3q8 1 15.5 0t13.5-2q7-1 12.5-1.5t9.5.5q3 0 4.5.5l1.5.5q3 3 4.5 9.5t.5 17.5q0 4-1 8t-2 7q-1 1-3 1.5t-3 .5l2 3-234 86 87-234zm195 103q-1-9-5-17t-11-15q-8-8-17-11t-17-3q-7 0-14.5.5T320 756h-1q-7 1-12 1.5t-9 .5q-4-1-5-1.5l-1-.5q-1 0-1.5-1.5t-.5-4.5q0-4 .5-9.5T292 729v-1q0-6 1-13.5t0-15.5q0-8-3-17t-11-17q-7-7-16-10.5t-17-4.5l392-392 151 151-391 391zm422-421L669 228l90-91q13-12 30.5-12t30.5 12l90 91q13 12 13 30t-13 30l-90 91z"/></svg>