<svg viewBox="0 0 16 16" fill="none" xmlns="http://www.w3.org/2000/svg">
<path d="M9.82836 0.721802C9.96097 0.721802 10.0881 0.77448 10.1819 0.868248L15.1317 5.818C15.3269 6.01326 15.3269 6.32984 15.1317 6.5251C14.6513 7.0055 14.0597 7.11349 13.6291 7.11349C13.4517 7.11349 13.2936 7.09548 13.1683 7.07423L10.0348 10.2078C10.0417 10.2357 10.0488 10.2652 10.0559 10.2962C10.1098 10.5298 10.1703 10.8554 10.1947 11.2206C10.2415 11.9231 10.163 12.908 9.47481 13.5962C9.27955 13.7914 8.96296 13.7914 8.7677 13.5962L5.93928 10.7677L2.7573 13.9497C2.56203 14.145 1.53835 14.8521 1.34308 14.6568C1.14782 14.4616 1.85493 13.4379 2.05019 13.2426L5.23217 10.0606L2.40374 7.23221C2.20848 7.03695 2.20848 6.72036 2.40374 6.5251C3.09191 5.83693 4.07677 5.7584 4.77929 5.80524C5.14448 5.82959 5.47016 5.8901 5.70368 5.94399C5.73473 5.95116 5.76426 5.95823 5.79215 5.96512L8.92568 2.83159C8.90444 2.70635 8.88642 2.54824 8.88642 2.37085C8.88642 1.94022 8.99442 1.34864 9.47481 0.868248C9.56858 0.77448 9.69575 0.721802 9.82836 0.721802ZM9.95004 2.83413L9.94927 2.83181L9.95004 2.83413ZM9.94927 2.83181L9.95004 2.83413C10.0086 3.01308 9.96161 3.20988 9.82836 3.34312L6.29283 6.87866C6.15903 7.01245 5.96118 7.05925 5.78164 6.9996L5.77962 6.99895L5.7665 6.9948C5.75402 6.99091 5.73426 6.9849 5.70796 6.97734C5.6553 6.96221 5.5769 6.94102 5.47882 6.91839C5.28144 6.87284 5.0105 6.82287 4.71277 6.80302C4.291 6.77491 3.87709 6.8108 3.53811 6.95237L9.04755 12.4618C9.18911 12.1228 9.22501 11.7089 9.19689 11.2871C9.17704 10.9894 9.12707 10.7185 9.08153 10.5211C9.05889 10.423 9.0377 10.3446 9.02257 10.2919C9.01501 10.2657 9.009 10.2459 9.00511 10.2334L9.00096 10.2203L9.00047 10.2188C8.94071 10.0392 8.9874 9.84094 9.12126 9.70708L12.6568 6.17155C12.7905 6.03781 12.9883 5.99099 13.1678 6.05053C13.1713 6.05161 13.1786 6.05373 13.1889 6.05653C13.2094 6.06214 13.2424 6.07045 13.2852 6.07901C13.3717 6.09631 13.4927 6.11349 13.6291 6.11349C13.7426 6.11349 13.8588 6.1019 13.972 6.07253L9.92738 2.02792C9.89802 2.14114 9.88642 2.25733 9.88642 2.37085C9.88642 2.50717 9.9036 2.6282 9.92091 2.71473C9.92946 2.7575 9.93777 2.79047 9.94338 2.81105C9.94618 2.82131 9.94819 2.82828 9.94927 2.83181Z" fill="black"/>
</svg>
