<svg xmlns="http://www.w3.org/2000/svg" viewBox="0 0 1024 1024"><path d="M932 113q2 1 3 3l2 4 1.5 4 .5 4v171q0 9-6.5 15t-15.5 6-15-6-6-15V180L548 527q-6 6-15 6t-15-6-6-15 6-15l348-348H747q-9 0-15.5-6t-6.5-15 6.5-15 15.5-6h171q2 0 4 .5t3 .5l4 2 3 3zm-612 79q-34 0-62.5 9T209 230t-29 48.5-9 62.5v384q0 35 9 63t29 48 48.5 29.5T320 875h384q34 0 62.5-9.5T815 836t29-48 9-63V384q0-9-6-15t-15-6-15 6-6 15v341q0 30-7 49.5T785 806t-31.5 19-49.5 7H320q-30 0-49.5-7T239 806t-19-31.5-7-49.5V341q0-29 7-49t19-32 31.5-18.5T320 235h341q9 0 15.5-6.5T683 213t-6.5-15-15.5-6H320z"/></svg>