<svg xmlns="http://www.w3.org/2000/svg" viewBox="0 0 1024 1024"><path d="M512 107q9 0 15 6t6 15v299q0 9-6 15t-15 6-15-6-6-15V128q0-9 6-15t15-6zm341 426q0 71-26 133-27 62-73.5 108.5T645 848t-133 27-133-27-108.5-73.5T197 666q-26-62-26-133 0-52 15-100 14-47 41-87.5t64-72.5q38-32 82-52l-17-39q-50 23-92 58-42 36-72.5 81.5T145 421q-17 54-17 112 0 80 30 150t82.5 122T363 887q69 30 149 30t149-30q70-30 122.5-82T866 683t30-150q0-58-17-112-16-54-46.5-99.5T760 240q-42-35-92-58l-17 39q44 20 82 52 37 32 64 72.5t41 87.5q15 48 15 100zM384 203q0 8-6 14.5t-15 6.5-15-6.5-6-14.5q0-9 6-15.5t15-6.5 15 6.5 6 15.5zm298 0q0 8-6 14.5t-15 6.5-15-6.5-6-14.5q0-9 6-15.5t15-6.5 15 6.5 6 15.5z"/></svg>