<svg xmlns="http://www.w3.org/2000/svg" viewBox="0 0 1024 1024"><path d="M277 64q9 0 15.5 6t6.5 15v768q0 9-6.5 15.5T277 875t-15-6.5-6-15.5V85q0-9 6-15t15-6zm235 0q9 0 15 6t6 15v768q0 9-6 15.5t-15 6.5-15-6.5-6-15.5V85q0-9 6-15t15-6zm235 0q9 0 15 6t6 15v768q0 9-6 15.5t-15 6.5-15.5-6.5T725 853V85q0-9 6.5-15t15.5-6zM64 832q9 0 15 6t6 15v107h854V853q0-9 6-15t15-6 15 6 6 15v128q0 9-6 15.5t-15 6.5H64q-9 0-15-6.5T43 981V853q0-9 6-15t15-6zM6 369q6-6 15-6t15 6l86 85q6 6 6 15t-6 15l-86 86q-6 6-15 6t-15-6-6-15 6-15l70-71-70-70q-6-6-6-15t6-15zm896 0q6-6 15-6t15 6l86 85q6 6 6 15t-6 15l-86 86q-6 6-15 6t-15-6-6-15 6-15l70-71-70-70q-6-6-6-15t6-15z"/></svg>