  <svg fill="none" viewBox="0 0 24 24" xmlns="http://www.w3.org/2000/svg">
    <path
      clip-rule="evenodd"
      d="M4.5 6C4.22386 6 4 6.22386 4 6.5C4 6.77614 4.22386 7 4.5 7H19.5C19.7761 7 20 6.77614 20 6.5C20 6.22386 19.7761 6 19.5 6H4.5ZM4.5 10C4.22386 10 4 10.2239 4 10.5C4 10.7761 4.22386 11 4.5 11H19.5C19.7761 11 20 10.7761 20 10.5C20 10.2239 19.7761 10 19.5 10H4.5ZM4 14.5C4 14.2239 4.22386 14 4.5 14H19.5C19.7761 14 20 14.2239 20 14.5C20 14.7761 19.7761 15 19.5 15H4.5C4.22386 15 4 14.7761 4 14.5ZM4.5 18C4.22386 18 4 18.2239 4 18.5C4 18.7761 4.22386 19 4.5 19H19.5C19.7761 19 20 18.7761 20 18.5C20 18.2239 19.7761 18 19.5 18H4.5Z"
      fill="currentcolor"
      fill-rule="evenodd"
    />
  </svg>
