<svg fill="none" viewBox="0 0 24 24" xmlns="http://www.w3.org/2000/svg">
    <path
        clip-rule="evenodd"
        d="M19 6H5V10H19V6ZM5 5C4.44772 5 4 5.44772 4 6V10C4 10.5523 4.44772 11 5 11H19C19.5523 11 20 10.5523 20 10V6C20 5.44772 19.5523 5 19 5H5ZM4 14.5C4 14.2239 4.22386 14 4.5 14H19.5C19.7761 14 20 14.2239 20 14.5C20 14.7761 19.7761 15 19.5 15H4.5C4.22386 15 4 14.7761 4 14.5ZM4.5 18C4.22386 18 4 18.2239 4 18.5C4 18.7761 4.22386 19 4.5 19H19.5C19.7761 19 20 18.7761 20 18.5C20 18.2239 19.7761 18 19.5 18H4.5Z"
        fill="currentcolor"
        fill-rule="evenodd"
    />
</svg>
