<svg xmlns="http://www.w3.org/2000/svg" viewBox="0 0 1024 1024"><path d="M774 156q6-7 15-7t15 7l28 27 28-27q6-7 15-7t15 7q6 6 6 15t-6 15l-28 27 28 28q6 6 6 15t-6 15-15 6-15-6l-28-27-28 27q-6 6-15 6t-15-6-6-15 6-15l28-28-28-27q-6-6-6-15t6-15zM348 369q6-6 15-6t15 6l27 27 28-27q6-6 15-6t15 6 6 15-6 15l-27 28 27 27q6 6 6 15t-6 15q-6 7-15 7t-15-7l-28-27-27 27q-6 7-15 7t-15-7q-7-6-7-15t7-15l27-27-27-28q-7-6-7-15t7-15zM134 582q6-6 15-6t15 6l28 28 28-28q6-6 15-6t15 6 6 15-6 15l-28 28 28 28q6 6 6 15t-6 15-15 6-15-6l-28-28-28 28q-6 6-15 6t-15-6-6-15 6-15l28-28-28-28q-6-6-6-15t6-15zm30 214q-6-7-15-7t-15 7q-6 6-6 15t6 15l28 27-28 28q-6 6-6 15t6 15 15 6 15-6l28-27 28 27q6 6 15 6t15-6 6-15-6-15l-28-28 28-27q6-6 6-15t-6-15q-6-7-15-7t-15 7l-28 27zm184-214q6-6 15-6t15 6l27 28 28-28q6-6 15-6t15 6 6 15-6 15l-27 28 27 28q6 6 6 15t-6 15-15 6-15-6l-28-28-27 28q-6 6-15 6t-15-6q-7-6-7-15t7-15l27-28-27-28q-7-6-7-15t7-15zm213 214q6-7 15-7t15 7l28 27 27-27q6-7 15-7t15 7q7 6 7 15t-7 15l-27 27 27 28q7 6 7 15t-7 15q-6 6-15 6t-15-6l-27-27-28 27q-6 6-15 6t-15-6-6-15 6-15l27-28-27-27q-6-6-6-15t6-15zm0-427q6-6 15-6t15 6l28 27 27-27q6-6 15-6t15 6q7 6 7 15t-7 15l-27 28 27 27q7 6 7 15t-7 15q-6 7-15 7t-15-7l-27-27-28 27q-6 7-15 7t-15-7q-6-6-6-15t6-15l27-27-27-28q-6-6-6-15t6-15zm213 0q6-6 15-6t15 6l28 27 28-27q6-6 15-6t15 6 6 15-6 15l-28 28 28 27q6 6 6 15t-6 15q-6 7-15 7t-15-7l-28-27-28 27q-6 7-15 7t-15-7q-6-6-6-15t6-15l28-27-28-28q-6-6-6-15t6-15zm0 213q6-6 15-6t15 6l28 28 28-28q6-6 15-6t15 6 6 15-6 15l-28 28 28 28q6 6 6 15t-6 15-15 6-15-6l-28-28-28 28q-6 6-15 6t-15-6-6-15 6-15l28-28-28-28q-6-6-6-15t6-15z"/></svg>