<svg xmlns="http://www.w3.org/2000/svg" viewBox="0 0 1024 1024"><path d="M768 448q0-71-27-133t-73-108.5T560 133q-63-26-133-26-71 0-133 26-62 27-108.5 73.5T112 315 85 448t27 133 73.5 108.5T294 763q62 26 133 26 70 0 133-26 62-27 108-73.5T741 581t27-133zm-71 330q-55 46-124 71.5T427 875q-89 0-166-34-78-33-136-91T34 614Q0 536 0 448t34-166q33-78 91-136t136-91q77-34 166-34 88 0 166 34 77 33 135 91t92 136q33 78 33 166 0 77-25.5 146T757 718l255 254q12 13 12 30.5t-12 30.5q-13 12-30.5 12t-30.5-12L697 778z"/></svg>