<svg xmlns="http://www.w3.org/2000/svg" viewBox="0 0 1075 1024"><path d="M285 513v4l-1 4-2 3.5-3 2.5q-1 2-2.5 3t-3.5 2-4 1H138l-4-1-3.5-2-2.5-3q-2-1-3-2.5t-2-3.5-1-4V386l1-4 2-3.5 3-3.5q1-1 2.5-2t3.5-2 4-1.5 4-.5h123q2 0 4 .5t4 1.5 3.5 2 2.5 2q2 2 3 3.5t2 3.5 1 4v127zm164 409q0 2-.5 4t-.5 4l-2 4-3 3q-1 1-3 2.5t-3 1.5q-2 1-4 1.5t-4 .5H306q-2 0-4-.5t-4-1.5q-2 0-3.5-1.5T291 937q-1-1-2-3l-2-4-1.5-4-.5-4V800q0-2 .5-4t1.5-4 2-3.5 2-3.5q2-1 3.5-2.5t3.5-1.5q2-1 4-1.5t4-.5h123q2 0 4 .5t4 1.5q1 0 3 1.5t3 2.5q2 2 3 3.5t2 3.5q0 2 .5 4t.5 4v122zm492-327q0 2-.5 4t-1.5 4q-1 1-2 3t-2 3q-2 2-3.5 3t-3.5 2q-2 0-4 .5t-4 .5H797q-2 0-4-.5t-3-.5l-4-2-3-3q-1-1-2.5-3t-1.5-3q-1-2-1.5-4t-.5-4V472q0-2 .5-4t1.5-4q0-2 1.5-3.5t2.5-3.5q1-1 3-2l4-2q1-1 3-1.5t4-.5h123q2 0 4 .5t4 1.5 3.5 2 3.5 2q1 2 2 3.5t2 3.5 1.5 4 .5 4v123zm-492 82q0 2 .5 4t1.5 4q1 1 2 3t2 3q2 2 3.5 3t3.5 2q2 0 4 .5t4 .5h123q2 0 4-.5t3-.5l4-2 3-3q2-1 3-3t2-3q0-2 .5-4t.5-4V554q0-2-.5-4t-.5-4q-1-2-2-3.5t-3-3.5q-1-1-3-2l-4-2q-1-1-3-1.5t-4-.5H470q-2 0-4 .5t-4 1.5-3.5 2-3.5 2q-1 2-2 3.5t-2 3.5-1.5 4-.5 4v123zm164-410q0 2 .5 4t1.5 4q0 2 1.5 3.5t2.5 3.5q2 1 3.5 2t3.5 2 4 1.5 4 .5h122q2 0 4-.5t4-1.5l4-2 3-2q1-2 2.5-3.5t1.5-3.5q1-2 1.5-4t.5-4V144q0-2-.5-4t-1.5-4q0-1-1.5-3t-2.5-3q-1-2-3-3l-4-2q-2 0-4-.5t-4-.5H634q-2 0-4 .5t-4 .5q-2 1-3.5 2t-3.5 3q-1 1-2.5 3t-1.5 3q-1 2-1.5 4t-.5 4v123z"/></svg>