<svg xmlns="http://www.w3.org/2000/svg" viewBox="0 0 1075 1024"><path d="M137 192q0 18 12.5 30.5T179 235q18 0 30.5-12.5T222 192t-12.5-30.5T179 149q-17 0-29.5 12.5T137 192zm42-94q-38 0-66 28t-28 66 28 66 66 28q39 0 66.5-28t27.5-66-27.5-66T179 98zm0 85q3 0 6 3t3 6-3 6-6 3-5.5-3-2.5-6 2.5-6 5.5-3zm299 9q0 18 12.5 30.5T521 235q17 0 29.5-12.5T563 192t-12.5-30.5T521 149q-18 0-30.5 12.5T478 192zm42-94q-38 0-65.5 28T427 192t27.5 66 65.5 28q39 0 66.5-28t27.5-66-27.5-66T520 98zm1 85q3 0 5.5 3t2.5 6-2.5 6-5.5 3q-4 0-6.5-3t-2.5-6 2.5-6 6.5-3zm298 9q0 18 12.5 30.5T862 235t30.5-12.5T905 192t-12.5-30.5T862 149t-30.5 12.5T819 192zm43-94q-39 0-66.5 28T768 192t27.5 66 66.5 28q38 0 66-28t28-66-28-66-66-28zm0 85q3 0 5.5 3t2.5 6-2.5 6-5.5 3-6-3-3-6 3-6 6-3zM137 533q0 18 12.5 30.5T179 576q18 0 30.5-12.5T222 533q0-17-12.5-29.5T179 491q-17 0-29.5 12.5T137 533zm42-94q-38 0-66 28t-28 66q0 39 28 66.5t66 27.5q39 0 66.5-27.5T273 533q0-38-27.5-66T179 439zm0 86q3 0 6 2.5t3 5.5-3 6-6 3-5.5-3-2.5-6 2.5-5.5 5.5-2.5zm299 8q0 18 12.5 30.5T521 576q17 0 29.5-12.5T563 533q0-17-12.5-29.5T521 491q-18 0-30.5 12.5T478 533zm42-94q-38 0-65.5 28T427 533q0 39 27.5 66.5T520 627q39 0 66.5-27.5T614 533q0-38-27.5-66T520 439zm1 86q3 0 5.5 2.5t2.5 5.5-2.5 6-5.5 3q-4 0-6.5-3t-2.5-6 2.5-5.5 6.5-2.5zm298 8q0 18 12.5 30.5T862 576t30.5-12.5T905 533q0-17-12.5-29.5T862 491t-30.5 12.5T819 533zm43-94q-39 0-66.5 28T768 533q0 39 27.5 66.5T862 627q38 0 66-27.5t28-66.5q0-38-28-66t-66-28zm0 86q3 0 5.5 2.5t2.5 5.5-2.5 6-5.5 3-6-3-3-6 3-5.5 6-2.5zM137 875q0 17 12.5 29.5T179 917q18 0 30.5-12.5T222 875q0-18-12.5-30.5T179 832q-17 0-29.5 12.5T137 875zm42-94q-38 0-66 27.5T85 875q0 38 28 66t66 28q39 0 66.5-28t27.5-66q0-39-27.5-66.5T179 781zm0 85q3 0 6 3t3 6-3 5.5-6 2.5-5.5-2.5-2.5-5.5 2.5-6 5.5-3zm299 9q0 17 12.5 29.5T521 917q17 0 29.5-12.5T563 875q0-18-12.5-30.5T521 832q-18 0-30.5 12.5T478 875zm42-94q-38 0-65.5 27.5T427 875q0 38 27.5 66t65.5 28q39 0 66.5-28t27.5-66q0-39-27.5-66.5T520 781zm1 85q3 0 5.5 3t2.5 6-2.5 5.5-5.5 2.5q-4 0-6.5-2.5T512 875t2.5-6 6.5-3zm298 9q0 17 12.5 29.5T862 917t30.5-12.5T905 875q0-18-12.5-30.5T862 832t-30.5 12.5T819 875zm43-94q-39 0-66.5 27.5T768 875q0 38 27.5 66t66.5 28q38 0 66-28t28-66q0-39-28-66.5T862 781zm0 85q3 0 5.5 3t2.5 6-2.5 5.5-5.5 2.5-6-2.5-3-5.5 3-6 6-3z"/></svg>