<svg xmlns="http://www.w3.org/2000/svg" viewBox="0 0 1024 1024"><path d="M683 320q-18 0-30.5-12.5T640 277q0-17 12.5-29.5T683 235q17 0 29.5 12.5T725 277q0 18-12.5 30.5T683 320zm0 43q35 0 60-25t25-61q0-35-25-60t-60-25q-36 0-61 25t-25 60q0 36 25 61t61 25zM299 576q-18 0-30.5-12.5T256 533q0-17 12.5-29.5T299 491q17 0 29.5 12.5T341 533q0 18-12.5 30.5T299 576zm0 43q35 0 60-25t25-61q0-35-25-60t-60-25q-36 0-61 25t-25 60q0 36 25 61t61 25zm213 213q-18 0-30.5-12.5T469 789q0-17 12.5-29.5T512 747t30.5 12.5T555 789q0 18-12.5 30.5T512 832zm0 43q35 0 60-25t25-61q0-35-25-60t-60-25-60 25-25 60q0 36 25 61t60 25zm253-576q2-5 2.5-10.5t.5-11.5q0-5-.5-10.5T765 256h67q9 0 15 6t6 15-6 15.5-15 6.5h-67zm-165 0H192q-9 0-15-6.5t-6-15.5 6-15 15-6h408q-1 5-2 10.5t-1 10.5q0 6 1 11.5t2 10.5zM381 555q2-5 2.5-10.5t.5-11.5q0-5-.5-10.5T381 512h451q9 0 15 6t6 15-6 15.5-15 6.5H381zm-165 0h-24q-9 0-15-6.5t-6-15.5 6-15 15-6h24q-1 5-2 10.5t-1 10.5q0 6 1 11.5t2 10.5zm379 256h237q9 0 15-6.5t6-15.5-6-15-15-6H595q1 5 1.5 10.5t.5 10.5q0 6-.5 11.5T595 811zm-166 0q-1-5-1.5-10.5T427 789q0-5 .5-10.5T429 768H192q-9 0-15 6t-6 15 6 15.5 15 6.5h237z"/></svg>