<svg xmlns="http://www.w3.org/2000/svg" viewBox="0 0 1024 1024"><path d="M973 107q3 0 5.5 2.5t2.5 5.5v836q0 4-2.5 6.5T973 960H51q-3 0-5.5-2.5T43 951V115q0-3 2.5-5.5T51 107h922zM51 64q-21 0-36 15T0 115v836q0 22 15 37t36 15h922q21 0 36-15t15-37V115q0-21-15-36t-36-15H51zm-8 128h938v43H43v-43zm384 171h42v147q12-9 28-14t36-5q34 0 55.5 13t33.5 33q11 18 14.5 37t3.5 32v226h-43V606q0-10-2.5-23t-9.5-24q-6-10-18-18t-34-8-33.5 8-18.5 18q-7 11-9.5 24t-2.5 23v226h-42V363zm305 134q6-6 15-6t15 6l149 151q6 7 6 15.5t-6 15.5L762 828q-6 6-15 6t-15-6q-7-6-7-15t7-15l134-135-135-136q-6-6-6-15t7-15zm-576 22q15-14 35-21t44-7q51 0 78.5 32t27.5 66h-42q0-18-16-37t-48-19q-18 0-30 5t-19 12-11 17-4 22q0 11 4.5 18.5T188 620q9 7 22.5 11.5T241 641h1q16 5 32.5 11t30.5 15q16 11 26 27t10 40q0 21-7 39.5T313 806q-15 13-35 19.5t-43 6.5q-51 0-79-32t-28-66h43q0 17 15.5 36t48.5 19q18 0 30-4t19-11q7-6 11-16t4-24q0-12-4.5-19T281 703q-9-7-22.5-11.5T229 682q-1 0-1.5-.5l-.5-.5q-15-4-32-10t-31-15q-16-11-26-27t-10-40q0-20 7-38t21-32z"/></svg>