<svg xmlns="http://www.w3.org/2000/svg" viewBox="0 0 1024 1024"><path d="M626 326q12 28 36 45.5t54 19.5l246 20q14 1 18.5 14.5T974 448L786 609q-22 19-31.5 47.5T752 714l57 240q4 14-7.5 22t-23.5 1L567 848q-25-15-55-15t-55 15L246 977q-12 7-23.5-1t-7.5-22l57-240q7-29-2.5-57.5T238 609L50 448q-11-9-6.5-22.5T62 411l246-20q30-2 54-19.5t36-45.5l95-228q5-13 19-13t19 13l95 228zM571 82q-16-39-59-39t-59 39l-95 228q-6 16-20.5 26.5T305 349L59 369q-43 3-56 43.5T22 480l188 161q13 12 18.5 29t1.5 34l-57 240q-10 41 24.5 66t70.5 3l211-128q15-10 33-10t33 10l211 128q36 22 70.5-3t24.5-66l-57-240q-4-17 1.5-34t18.5-29l188-161q32-27 19-67.5T965 369l-246-20q-18-2-32.5-12.5T666 310L571 82z"/></svg>