<svg xmlns="http://www.w3.org/2000/svg" viewBox="0 0 1024 1024"><path d="M717 64q3 0 5.5 2.5T725 73v34H222q-21 0-36 15t-15 36v674h-34q-4 0-6.5-2.5T128 823V73q0-4 2.5-6.5T137 64h580zm51 43V73q0-22-15-37t-36-15H137q-22 0-37 15T85 73v750q0 22 15 37t37 15h34v34q0 21 15 36t36 15h34v34q0 21 15 36t36 15h397l235-234V243q0-21-15-36t-37-15h-34v-34q0-21-15-36t-36-15h-34zm-546 42h580q4 0 6.5 2.5t2.5 6.5v34H307q-21 0-36 15t-15 36v674h-34q-4 0-6.5-2.5T213 909V158q0-4 2.5-6.5t6.5-2.5zm85 86h580q4 0 6.5 2.5t2.5 5.5v546H704q-9 0-15 6.5t-6 15.5v192H307q-3 0-5.5-2.5T299 994V243q0-3 2.5-5.5t5.5-2.5zm418 597h141L725 972V832zm15-305L570 698q-6 6-15 6t-15-6l-86-86q-6-6-6-15t6-15 15-6 15 6l71 70 155-155q6-6 15-6t15 6q7 6 7 15t-7 15z"/></svg>