<svg xmlns="http://www.w3.org/2000/svg" viewBox="0 0 1024 1024"><path d="M512 21q-9 0-15 6.5T491 43v64H51q-21 0-36 15T0 158v708q0 21 15 36t36 15h218l-33 100q-3 9 1 16.5t12 10.5q9 3 16.5-1t10.5-12l38-114h396l38 114q3 8 10.5 12t16.5 1q8-3 12-10.5t1-16.5l-33-100h218q21 0 36-15t15-36V158q0-21-15-36t-36-15H533V43q0-9-6-15.5T512 21zM51 149h922q3 0 5.5 2.5t2.5 6.5v708q0 4-2.5 6.5T973 875H51q-3 0-5.5-2.5T43 866V158q0-4 2.5-6.5T51 149zm116 95l174 265 178-30 185 167 177 59q9 3 13 11t1 16-11 12-16 2l-186-62-177-159-185 31-189-288q-4-8-2.5-16.5T138 238q7-5 15.5-3t13.5 9z"/></svg>