<?xml version="1.0" encoding="UTF-8" standalone="no"?>
<svg
   width="512"
   height="512"
   viewBox="0 0 512 512"
   fill="none"
   version="1.1"
   id="svg35"
   sodipodi:docname="logo-determined-ai-white.svg"
   inkscape:version="1.2 (dc2aeda, 2022-05-15)"
   inkscape:export-filename="dai_logo_4.png"
   inkscape:export-xdpi="96"
   inkscape:export-ydpi="96"
   xmlns:inkscape="http://www.inkscape.org/namespaces/inkscape"
   xmlns:sodipodi="http://sodipodi.sourceforge.net/DTD/sodipodi-0.dtd"
   xmlns="http://www.w3.org/2000/svg"
   xmlns:svg="http://www.w3.org/2000/svg">
  <sodipodi:namedview
     id="namedview37"
     pagecolor="#ffffff"
     bordercolor="#000000"
     borderopacity="0.25"
     inkscape:showpageshadow="2"
     inkscape:pageopacity="0.0"
     inkscape:pagecheckerboard="0"
     inkscape:deskcolor="#d1d1d1"
     showgrid="false"
     inkscape:zoom="0.64003305"
     inkscape:cx="-292.95362"
     inkscape:cy="532.00378"
     inkscape:window-width="1920"
     inkscape:window-height="955"
     inkscape:window-x="0"
     inkscape:window-y="25"
     inkscape:window-maximized="0"
     inkscape:current-layer="g28" />
  <g
     clip-path="url(#clipPath290)"
     id="g28"
     transform="matrix(6.6795197,0,0,6.6795197,104.20793,129.18031)">
    <path
       d="m 85.275,17.55 c 0.075,4.575 -2.7,9.175 -8.975,9.175 -2.2,0 -4.85,0 -7.05,0 V 8.72498 c 2.2,0 4.85,0 7.05,0 6.15,0 8.9,4.37502 8.975,8.82502 z M 72.6,23.45 h 3.7 c 4.075,0 5.7,-2.975 5.625,-5.925 -0.075,-2.8 -1.725,-5.6 -5.625,-5.6 h -3.7 z"
       fill="#ffffff"
       id="path2" />
    <path
       d="m 90.3,21.5 c 0.2,1.575 1.575,2.7 3.775,2.7 1.15,0 2.675,-0.425 3.4,-1.175 l 2,1.975 c -1.325,1.375 -3.525,2.05 -5.45,2.05 -4.375,0 -6.95,-2.7 -6.95,-6.75 0,-3.85 2.625,-6.625 6.725,-6.625 4.225,0 6.875,2.625 6.4,7.825 z m 6.875,-2.575 c -0.2,-1.65 -1.5,-2.475 -3.275,-2.475 -1.7,0 -3.075,0.825 -3.55,2.475 z"
       fill="#ffffff"
       id="path4" />
    <path
       d="m 106.275,10.5 v 3.6 h 3.5 v 2.7 h -3.525 v 5.45 c 0,1.2 0.675,1.8 1.65,1.8 0.5,0 1.05,-0.15 1.525,-0.375 l 0.875,2.675 c -0.9,0.35 -1.65,0.525 -2.6,0.55 -2.75,0.1 -4.55,-1.475 -4.55,-4.625 v -5.5 h -2.35 v -2.7 h 2.35 v -3.25 z"
       fill="#ffffff"
       id="path6" />
    <path
       d="m 114.6,21.5 c 0.2,1.575 1.575,2.7 3.775,2.7 1.15,0 2.675,-0.425 3.4,-1.175 l 2,1.975 c -1.325,1.375 -3.525,2.05 -5.45,2.05 -4.375,0 -6.95,-2.7 -6.95,-6.75 0,-3.85 2.625,-6.625 6.725,-6.625 4.225,0 6.875,2.625 6.4,7.825 z m 6.875,-2.575 c -0.2,-1.65 -1.5,-2.475 -3.275,-2.475 -1.7,0 -3.075,0.825 -3.55,2.475 z"
       fill="#ffffff"
       id="path8" />
    <path
       d="m 129.6,14.05 0.225,1.475 c 0.975,-1.575 2.275,-1.8 3.575,-1.8 1.3,0 2.575,0.525 3.25,1.2 l -1.4,2.725 c -0.65,-0.55 -1.225,-0.825 -2.25,-0.825 -1.65,0 -3.15,0.875 -3.15,3.2 V 26.7 h -3.125 V 14.05 Z"
       fill="#ffffff"
       id="path10" />
    <path
       d="M 146.075,26.725 V 19.95 c 0,-1.675 -0.875,-3.175 -2.6,-3.175 -1.7,0 -2.7,1.525 -2.7,3.175 v 6.775 h -3.125 v -12.7 h 2.9 l 0.225,1.55 c 0.675,-1.275 2.125,-1.75 3.35,-1.75 1.525,0 3.025,0.625 3.75,2.375 1.125,-1.8 2.6,-2.3 4.225,-2.3 3.6,0 5.375,2.2 5.375,6 v 6.825 H 154.35 V 19.9 c 0,-1.675 -0.7,-3.075 -2.4,-3.075 -1.7,0 -2.75,1.475 -2.75,3.125 v 6.775 z"
       fill="#ffffff"
       id="path12" />
    <path
       d="m 163.875,10.5 c 0,2.45 -3.7,2.45 -3.7,0 0,-2.45002 3.7,-2.45002 3.7,0 z M 160.45,14 v 12.725 h 3.125 V 14 Z"
       fill="#ffffff"
       id="path14" />
    <path
       d="M 175.55,26.725 V 20.1 c 0,-1.925 -1.05,-3.4 -3.05,-3.4 -1.925,0 -3.225,1.625 -3.225,3.55 v 6.475 h -3.1 v -12.7 h 2.8 l 0.2,1.725 c 1.275,-1.25 2.575,-1.9 4.15,-1.9 2.975,0 5.375,2.225 5.375,6.225 v 6.65 z"
       fill="#ffffff"
       id="path16" />
    <path
       d="m 183.85,21.5 c 0.2,1.575 1.575,2.7 3.775,2.7 1.15,0 2.675,-0.425 3.4,-1.175 l 2,1.975 c -1.325,1.375 -3.525,2.05 -5.45,2.05 -4.375,0 -6.95,-2.7 -6.95,-6.75 0,-3.85 2.625,-6.625 6.725,-6.625 4.225,0 6.875,2.625 6.4,7.825 z m 6.875,-2.575 c -0.2,-1.65 -1.5,-2.475 -3.275,-2.475 -1.7,0 -3.075,0.825 -3.55,2.475 z"
       fill="#ffffff"
       id="path18" />
    <path
       d="M 209.1,8.77502 V 26.725 h -2.925 l -0.2,-1.75 C 205,26.5 203.425,27 201.9,27 c -3.725,0 -6.525,-2.475 -6.525,-6.625 0,-4.375 2.75,-6.625 6.45,-6.625 1.325,0 3.425,0.725 4.15,2.025 V 8.77502 Z M 198.5,20.375 c 0,2.2 1.6,3.725 3.6,3.725 1.975,0 3.675,-1.45 3.675,-3.725 0,-2.2 -1.7,-3.7 -3.675,-3.7 -2,0 -3.6,1.425 -3.6,3.7 z"
       fill="#ffffff"
       id="path20" />
    <path
       d="m 230.35,23.325 h -9.4 l -1.55,3.4 h -3.675 L 223.8,8.72498 h 3.7 l 8.075,18.00002 h -3.7 z m -4.7,-10.825 -3.35,7.675 h 6.675 z"
       fill="#f67b21"
       id="path22" />
    <path
       d="M 240.025,8.72498 H 236.65 V 26.725 h 3.375 z"
       fill="#f67b21"
       id="path24" />
    <path
       fill-rule="evenodd"
       clip-rule="evenodd"
       d="m 1.0626761,23.164899 c 1.8666218,-0.572908 3.850969,0.44868 4.4238755,2.315292 0.5729092,1.866621 -0.4486775,3.850947 -2.3091946,4.4481 -1.8666217,0.572909 -3.85096173,-0.448651 -4.4238713,-2.315272 -0.6032541,-1.884764 0.44256868,-3.875211 2.3091904,-4.44812 z M 6.8583595,18.741592 C 7.8886453,18.430731 8.956683,18.986867 9.2917872,20.011056 9.6026488,21.041343 9.0526087,22.133624 8.0223193,22.444484 6.9920326,22.755346 5.923995,22.1992 5.5888905,21.175016 c -0.329008,-0.99994 0.2452434,-2.098323 1.269469,-2.433424 z m 26.6974825,4.056649 c 1.030288,-0.310861 2.098325,0.245284 2.433429,1.269468 0.310861,1.030287 -0.23918,2.122568 -1.269469,2.433429 -1.030286,0.310861 -2.098322,-0.245284 -2.433429,-1.269469 -0.31086,-1.030285 0.245246,-2.098327 1.269469,-2.433428 z M -5.5278382,38.770354 c 1.5272063,-0.487484 3.1899564,0.38299 3.6531943,1.916325 0.4935859,1.55145 -0.3830199,3.189952 -1.9163251,3.653194 -1.5272062,0.487484 -3.189957,-0.38299 -3.6531949,-1.916325 -0.4632409,-1.533308 0.3891249,-3.165708 1.9163257,-3.653194 z m 8.7265317,4.66109 c 1.0302862,-0.31086 2.098328,0.245245 2.4334279,1.269469 0.310862,1.030286 -0.2391789,2.122567 -1.2694683,2.433428 C 3.3323667,47.445203 2.2643255,46.889097 1.929225,45.864874 1.5941229,44.840687 2.1744692,43.766545 3.1986935,43.431444 Z m 25.7236595,1.723803 c 1.581795,-0.475445 3.274888,0.413196 3.756434,2.019239 0.50579,1.599938 -0.400986,3.323377 -2.000935,3.829167 -1.599939,0.505789 -3.323377,-0.400987 -3.829166,-2.000935 -0.231539,-0.715115 -0.166049,-1.479208 0.111861,-2.116302 -0.68111,-1.27224 -1.616539,-2.325791 -2.721512,-3.233554 -0.115088,0.05482 -0.236342,0.08525 -0.351454,0.140017 -1.981739,0.627661 -4.069329,-0.496804 -4.690885,-2.454328 -0.182887,-0.624241 -0.20811,-1.236603 -0.09991,-1.830987 -1.323495,-1.059004 -2.816371,-1.86914 -4.587645,-2.351412 l -0.03035,-0.01814 C 14.133599,37.40534 13.703474,37.642496 13.24894,37.78267 11.2672,38.410333 9.1311277,37.298037 8.5216075,35.285957 7.8878442,33.279974 9.0062411,31.168144 10.987975,30.540483 c 1.98174,-0.627661 4.117814,0.484633 4.727333,2.496713 0.164587,0.551508 0.201845,1.109283 0.154172,1.636875 1.21464,1.241076 2.725822,2.123944 4.400282,2.733702 0.375374,-0.35227 0.85399,-0.601625 1.375153,-0.784351 0.763601,-0.243745 1.545837,-0.208598 2.243462,0.0025 1.45911,-1.372635 2.66919,-3.017727 3.460205,-5.098722 -0.04867,-0.09086 -0.07308,-0.187836 -0.09747,-0.284822 -0.481383,-1.502962 0.358938,-3.080774 1.861898,-3.562158 1.502962,-0.481383 3.080773,0.358937 3.562156,1.861898 0.481383,1.502962 -0.358939,3.080773 -1.861897,3.562156 -0.3818,0.121873 -0.78801,0.146767 -1.157935,0.110971 l -0.01814,0.03035 c -1.592534,1.354653 -2.796513,3.023991 -3.757726,4.838466 0.206648,0.308903 0.364802,0.630017 0.486674,1.011818 0.341205,1.048428 0.161089,2.176505 -0.364993,3.056534 0.692985,1.114572 1.695047,2.125574 2.92124,3.002829 z m -17.961122,-4.68288 c 1.67267,-0.524095 3.426452,0.400836 3.950548,2.073503 0.524095,1.67267 -0.394731,3.450697 -2.073503,3.95055 C 11.165606,47.020515 9.411823,46.095583 8.8877265,44.422915 8.7597511,44.016872 8.7106146,43.616764 8.758451,43.19225 7.8711856,41.920338 6.5300382,41.200913 4.940837,40.827495 4.6561763,41.02804 4.3350649,41.186193 4.0017501,41.295859 2.1593727,41.862666 0.17502965,40.841075 -0.39788106,38.974466 -0.96468902,37.132089 0.0629923,35.171987 1.8992686,34.580937 c 1.842377,-0.566808 3.8267199,0.454786 4.3996317,2.321392 0.1584827,0.527264 0.1835395,1.036551 0.1297649,1.539898 0.9720379,1.199018 2.2284124,1.991336 3.7872678,2.346614 0.02428,-0.0061 0.03035,0.01814 0.05459,0.01206 0.22414,-0.13374 0.454378,-0.243242 0.690711,-0.328513 z m 20.342467,-3.98548 c 0.333313,-0.109666 0.684931,-0.146603 1.000266,-0.122846 l 0.01814,-0.03035 c 1.714079,-1.179008 2.779022,-2.581335 3.109892,-4.237166 l 0.01814,-0.03035 c -0.250333,-1.09708 0.366341,-2.23191 1.463258,-2.585321 1.145403,-0.365613 2.36517,0.281238 2.730783,1.426647 0.365614,1.145405 -0.281237,2.365171 -1.426647,2.730785 -0.169705,0.04272 -0.315175,0.07932 -0.490981,0.09779 -1.477742,1.093747 -2.536582,2.520318 -3.121932,4.291755 0.01831,0.07273 0.06085,0.139359 0.07916,0.212095 0.432732,1.412087 -0.347096,2.923102 -1.753045,3.380082 -1.412088,0.432733 -2.923102,-0.347097 -3.386184,-1.777289 -0.432733,-1.412087 0.353122,-2.898866 1.759146,-3.355839 z m -20.81134,-12.62747 c 0.430291,-0.13407 0.836498,-0.158971 1.242868,-0.08079 l 0.02423,-0.0062 c 1.193405,-0.687049 2.107432,-1.664701 2.596459,-2.999421 -0.06086,-0.13936 -0.127812,-0.302968 -0.170525,-0.472675 -0.572908,-1.86662 0.454784,-3.826716 2.291048,-4.417769 1.842379,-0.566807 3.826722,0.454767 4.399631,2.321389 0.572908,1.866626 -0.454787,3.826726 -2.291049,4.417779 -0.715115,0.231539 -1.442759,0.208434 -2.091896,-0.01488 -1.205771,0.535482 -2.095555,1.507034 -2.590357,3.023665 l 0.0061,0.02428 c 0.438894,1.436286 -0.340894,2.947304 -1.771127,3.410382 -1.436332,0.438834 -2.9473505,-0.340953 -3.3861779,-1.77726 -0.4934225,-1.448373 0.3106065,-2.965502 1.7408399,-3.428581 z m 15.73896,-4.863461 c 1.436331,-0.438834 2.94735,0.340957 3.386183,1.777289 0.438835,1.436332 -0.340958,2.94733 -1.771191,3.410409 -0.430291,0.13407 -0.836498,0.15897 -1.267112,0.08689 l -0.01814,0.03035 c -1.344969,0.699417 -2.252734,1.804389 -2.844675,3.242349 0.06086,0.13936 0.127811,0.302968 0.164422,0.448432 0.566806,1.842378 -0.442735,3.772133 -2.279008,4.363185 -1.818133,0.560706 -3.772132,-0.442735 -4.33894,-2.285109 -0.566809,-1.842377 0.442735,-3.772132 2.279006,-4.363184 0.690872,-0.225436 1.394273,-0.196232 2.037306,0.0028 1.272076,-0.784188 2.234434,-1.877102 2.84468,-3.24233 l -0.01221,-0.04848 c -0.396447,-1.47279 0.38334,-2.983809 1.819676,-3.422642 z M -5.6150586,29.614789 c 1.5272063,-0.487485 3.1899529,0.382989 3.6531866,1.916297 0.4935872,1.55145 -0.3830196,3.189952 -1.9163243,3.653192 -1.5272068,0.487486 -3.1899563,-0.382989 -3.6531942,-1.916324 -0.4874802,-1.527186 0.3587784,-3.183831 1.9163319,-3.653165 z"
       fill="#f67b21"
       id="path26"
       inkscape:transform-center-x="-3.1248386"
       inkscape:transform-center-y="-9.3745159" />
  </g>
  <defs
     id="defs33">
    <clipPath
       id="clip0">
      <path
         d="M 0,0 H 240 V 38 H 0 Z"
         fill="#ffffff"
         id="path30" />
    </clipPath>
    <clipPath
       clipPathUnits="userSpaceOnUse"
       id="clipPath290">
      <rect
         style="fill:#000000"
         id="rect292"
         width="167.9807"
         height="91.134354"
         x="-77.61866"
         y="-28.962191" />
    </clipPath>
  </defs>
</svg>
