<?xml version="1.0" standalone="no"?>
<!DOCTYPE svg PUBLIC "-//W3C//DTD SVG 1.1//EN" "http://www.w3.org/Graphics/SVG/1.1/DTD/svg11.dtd" >
<svg xmlns="http://www.w3.org/2000/svg" xmlns:xlink="http://www.w3.org/1999/xlink" version="1.1">
<metadata>
Created by FontForge 20190801 at Wed Feb 10 18:44:53 2016
 By Jimmy Wärting
Copyright 2015 Dalton Maag Ltd. Modification of this file requires prior written permission from Dalton Maag Ltd.
</metadata>
<defs>
<font id="-" horiz-adv-x="386" >
  <font-face 
    font-family="-"
    font-weight="700"
    font-style="italic"
    font-stretch="normal"
    units-per-em="1000"
    panose-1="2 11 7 2 2 2 4 9 2 3"
    ascent="750"
    descent="-250"
    x-height="509"
    cap-height="760"
    bbox="-284 -290 1258 1084"
    underline-thickness="76"
    underline-position="-168"
    slope="-11"
    unicode-range="U+0020-2122"
  />
<missing-glyph horiz-adv-x="500" 
d="M50 750h400v-750h-400v750zM400 50v650h-300v-650h300z" />
    <glyph glyph-name=".notdef" horiz-adv-x="500" 
d="M50 750h400v-750h-400v750zM400 50v650h-300v-650h300z" />
    <glyph glyph-name="space" unicode=" " horiz-adv-x="215" 
 />
    <glyph glyph-name="space" unicode="&#xa0;" horiz-adv-x="215" 
 />
    <glyph glyph-name="period" unicode="." horiz-adv-x="300" 
d="M107 -6q-34 0 -55.5 20.5t-21.5 53.5q0 39 27 64.5t68 25.5q34 0 55.5 -20.5t21.5 -52.5q0 -40 -26.5 -65.5t-68.5 -25.5z" />
    <glyph glyph-name="colon" unicode=":" horiz-adv-x="300" 
d="M107 -6q-34 0 -55.5 20.5t-21.5 53.5q0 39 27 64.5t68 25.5q34 0 55.5 -20.5t21.5 -52.5q0 -40 -26.5 -65.5t-68.5 -25.5zM170 350q-34 0 -55.5 20.5t-21.5 53.5q0 39 27 64.5t68 25.5q34 0 55.5 -20.5t21.5 -52.5q0 -40 -26.5 -65.5t-68.5 -25.5z" />
    <glyph glyph-name="comma" unicode="," horiz-adv-x="300" 
d="M-76 -174q52 65 88 151.5t47 171.5h136q-11 -93 -52.5 -180t-102.5 -143h-116z" />
    <glyph glyph-name="semicolon" unicode=";" horiz-adv-x="300" 
d="M-76 -174q52 65 88 151.5t47 171.5h136q-11 -93 -52.5 -180t-102.5 -143h-116zM170 350q-34 0 -55.5 20.5t-21.5 53.5q0 39 27 64.5t68 25.5q34 0 55.5 -20.5t21.5 -52.5q0 -40 -26.5 -65.5t-68.5 -25.5z" />
    <glyph glyph-name="question" unicode="?" horiz-adv-x="514" 
d="M166 254q1 55 17.5 94t43 66.5t56 48.5t56 41t43 43.5t17.5 56.5q0 33 -25.5 52.5t-68.5 19.5q-46 0 -95.5 -22t-89.5 -60l-11 127q38 36 96 57t122 21q99 0 160 -50t61 -134q-1 -52 -18.5 -89t-45.5 -64.5t-60 -50t-60.5 -45t-47.5 -49.5t-22 -63h-128zM193 -6
q-34 0 -55.5 20.5t-21.5 53.5q0 39 27 64.5t68 25.5q34 0 55.5 -20.5t21.5 -52.5q0 -40 -26.5 -65.5t-68.5 -25.5z" />
    <glyph glyph-name="exclam" unicode="!" horiz-adv-x="350" 
d="M207 790h145l-114 -536h-127zM131 -6q-34 0 -55.5 20.5t-21.5 53.5q0 39 27 64.5t68 25.5q34 0 55.5 -20.5t21.5 -52.5q0 -40 -26.5 -65.5t-68.5 -25.5z" />
    <glyph glyph-name="questiondown" unicode="&#xbf;" horiz-adv-x="514" 
d="M188 -290q-99 0 -160 50t-61 134q1 52 18.5 89t45.5 64.5t60 50t60.5 45t47.5 49.5t22 63h128q-1 -55 -17.5 -94t-43 -66.5t-56 -48.5t-56 -41t-43 -43.5t-17.5 -56.5q0 -33 25.5 -52.5t68.5 -19.5q46 0 95.5 22t89.5 60l11 -127q-38 -36 -96 -57t-122 -21zM322 515
q34 0 55.5 -20.5t21.5 -53.5q0 -39 -27 -64.5t-68 -25.5q-34 0 -55.5 20.5t-21.5 52.5q0 40 26.5 65.5t68.5 25.5z" />
    <glyph glyph-name="exclamdown" unicode="&#xa1;" horiz-adv-x="350" 
d="M112 255h127l-96 -536h-145zM219 515q34 0 55.5 -20.5t21.5 -53.5q0 -39 -27 -64.5t-68 -25.5q-34 0 -55.5 20.5t-21.5 52.5q0 40 26.5 65.5t68.5 25.5z" />
    <glyph glyph-name="quotesingle" unicode="'" horiz-adv-x="224" 
d="M142 760h136l-74 -305h-110z" />
    <glyph glyph-name="quotedbl" unicode="&#x22;" horiz-adv-x="430" 
d="M142 760h136l-74 -305h-110zM348 760h136l-74 -305h-110z" />
    <glyph glyph-name="ellipsis" unicode="&#x2026;" horiz-adv-x="1000" 
d="M122 -6q-34 0 -55.5 20.5t-21.5 53.5q0 39 27 64.5t68 25.5q34 0 55.5 -20.5t21.5 -52.5q0 -40 -26.5 -65.5t-68.5 -25.5zM455 -6q-34 0 -55.5 20.5t-21.5 53.5q0 39 27 64.5t68 25.5q34 0 55.5 -20.5t21.5 -52.5q0 -40 -26.5 -65.5t-68.5 -25.5zM790 -6
q-34 0 -55.5 20.5t-21.5 53.5q0 39 27 64.5t68 25.5q34 0 55.5 -20.5t21.5 -52.5q0 -40 -26.5 -65.5t-68.5 -25.5z" />
    <glyph glyph-name="uni200B" horiz-adv-x="0" 
 />
    <glyph glyph-name="zero" unicode="0" horiz-adv-x="620" 
d="M290 111q54 0 98.5 63t64.5 169q16 83 16 135q0 75 -24 115t-69 40q-54 0 -98.5 -63t-64.5 -169q-16 -83 -16 -135q0 -75 24 -115t69 -40zM285 -16q-112 0 -174.5 74t-62.5 205q0 71 14 141q32 167 117 261.5t202 94.5q112 0 174.5 -74t62.5 -205q0 -71 -14 -141
q-32 -167 -117 -261.5t-202 -94.5z" />
    <glyph glyph-name="one" unicode="1" horiz-adv-x="620" 
d="M350 593l-205 -81l6 133l249 99h121l-145 -744h-142z" />
    <glyph glyph-name="two" unicode="2" horiz-adv-x="620" 
d="M21 0l20 110q53 40 117.5 94.5t117.5 104.5q83 79 118 132t35 99t-29 72t-82 26q-94 0 -180 -82l-11 127q37 35 94.5 56t120.5 21q107 0 171 -55.5t64 -148.5q0 -65 -36.5 -129t-124.5 -152q-75 -77 -170 -149h287l-25 -126h-487z" />
    <glyph glyph-name="three" unicode="3" horiz-adv-x="620" 
d="M239 -16q-59 0 -117.5 15t-95.5 40l26 118q39 -24 89.5 -38.5t95.5 -14.5q73 0 118 37t45 98q0 49 -33 76t-94 27q-32 0 -59 -8l-28 78l222 209h-274l25 123h452l-20 -106l-215 -202q77 -11 122.5 -64.5t45.5 -133.5q0 -73 -37 -130.5t-106.5 -90.5t-161.5 -33z" />
    <glyph glyph-name="four" unicode="4" horiz-adv-x="620" 
d="M348 167h-331l21 114l401 463h156l-89 -461h91l-22 -116h-92l-33 -167h-135zM370 283l54 277l-239 -277h185z" />
    <glyph glyph-name="five" unicode="5" horiz-adv-x="620" 
d="M237 -16q-62 0 -119 15t-94 41l27 119q38 -26 87.5 -40.5t96.5 -14.5q76 0 121.5 38t45.5 102q0 53 -41.5 83.5t-114.5 30.5q-79 0 -139 -17l93 403h392l-25 -124h-264l-35 -152q20 2 33 2q113 0 179.5 -58.5t66.5 -157.5q0 -79 -37.5 -140t-108 -95.5t-164.5 -34.5z" />
    <glyph glyph-name="six" unicode="6" horiz-adv-x="620" 
d="M297 -16q-115 0 -181.5 64t-66.5 175q0 79 41.5 171.5t119.5 184.5t182 167l183 -5q-99 -68 -184 -150t-134 -156q41 30 111 30q92 0 152 -59.5t60 -150.5q0 -75 -35.5 -136.5t-100.5 -98t-147 -36.5zM299 101q60 0 100 40.5t40 101.5q0 51 -31 82t-81 31
q-59 0 -98.5 -41t-39.5 -102q0 -52 30 -82t80 -30z" />
    <glyph glyph-name="seven" unicode="7" horiz-adv-x="620" 
d="M77 3l362 609h-334l27 132h492l-23 -117l-366 -629z" />
    <glyph glyph-name="eight" unicode="8" horiz-adv-x="620" 
d="M287 -16q-120 0 -188.5 53.5t-68.5 146.5q0 74 44 133.5t114 81.5q-36 23 -53.5 56.5t-17.5 80.5q0 62 33 113t94.5 81t139.5 30q69 0 122 -22.5t83 -65t30 -99.5q0 -65 -35 -117t-96 -78q38 -23 61.5 -63.5t23.5 -86.5q0 -69 -35.5 -124.5t-100.5 -87.5t-150 -32z
M289 101q62 0 101 36t39 92q0 46 -31 72.5t-84 26.5q-61 0 -100.5 -36t-39.5 -93q0 -46 31 -72t84 -26zM359 441q53 0 89 33.5t36 82.5q0 41 -29.5 66t-78.5 25q-53 0 -88.5 -33t-35.5 -81q0 -43 29 -68t78 -25z" />
    <glyph glyph-name="nine" unicode="9" horiz-adv-x="620" 
d="M84 3q104 73 188.5 154t129.5 152q-40 -30 -111 -30q-58 0 -106 26t-76.5 74t-28.5 110q0 55 19.5 103.5t56.5 86t90 59.5t117 22q114 0 180.5 -64t66.5 -175q0 -79 -41.5 -171.5t-119.5 -184.5t-182 -167zM332 388q59 0 99 41t40 102q0 51 -30 81.5t-81 30.5
q-60 0 -100 -40.5t-40 -101.5q0 -51 31 -82t81 -31z" />
    <glyph glyph-name="zero.pnum" horiz-adv-x="642" 
d="M301 111q56 0 101.5 62.5t66.5 169.5q15 78 15 135q0 76 -25.5 115.5t-74.5 39.5q-57 0 -102.5 -62.5t-65.5 -169.5q-15 -78 -15 -135q0 -76 25.5 -115.5t74.5 -39.5zM291 -16q-113 0 -176 73t-63 206q0 63 14 141q21 110 66.5 190t112 123t149.5 43q113 0 176 -73
t63 -206q0 -63 -14 -141q-21 -110 -66.5 -190t-112 -123t-149.5 -43z" />
    <glyph glyph-name="one.pnum" horiz-adv-x="501" 
d="M311 593l-205 -81l6 133l249 99h121l-145 -744h-142z" />
    <glyph glyph-name="two.pnum" horiz-adv-x="647" 
d="M38 0l20 110q53 40 117.5 94.5t117.5 104.5q83 79 118 132t35 99t-29 72t-82 26q-94 0 -180 -82l-11 127q37 35 94.5 56t120.5 21q107 0 171 -55.5t64 -148.5q0 -65 -36.5 -129t-124.5 -152q-75 -77 -170 -149h287l-25 -126h-487z" />
    <glyph glyph-name="three.pnum" horiz-adv-x="599" 
d="M221 -16q-59 0 -117.5 15t-95.5 40l26 118q39 -24 89.5 -38.5t95.5 -14.5q73 0 118 37t45 98q0 49 -33 76t-94 27q-32 0 -59 -8l-28 78l222 209h-274l25 123h452l-20 -106l-215 -202q77 -11 122.5 -64.5t45.5 -133.5q0 -73 -37 -130.5t-106.5 -90.5t-161.5 -33z" />
    <glyph glyph-name="four.pnum" horiz-adv-x="641" 
d="M352 167h-331l21 114l401 463h156l-89 -461h91l-22 -116h-92l-33 -167h-135zM374 283l54 277l-239 -277h185z" />
    <glyph glyph-name="five.pnum" horiz-adv-x="595" 
d="M223 -16q-62 0 -119 15t-94 41l27 119q38 -26 87.5 -40.5t96.5 -14.5q76 0 121.5 38t45.5 102q0 53 -41.5 83.5t-114.5 30.5q-79 0 -139 -17l93 403h392l-25 -124h-264l-35 -152q20 2 33 2q113 0 179.5 -58.5t66.5 -157.5q0 -79 -37.5 -140t-108 -95.5t-164.5 -34.5z" />
    <glyph glyph-name="six.pnum" horiz-adv-x="633" 
d="M300 -16q-115 0 -181.5 64t-66.5 175q0 79 41.5 171.5t119.5 184.5t182 167l183 -5q-99 -68 -184 -150t-134 -156q41 30 111 30q92 0 152 -59.5t60 -150.5q0 -75 -35.5 -136.5t-100.5 -98t-147 -36.5zM302 101q60 0 100 40.5t40 101.5q0 51 -31 82t-81 31
q-59 0 -98.5 -41t-39.5 -102q0 -52 30 -82t80 -30z" />
    <glyph glyph-name="seven.pnum" horiz-adv-x="582" 
d="M89 3l362 609h-334l27 132h492l-23 -117l-366 -629z" />
    <glyph glyph-name="eight.pnum" horiz-adv-x="632" 
d="M293 -16q-120 0 -188.5 53.5t-68.5 146.5q0 74 44 133.5t114 81.5q-36 23 -53.5 56.5t-17.5 80.5q0 62 33 113t94.5 81t139.5 30q69 0 122 -22.5t83 -65t30 -99.5q0 -65 -35 -117t-96 -78q38 -23 61.5 -63.5t23.5 -86.5q0 -69 -35.5 -124.5t-100.5 -87.5t-150 -32z
M295 101q62 0 101 36t39 92q0 46 -31 72.5t-84 26.5q-61 0 -100.5 -36t-39.5 -93q0 -46 31 -72t84 -26zM365 441q53 0 89 33.5t36 82.5q0 41 -29.5 66t-78.5 25q-53 0 -88.5 -33t-35.5 -81q0 -43 29 -68t78 -25z" />
    <glyph glyph-name="nine.pnum" horiz-adv-x="633" 
d="M100 3q104 73 188.5 154t129.5 152q-40 -30 -111 -30q-58 0 -106 26t-76.5 74t-28.5 110q0 55 19.5 103.5t56.5 86t90 59.5t117 22q114 0 180.5 -64t66.5 -175q0 -79 -41.5 -171.5t-119.5 -184.5t-182 -167zM348 388q59 0 99 41t40 102q0 51 -30 81.5t-81 30.5
q-60 0 -100 -40.5t-40 -101.5q0 -51 31 -82t81 -31z" />
    <glyph glyph-name="uni2080" 
d="M137 -135q-72 0 -114.5 46t-42.5 123q0 33 7 64q19 91 71.5 143t125.5 52q71 0 114 -46t43 -123q0 -35 -7 -64q-20 -91 -72.5 -143t-124.5 -52zM144 -45q28 0 50 29t34 80q7 33 7 58q0 38 -15 59.5t-43 21.5q-29 0 -52 -29.5t-33 -79.5q-6 -31 -6 -58q0 -38 15 -59.5
t43 -21.5z" />
    <glyph glyph-name="uni2081" 
d="M157 169l-112 -47l3 100l142 61h95l-80 -408h-105z" />
    <glyph glyph-name="uni2082" 
d="M-24 -125l16 85q85 58 134 97q42 35 60 60t18 48q0 19 -14 29.5t-38 10.5q-26 0 -55.5 -13t-51.5 -34l-13 86q24 22 61.5 35.5t76.5 13.5q62 0 101 -32t39 -83q0 -41 -21 -77.5t-69 -77.5q-39 -32 -83 -60h158l-17 -88h-302z" />
    <glyph glyph-name="uni2083" 
d="M108 -135q-37 0 -75 10t-57 26l19 83q24 -16 54 -25t58 -9q36 0 57.5 16t21.5 42q0 46 -64 46q-15 0 -35 -6l-19 54l113 96h-152l17 85h278l-15 -79l-103 -86q40 -10 62.5 -38.5t22.5 -70.5q0 -65 -50.5 -104.5t-132.5 -39.5z" />
    <glyph glyph-name="uni2084" 
d="M158 -42h-193l15 87l224 238h110l-47 -244h53l-16 -81h-52l-16 -83h-94zM174 39l24 125l-118 -125h94z" />
    <glyph glyph-name="uni2085" 
d="M109 -135q-37 0 -73 9.5t-56 24.5l23 85q46 -30 110 -30q35 0 57.5 14.5t22.5 37.5t-21.5 35.5t-60.5 12.5q-50 0 -86 -9l54 238h242l-17 -85h-152l-13 -58h14q67 0 104.5 -33t37.5 -91q0 -70 -50 -110.5t-136 -40.5z" />
    <glyph glyph-name="uni2086" 
d="M136 -135q-71 0 -111.5 37.5t-40.5 103.5q0 69 53 145.5t141 134.5l132 -4q-56 -35 -103 -75t-77 -78q22 14 53 14q57 0 92 -33.5t35 -87.5q0 -69 -49 -113t-125 -44zM138 -53q31 0 51.5 20t20.5 49q0 24 -15.5 38.5t-40.5 14.5q-31 0 -51.5 -19.5t-20.5 -49.5
q0 -24 15.5 -38.5t40.5 -14.5z" />
    <glyph glyph-name="uni2087" 
d="M17 -123l197 313h-182l18 93h299l-17 -84l-198 -326z" />
    <glyph glyph-name="uni2088" 
d="M134 -135q-73 0 -114.5 31t-41.5 84q0 40 24.5 71.5t63.5 42.5q-40 23 -40 75q0 55 45 89.5t116 34.5q65 0 104.5 -30t39.5 -78q0 -35 -18 -62t-51 -40q22 -12 34 -34t12 -50q0 -61 -47.5 -97.5t-126.5 -36.5zM138 -59q30 0 49.5 17.5t19.5 44.5q0 22 -16 34.5t-43 12.5
q-30 0 -49 -17t-19 -43q0 -22 16 -35.5t42 -13.5zM173 120q26 0 43.5 15.5t17.5 39.5q0 21 -13.5 32.5t-38.5 11.5q-26 0 -43.5 -15.5t-17.5 -39.5q0 -21 13.5 -32.5t38.5 -11.5z" />
    <glyph glyph-name="uni2089" 
d="M8 -124q122 77 180 152q-21 -13 -52 -13q-57 0 -92 33t-35 88q0 69 48.5 113t124.5 44q71 0 111.5 -37t40.5 -104q0 -69 -53 -145.5t-141 -134.5zM164 89q31 0 51.5 19.5t20.5 49.5q0 24 -15 38.5t-40 14.5q-31 0 -52 -19.5t-21 -49.5q0 -24 15.5 -38.5t40.5 -14.5z" />
    <glyph glyph-name="uni2070" 
d="M249 446q-72 0 -114.5 46t-42.5 123q0 33 7 64q19 91 71.5 143t125.5 52q71 0 114 -46t43 -123q0 -35 -7 -64q-20 -91 -72.5 -143t-124.5 -52zM256 536q28 0 50 29t34 80q7 33 7 58q0 38 -15 59.5t-43 21.5q-29 0 -52 -29.5t-33 -79.5q-6 -31 -6 -58q0 -38 15 -59.5
t43 -21.5z" />
    <glyph glyph-name="uni00B9" unicode="&#xb9;" 
d="M269 750l-112 -47l3 100l142 61h95l-80 -408h-105z" />
    <glyph glyph-name="uni00B2" unicode="&#xb2;" 
d="M88 456l16 85q85 58 134 97q42 35 60 60t18 48q0 19 -14 29.5t-38 10.5q-26 0 -55.5 -13t-51.5 -34l-13 86q24 22 61.5 35.5t76.5 13.5q62 0 101 -32t39 -83q0 -41 -21 -77.5t-69 -77.5q-39 -32 -83 -60h158l-17 -88h-302z" />
    <glyph glyph-name="uni00B3" unicode="&#xb3;" 
d="M220 446q-37 0 -75 10t-57 26l19 83q24 -16 54 -25t58 -9q36 0 57.5 16t21.5 42q0 46 -64 46q-15 0 -35 -6l-19 54l113 96h-152l17 85h278l-15 -79l-103 -86q40 -10 62.5 -38.5t22.5 -70.5q0 -65 -50.5 -104.5t-132.5 -39.5z" />
    <glyph glyph-name="uni2074" 
d="M270 539h-193l15 87l224 238h110l-47 -244h53l-16 -81h-52l-16 -83h-94zM286 620l24 125l-118 -125h94z" />
    <glyph glyph-name="uni2075" 
d="M221 446q-37 0 -73 9.5t-56 24.5l23 85q46 -30 110 -30q35 0 57.5 14.5t22.5 37.5t-21.5 35.5t-60.5 12.5q-50 0 -86 -9l54 238h242l-17 -85h-152l-13 -58h14q67 0 104.5 -33t37.5 -91q0 -70 -50 -110.5t-136 -40.5z" />
    <glyph glyph-name="uni2076" 
d="M248 446q-71 0 -111.5 37.5t-40.5 103.5q0 69 53 145.5t141 134.5l132 -4q-56 -35 -103 -75t-77 -78q22 14 53 14q57 0 92 -33.5t35 -87.5q0 -69 -49 -113t-125 -44zM250 528q31 0 51.5 20t20.5 49q0 24 -15.5 38.5t-40.5 14.5q-31 0 -51.5 -19.5t-20.5 -49.5
q0 -24 15.5 -38.5t40.5 -14.5z" />
    <glyph glyph-name="uni2077" 
d="M129 458l197 313h-182l18 93h299l-17 -84l-198 -326z" />
    <glyph glyph-name="uni2078" 
d="M246 446q-73 0 -114.5 31t-41.5 84q0 40 24.5 71.5t63.5 42.5q-40 23 -40 75q0 55 45 89.5t116 34.5q65 0 104.5 -30t39.5 -78q0 -35 -18 -62t-51 -40q22 -12 34 -34t12 -50q0 -61 -47.5 -97.5t-126.5 -36.5zM250 522q30 0 49.5 17.5t19.5 44.5q0 22 -16 34.5t-43 12.5
q-30 0 -49 -17t-19 -43q0 -22 16 -35.5t42 -13.5zM285 701q26 0 43.5 15.5t17.5 39.5q0 21 -13.5 32.5t-38.5 11.5q-26 0 -43.5 -15.5t-17.5 -39.5q0 -21 13.5 -32.5t38.5 -11.5z" />
    <glyph glyph-name="uni2079" 
d="M120 457q122 77 180 152q-21 -13 -52 -13q-57 0 -92 33t-35 88q0 69 48.5 113t124.5 44q71 0 111.5 -37t40.5 -104q0 -69 -53 -145.5t-141 -134.5zM276 670q31 0 51.5 19.5t20.5 49.5q0 24 -15 38.5t-40 14.5q-31 0 -52 -19.5t-21 -49.5q0 -24 15.5 -38.5t40.5 -14.5z
" />
    <glyph glyph-name="zero.dnom" 
d="M160 -10q-72 0 -114.5 46t-42.5 123q0 33 7 64q19 91 71.5 143t125.5 52q71 0 114 -46t43 -123q0 -35 -7 -64q-20 -91 -72.5 -143t-124.5 -52zM167 80q28 0 50 29t34 80q7 33 7 58q0 38 -15 59.5t-43 21.5q-29 0 -52 -29.5t-33 -79.5q-6 -31 -6 -58q0 -38 15 -59.5
t43 -21.5z" />
    <glyph glyph-name="one.dnom" 
d="M181 294l-112 -47l3 100l142 61h95l-80 -408h-105z" />
    <glyph glyph-name="two.dnom" 
d="M-1 0l16 85q85 58 134 97q42 35 60 60t18 48q0 19 -14 29.5t-38 10.5q-26 0 -55.5 -13t-51.5 -34l-13 86q24 22 61.5 35.5t76.5 13.5q62 0 101 -32t39 -83q0 -41 -21 -77.5t-69 -77.5q-39 -32 -83 -60h158l-17 -88h-302z" />
    <glyph glyph-name="three.dnom" 
d="M131 -10q-37 0 -75 10t-57 26l19 83q24 -16 54 -25t58 -9q36 0 57.5 16t21.5 42q0 46 -64 46q-15 0 -35 -6l-19 54l113 96h-152l17 85h278l-15 -79l-103 -86q40 -10 62.5 -38.5t22.5 -70.5q0 -65 -50.5 -104.5t-132.5 -39.5z" />
    <glyph glyph-name="four.dnom" 
d="M182 83h-193l15 87l224 238h110l-47 -244h53l-16 -81h-52l-16 -83h-94zM198 164l24 125l-118 -125h94z" />
    <glyph glyph-name="five.dnom" 
d="M133 -10q-37 0 -73 9.5t-56 24.5l23 85q46 -30 110 -30q35 0 57.5 14.5t22.5 37.5t-21.5 35.5t-60.5 12.5q-50 0 -86 -9l54 238h242l-17 -85h-152l-13 -58h14q67 0 104.5 -33t37.5 -91q0 -70 -50 -110.5t-136 -40.5z" />
    <glyph glyph-name="six.dnom" 
d="M160 -10q-71 0 -111.5 37.5t-40.5 103.5q0 69 53 145.5t141 134.5l132 -4q-56 -35 -103 -75t-77 -78q22 14 53 14q57 0 92 -33.5t35 -87.5q0 -69 -49 -113t-125 -44zM162 72q31 0 51.5 20t20.5 49q0 24 -15.5 38.5t-40.5 14.5q-31 0 -51.5 -19.5t-20.5 -49.5
q0 -24 15.5 -38.5t40.5 -14.5z" />
    <glyph glyph-name="seven.dnom" 
d="M40 2l197 313h-182l18 93h299l-17 -84l-198 -326z" />
    <glyph glyph-name="eight.dnom" 
d="M157 -10q-73 0 -114.5 31t-41.5 84q0 40 24.5 71.5t63.5 42.5q-40 23 -40 75q0 55 45 89.5t116 34.5q65 0 104.5 -30t39.5 -78q0 -35 -18 -62t-51 -40q22 -12 34 -34t12 -50q0 -61 -47.5 -97.5t-126.5 -36.5zM161 66q30 0 49.5 17.5t19.5 44.5q0 22 -16 34.5t-43 12.5
q-30 0 -49 -17t-19 -43q0 -22 16 -35.5t42 -13.5zM196 245q26 0 43.5 15.5t17.5 39.5q0 21 -13.5 32.5t-38.5 11.5q-26 0 -43.5 -15.5t-17.5 -39.5q0 -21 13.5 -32.5t38.5 -11.5z" />
    <glyph glyph-name="nine.dnom" 
d="M32 1q122 77 180 152q-21 -13 -52 -13q-57 0 -92 33t-35 88q0 69 48.5 113t124.5 44q71 0 111.5 -37t40.5 -104q0 -69 -53 -145.5t-141 -134.5zM188 214q31 0 51.5 19.5t20.5 49.5q0 24 -15 38.5t-40 14.5q-31 0 -52 -19.5t-21 -49.5q0 -24 15.5 -38.5t40.5 -14.5z" />
    <glyph glyph-name="zero.numr" 
d="M225 326q-72 0 -114.5 46t-42.5 123q0 33 7 64q19 91 71.5 143t125.5 52q71 0 114 -46t43 -123q0 -35 -7 -64q-20 -91 -72.5 -143t-124.5 -52zM232 416q28 0 50 29t34 80q7 33 7 58q0 38 -15 59.5t-43 21.5q-29 0 -52 -29.5t-33 -79.5q-6 -31 -6 -58q0 -38 15 -59.5
t43 -21.5z" />
    <glyph glyph-name="one.numr" 
d="M246 630l-112 -47l3 100l142 61h95l-80 -408h-105z" />
    <glyph glyph-name="two.numr" 
d="M65 336l16 85q85 58 134 97q42 35 60 60t18 48q0 19 -14 29.5t-38 10.5q-26 0 -55.5 -13t-51.5 -34l-13 86q24 22 61.5 35.5t76.5 13.5q62 0 101 -32t39 -83q0 -41 -21 -77.5t-69 -77.5q-39 -32 -83 -60h158l-17 -88h-302z" />
    <glyph glyph-name="three.numr" 
d="M197 326q-37 0 -75 10t-57 26l19 83q24 -16 54 -25t58 -9q36 0 57.5 16t21.5 42q0 46 -64 46q-15 0 -35 -6l-19 54l113 96h-152l17 85h278l-15 -79l-103 -86q40 -10 62.5 -38.5t22.5 -70.5q0 -65 -50.5 -104.5t-132.5 -39.5z" />
    <glyph glyph-name="four.numr" 
d="M247 419h-193l15 87l224 238h110l-47 -244h53l-16 -81h-52l-16 -83h-94zM263 500l24 125l-118 -125h94z" />
    <glyph glyph-name="five.numr" 
d="M198 326q-37 0 -73 9.5t-56 24.5l23 85q46 -30 110 -30q35 0 57.5 14.5t22.5 37.5t-21.5 35.5t-60.5 12.5q-50 0 -86 -9l54 238h242l-17 -85h-152l-13 -58h14q67 0 104.5 -33t37.5 -91q0 -70 -50 -110.5t-136 -40.5z" />
    <glyph glyph-name="six.numr" 
d="M225 326q-71 0 -111.5 37.5t-40.5 103.5q0 69 53 145.5t141 134.5l132 -4q-56 -35 -103 -75t-77 -78q22 14 53 14q57 0 92 -33.5t35 -87.5q0 -69 -49 -113t-125 -44zM227 408q31 0 51.5 20t20.5 49q0 24 -15.5 38.5t-40.5 14.5q-31 0 -51.5 -19.5t-20.5 -49.5
q0 -24 15.5 -38.5t40.5 -14.5z" />
    <glyph glyph-name="seven.numr" 
d="M105 338l197 313h-182l18 93h299l-17 -84l-198 -326z" />
    <glyph glyph-name="eight.numr" 
d="M222 326q-73 0 -114.5 31t-41.5 84q0 40 24.5 71.5t63.5 42.5q-40 23 -40 75q0 55 45 89.5t116 34.5q65 0 104.5 -30t39.5 -78q0 -35 -18 -62t-51 -40q22 -12 34 -34t12 -50q0 -61 -47.5 -97.5t-126.5 -36.5zM226 402q30 0 49.5 17.5t19.5 44.5q0 22 -16 34.5t-43 12.5
q-30 0 -49 -17t-19 -43q0 -22 16 -35.5t42 -13.5zM261 581q26 0 43.5 15.5t17.5 39.5q0 21 -13.5 32.5t-38.5 11.5q-26 0 -43.5 -15.5t-17.5 -39.5q0 -21 13.5 -32.5t38.5 -11.5z" />
    <glyph glyph-name="nine.numr" 
d="M97 337q122 77 180 152q-21 -13 -52 -13q-57 0 -92 33t-35 88q0 69 48.5 113t124.5 44q71 0 111.5 -37t40.5 -104q0 -69 -53 -145.5t-141 -134.5zM253 550q31 0 51.5 19.5t20.5 49.5q0 24 -15 38.5t-40 14.5q-31 0 -52 -19.5t-21 -49.5q0 -24 15.5 -38.5t40.5 -14.5z" />
    <glyph glyph-name="fraction" horiz-adv-x="165" 
d="M362 744h133l-646 -744h-133z" />
    <glyph glyph-name="percent" unicode="%" horiz-adv-x="1034" 
d="M303 471q41 0 69.5 31.5t28.5 77.5q0 39 -22 62t-60 23q-41 0 -69 -31.5t-28 -77.5q0 -39 21.5 -62t59.5 -23zM301 376q-82 0 -133.5 48.5t-51.5 125.5q0 55 26 103t73.5 77.5t105.5 29.5q83 0 134.5 -48.5t51.5 -125.5q0 -55 -26.5 -102.5t-74 -77.5t-105.5 -30z
M795 744h133l-646 -744h-133zM760 83q41 0 69.5 31.5t28.5 77.5q0 39 -22 62t-60 23q-41 0 -69 -31.5t-28 -77.5q0 -39 21.5 -62t59.5 -23zM758 -12q-82 0 -133.5 48.5t-51.5 125.5q0 55 26 103t73.5 77.5t105.5 29.5q83 0 134.5 -48.5t51.5 -125.5q0 -55 -26.5 -102.5
t-74 -77.5t-105.5 -30z" />
    <glyph glyph-name="onehalf" unicode="&#xbd;" horiz-adv-x="937" 
d="M715 744h133l-646 -744h-133zM550 0l16 85q85 58 134 97q42 35 60 60t18 48q0 19 -14 29.5t-38 10.5q-26 0 -55.5 -13t-51.5 -34l-13 86q24 22 61.5 35.5t76.5 13.5q62 0 101 -32t39 -83q0 -41 -21 -77.5t-69 -77.5q-39 -32 -83 -60h158l-17 -88h-302zM246 630l-112 -47
l3 100l142 61h95l-80 -408h-105z" />
    <glyph glyph-name="onethird" horiz-adv-x="937" 
d="M714 744h133l-646 -744h-133zM682 -10q-37 0 -75 10t-57 26l19 83q24 -16 54 -25t58 -9q36 0 57.5 16t21.5 42q0 46 -64 46q-15 0 -35 -6l-19 54l113 96h-152l17 85h278l-15 -79l-103 -86q40 -10 62.5 -38.5t22.5 -70.5q0 -65 -50.5 -104.5t-132.5 -39.5zM246 630
l-112 -47l3 100l142 61h95l-80 -408h-105z" />
    <glyph glyph-name="twothirds" horiz-adv-x="937" 
d="M747 744h133l-646 -744h-133zM682 -10q-37 0 -75 10t-57 26l19 83q24 -16 54 -25t58 -9q36 0 57.5 16t21.5 42q0 46 -64 46q-15 0 -35 -6l-19 54l113 96h-152l17 85h278l-15 -79l-103 -86q40 -10 62.5 -38.5t22.5 -70.5q0 -65 -50.5 -104.5t-132.5 -39.5zM64 336l16 85
q85 58 134 97q42 35 60 60t18 48q0 19 -14 29.5t-38 10.5q-26 0 -55.5 -13t-51.5 -34l-13 86q24 22 61.5 35.5t76.5 13.5q62 0 101 -32t39 -83q0 -41 -21 -77.5t-69 -77.5q-39 -32 -83 -60h158l-17 -88h-302z" />
    <glyph glyph-name="onequarter" unicode="&#xbc;" horiz-adv-x="937" 
d="M764 744h133l-646 -744h-133zM733 83h-193l15 87l224 238h110l-47 -244h53l-16 -81h-52l-16 -83h-94zM749 164l24 125l-118 -125h94zM246 630l-112 -47l3 100l142 61h95l-80 -408h-105z" />
    <glyph glyph-name="threequarters" unicode="&#xbe;" horiz-adv-x="937" 
d="M768 744h133l-646 -744h-133zM733 83h-193l15 87l224 238h110l-47 -244h53l-16 -81h-52l-16 -83h-94zM749 164l24 125l-118 -125h94zM196 326q-37 0 -75 10t-57 26l19 83q24 -16 54 -25t58 -9q36 0 57.5 16t21.5 42q0 46 -64 46q-15 0 -35 -6l-19 54l113 96h-152l17 85
h278l-15 -79l-103 -86q40 -10 62.5 -38.5t22.5 -70.5q0 -65 -50.5 -104.5t-132.5 -39.5z" />
    <glyph glyph-name="onefifth" horiz-adv-x="937" 
d="M731 744h133l-646 -744h-133zM684 -10q-37 0 -73 9.5t-56 24.5l23 85q46 -30 110 -30q35 0 57.5 14.5t22.5 37.5t-21.5 35.5t-60.5 12.5q-50 0 -86 -9l54 238h242l-17 -85h-152l-13 -58h14q67 0 104.5 -33t37.5 -91q0 -70 -50 -110.5t-136 -40.5zM246 630l-112 -47l3 100
l142 61h95l-80 -408h-105z" />
    <glyph glyph-name="twofifths" horiz-adv-x="937" 
d="M764 744h133l-646 -744h-133zM684 -10q-37 0 -73 9.5t-56 24.5l23 85q46 -30 110 -30q35 0 57.5 14.5t22.5 37.5t-21.5 35.5t-60.5 12.5q-50 0 -86 -9l54 238h242l-17 -85h-152l-13 -58h14q67 0 104.5 -33t37.5 -91q0 -70 -50 -110.5t-136 -40.5zM64 336l16 85
q85 58 134 97q42 35 60 60t18 48q0 19 -14 29.5t-38 10.5q-26 0 -55.5 -13t-51.5 -34l-13 86q24 22 61.5 35.5t76.5 13.5q62 0 101 -32t39 -83q0 -41 -21 -77.5t-69 -77.5q-39 -32 -83 -60h158l-17 -88h-302z" />
    <glyph glyph-name="threefifths" horiz-adv-x="937" 
d="M741 744h133l-646 -744h-133zM684 -10q-37 0 -73 9.5t-56 24.5l23 85q46 -30 110 -30q35 0 57.5 14.5t22.5 37.5t-21.5 35.5t-60.5 12.5q-50 0 -86 -9l54 238h242l-17 -85h-152l-13 -58h14q67 0 104.5 -33t37.5 -91q0 -70 -50 -110.5t-136 -40.5zM196 326q-37 0 -75 10
t-57 26l19 83q24 -16 54 -25t58 -9q36 0 57.5 16t21.5 42q0 46 -64 46q-15 0 -35 -6l-19 54l113 96h-152l17 85h278l-15 -79l-103 -86q40 -10 62.5 -38.5t22.5 -70.5q0 -65 -50.5 -104.5t-132.5 -39.5z" />
    <glyph glyph-name="fourfifths" horiz-adv-x="937" 
d="M755 744h133l-646 -744h-133zM684 -10q-37 0 -73 9.5t-56 24.5l23 85q46 -30 110 -30q35 0 57.5 14.5t22.5 37.5t-21.5 35.5t-60.5 12.5q-50 0 -86 -9l54 238h242l-17 -85h-152l-13 -58h14q67 0 104.5 -33t37.5 -91q0 -70 -50 -110.5t-136 -40.5zM247 419h-193l15 87
l224 238h110l-47 -244h53l-16 -81h-52l-16 -83h-94zM263 500l24 125l-118 -125h94z" />
    <glyph glyph-name="onesixth" horiz-adv-x="937" 
d="M753 744h133l-646 -744h-133zM711 -10q-71 0 -111.5 37.5t-40.5 103.5q0 69 53 145.5t141 134.5l132 -4q-56 -35 -103 -75t-77 -78q22 14 53 14q57 0 92 -33.5t35 -87.5q0 -69 -49 -113t-125 -44zM713 72q31 0 51.5 20t20.5 49q0 24 -15.5 38.5t-40.5 14.5
q-31 0 -51.5 -19.5t-20.5 -49.5q0 -24 15.5 -38.5t40.5 -14.5zM246 630l-112 -47l3 100l142 61h95l-80 -408h-105z" />
    <glyph glyph-name="fivesixths" horiz-adv-x="937" 
d="M762 744h133l-646 -744h-133zM711 -10q-71 0 -111.5 37.5t-40.5 103.5q0 69 53 145.5t141 134.5l132 -4q-56 -35 -103 -75t-77 -78q22 14 53 14q57 0 92 -33.5t35 -87.5q0 -69 -49 -113t-125 -44zM713 72q31 0 51.5 20t20.5 49q0 24 -15.5 38.5t-40.5 14.5
q-31 0 -51.5 -19.5t-20.5 -49.5q0 -24 15.5 -38.5t40.5 -14.5zM198 326q-37 0 -73 9.5t-56 24.5l23 85q46 -30 110 -30q35 0 57.5 14.5t22.5 37.5t-21.5 35.5t-60.5 12.5q-50 0 -86 -9l54 238h242l-17 -85h-152l-13 -58h14q67 0 104.5 -33t37.5 -91q0 -70 -50 -110.5
t-136 -40.5z" />
    <glyph glyph-name="oneseventh" horiz-adv-x="937" 
d="M718 744h133l-646 -744h-133zM591 2l197 313h-182l18 93h299l-17 -84l-198 -326zM246 630l-112 -47l3 100l142 61h95l-80 -408h-105z" />
    <glyph glyph-name="twosevenths" horiz-adv-x="937" 
d="M751 744h133l-646 -744h-133zM591 2l197 313h-182l18 93h299l-17 -84l-198 -326zM64 336l16 85q85 58 134 97q42 35 60 60t18 48q0 19 -14 29.5t-38 10.5q-26 0 -55.5 -13t-51.5 -34l-13 86q24 22 61.5 35.5t76.5 13.5q62 0 101 -32t39 -83q0 -41 -21 -77.5t-69 -77.5
q-39 -32 -83 -60h158l-17 -88h-302z" />
    <glyph glyph-name="threesevenths" horiz-adv-x="937" 
d="M726 744h133l-646 -744h-133zM591 2l197 313h-182l18 93h299l-17 -84l-198 -326zM196 326q-37 0 -75 10t-57 26l19 83q24 -16 54 -25t58 -9q36 0 57.5 16t21.5 42q0 46 -64 46q-15 0 -35 -6l-19 54l113 96h-152l17 85h278l-15 -79l-103 -86q40 -10 62.5 -38.5t22.5 -70.5
q0 -65 -50.5 -104.5t-132.5 -39.5z" />
    <glyph glyph-name="foursevenths" horiz-adv-x="937" 
d="M735 744h133l-646 -744h-133zM591 2l197 313h-182l18 93h299l-17 -84l-198 -326zM247 419h-193l15 87l224 238h110l-47 -244h53l-16 -81h-52l-16 -83h-94zM263 500l24 125l-118 -125h94z" />
    <glyph glyph-name="fivesevenths" horiz-adv-x="937" 
d="M731 744h133l-646 -744h-133zM591 2l197 313h-182l18 93h299l-17 -84l-198 -326zM198 326q-37 0 -73 9.5t-56 24.5l23 85q46 -30 110 -30q35 0 57.5 14.5t22.5 37.5t-21.5 35.5t-60.5 12.5q-50 0 -86 -9l54 238h242l-17 -85h-152l-13 -58h14q67 0 104.5 -33t37.5 -91
q0 -70 -50 -110.5t-136 -40.5z" />
    <glyph glyph-name="sixsevenths" horiz-adv-x="937" 
d="M733 744h133l-646 -744h-133zM591 2l197 313h-182l18 93h299l-17 -84l-198 -326zM225 326q-71 0 -111.5 37.5t-40.5 103.5q0 69 53 145.5t141 134.5l132 -4q-56 -35 -103 -75t-77 -78q22 14 53 14q57 0 92 -33.5t35 -87.5q0 -69 -49 -113t-125 -44zM227 408q31 0 51.5 20
t20.5 49q0 24 -15.5 38.5t-40.5 14.5q-31 0 -51.5 -19.5t-20.5 -49.5q0 -24 15.5 -38.5t40.5 -14.5z" />
    <glyph glyph-name="oneeighth" horiz-adv-x="937" 
d="M726 744h133l-646 -744h-133zM708 -10q-73 0 -114.5 31t-41.5 84q0 40 24.5 71.5t63.5 42.5q-40 23 -40 75q0 55 45 89.5t116 34.5q65 0 104.5 -30t39.5 -78q0 -35 -18 -62t-51 -40q22 -12 34 -34t12 -50q0 -61 -47.5 -97.5t-126.5 -36.5zM712 66q30 0 49.5 17.5
t19.5 44.5q0 22 -16 34.5t-43 12.5q-30 0 -49 -17t-19 -43q0 -22 16 -35.5t42 -13.5zM747 245q26 0 43.5 15.5t17.5 39.5q0 21 -13.5 32.5t-38.5 11.5q-26 0 -43.5 -15.5t-17.5 -39.5q0 -21 13.5 -32.5t38.5 -11.5zM246 630l-112 -47l3 100l142 61h95l-80 -408h-105z" />
    <glyph glyph-name="threeeighths" horiz-adv-x="937" 
d="M736 744h133l-646 -744h-133zM708 -10q-73 0 -114.5 31t-41.5 84q0 40 24.5 71.5t63.5 42.5q-40 23 -40 75q0 55 45 89.5t116 34.5q65 0 104.5 -30t39.5 -78q0 -35 -18 -62t-51 -40q22 -12 34 -34t12 -50q0 -61 -47.5 -97.5t-126.5 -36.5zM712 66q30 0 49.5 17.5
t19.5 44.5q0 22 -16 34.5t-43 12.5q-30 0 -49 -17t-19 -43q0 -22 16 -35.5t42 -13.5zM747 245q26 0 43.5 15.5t17.5 39.5q0 21 -13.5 32.5t-38.5 11.5q-26 0 -43.5 -15.5t-17.5 -39.5q0 -21 13.5 -32.5t38.5 -11.5zM196 326q-37 0 -75 10t-57 26l19 83q24 -16 54 -25t58 -9
q36 0 57.5 16t21.5 42q0 46 -64 46q-15 0 -35 -6l-19 54l113 96h-152l17 85h278l-15 -79l-103 -86q40 -10 62.5 -38.5t22.5 -70.5q0 -65 -50.5 -104.5t-132.5 -39.5z" />
    <glyph glyph-name="fiveeighths" horiz-adv-x="937" 
d="M739 744h133l-646 -744h-133zM708 -10q-73 0 -114.5 31t-41.5 84q0 40 24.5 71.5t63.5 42.5q-40 23 -40 75q0 55 45 89.5t116 34.5q65 0 104.5 -30t39.5 -78q0 -35 -18 -62t-51 -40q22 -12 34 -34t12 -50q0 -61 -47.5 -97.5t-126.5 -36.5zM712 66q30 0 49.5 17.5
t19.5 44.5q0 22 -16 34.5t-43 12.5q-30 0 -49 -17t-19 -43q0 -22 16 -35.5t42 -13.5zM747 245q26 0 43.5 15.5t17.5 39.5q0 21 -13.5 32.5t-38.5 11.5q-26 0 -43.5 -15.5t-17.5 -39.5q0 -21 13.5 -32.5t38.5 -11.5zM198 326q-37 0 -73 9.5t-56 24.5l23 85q46 -30 110 -30
q35 0 57.5 14.5t22.5 37.5t-21.5 35.5t-60.5 12.5q-50 0 -86 -9l54 238h242l-17 -85h-152l-13 -58h14q67 0 104.5 -33t37.5 -91q0 -70 -50 -110.5t-136 -40.5z" />
    <glyph glyph-name="seveneighths" horiz-adv-x="937" 
d="M700 744h133l-646 -744h-133zM708 -10q-73 0 -114.5 31t-41.5 84q0 40 24.5 71.5t63.5 42.5q-40 23 -40 75q0 55 45 89.5t116 34.5q65 0 104.5 -30t39.5 -78q0 -35 -18 -62t-51 -40q22 -12 34 -34t12 -50q0 -61 -47.5 -97.5t-126.5 -36.5zM712 66q30 0 49.5 17.5
t19.5 44.5q0 22 -16 34.5t-43 12.5q-30 0 -49 -17t-19 -43q0 -22 16 -35.5t42 -13.5zM747 245q26 0 43.5 15.5t17.5 39.5q0 21 -13.5 32.5t-38.5 11.5q-26 0 -43.5 -15.5t-17.5 -39.5q0 -21 13.5 -32.5t38.5 -11.5zM105 338l197 313h-182l18 93h299l-17 -84l-198 -326z" />
    <glyph glyph-name="oneninth" horiz-adv-x="937" 
d="M722 744h133l-646 -744h-133zM583 1q122 77 180 152q-21 -13 -52 -13q-57 0 -92 33t-35 88q0 69 48.5 113t124.5 44q71 0 111.5 -37t40.5 -104q0 -69 -53 -145.5t-141 -134.5zM739 214q31 0 51.5 19.5t20.5 49.5q0 24 -15 38.5t-40 14.5q-31 0 -52 -19.5t-21 -49.5
q0 -24 15.5 -38.5t40.5 -14.5zM246 630l-112 -47l3 100l142 61h95l-80 -408h-105z" />
    <glyph glyph-name="twoninths" horiz-adv-x="937" 
d="M760 744h133l-646 -744h-133zM583 1q122 77 180 152q-21 -13 -52 -13q-57 0 -92 33t-35 88q0 69 48.5 113t124.5 44q71 0 111.5 -37t40.5 -104q0 -69 -53 -145.5t-141 -134.5zM739 214q31 0 51.5 19.5t20.5 49.5q0 24 -15 38.5t-40 14.5q-31 0 -52 -19.5t-21 -49.5
q0 -24 15.5 -38.5t40.5 -14.5zM64 336l16 85q85 58 134 97q42 35 60 60t18 48q0 19 -14 29.5t-38 10.5q-26 0 -55.5 -13t-51.5 -34l-13 86q24 22 61.5 35.5t76.5 13.5q62 0 101 -32t39 -83q0 -41 -21 -77.5t-69 -77.5q-39 -32 -83 -60h158l-17 -88h-302z" />
    <glyph glyph-name="fourninths" horiz-adv-x="937" 
d="M753 744h133l-646 -744h-133zM583 1q122 77 180 152q-21 -13 -52 -13q-57 0 -92 33t-35 88q0 69 48.5 113t124.5 44q71 0 111.5 -37t40.5 -104q0 -69 -53 -145.5t-141 -134.5zM739 214q31 0 51.5 19.5t20.5 49.5q0 24 -15 38.5t-40 14.5q-31 0 -52 -19.5t-21 -49.5
q0 -24 15.5 -38.5t40.5 -14.5zM247 419h-193l15 87l224 238h110l-47 -244h53l-16 -81h-52l-16 -83h-94zM263 500l24 125l-118 -125h94z" />
    <glyph glyph-name="fiveninths" horiz-adv-x="937" 
d="M744 744h133l-646 -744h-133zM583 1q122 77 180 152q-21 -13 -52 -13q-57 0 -92 33t-35 88q0 69 48.5 113t124.5 44q71 0 111.5 -37t40.5 -104q0 -69 -53 -145.5t-141 -134.5zM739 214q31 0 51.5 19.5t20.5 49.5q0 24 -15 38.5t-40 14.5q-31 0 -52 -19.5t-21 -49.5
q0 -24 15.5 -38.5t40.5 -14.5zM198 326q-37 0 -73 9.5t-56 24.5l23 85q46 -30 110 -30q35 0 57.5 14.5t22.5 37.5t-21.5 35.5t-60.5 12.5q-50 0 -86 -9l54 238h242l-17 -85h-152l-13 -58h14q67 0 104.5 -33t37.5 -91q0 -70 -50 -110.5t-136 -40.5z" />
    <glyph glyph-name="sevenninths" horiz-adv-x="937" 
d="M696 744h133l-646 -744h-133zM583 1q122 77 180 152q-21 -13 -52 -13q-57 0 -92 33t-35 88q0 69 48.5 113t124.5 44q71 0 111.5 -37t40.5 -104q0 -69 -53 -145.5t-141 -134.5zM739 214q31 0 51.5 19.5t20.5 49.5q0 24 -15 38.5t-40 14.5q-31 0 -52 -19.5t-21 -49.5
q0 -24 15.5 -38.5t40.5 -14.5zM105 338l197 313h-182l18 93h299l-17 -84l-198 -326z" />
    <glyph glyph-name="eightninths" horiz-adv-x="937" 
d="M747 744h133l-646 -744h-133zM583 1q122 77 180 152q-21 -13 -52 -13q-57 0 -92 33t-35 88q0 69 48.5 113t124.5 44q71 0 111.5 -37t40.5 -104q0 -69 -53 -145.5t-141 -134.5zM739 214q31 0 51.5 19.5t20.5 49.5q0 24 -15 38.5t-40 14.5q-31 0 -52 -19.5t-21 -49.5
q0 -24 15.5 -38.5t40.5 -14.5zM222 326q-73 0 -114.5 31t-41.5 84q0 40 24.5 71.5t63.5 42.5q-40 23 -40 75q0 55 45 89.5t116 34.5q65 0 104.5 -30t39.5 -78q0 -35 -18 -62t-51 -40q22 -12 34 -34t12 -50q0 -61 -47.5 -97.5t-126.5 -36.5zM226 402q30 0 49.5 17.5
t19.5 44.5q0 22 -16 34.5t-43 12.5q-30 0 -49 -17t-19 -43q0 -22 16 -35.5t42 -13.5zM261 581q26 0 43.5 15.5t17.5 39.5q0 21 -13.5 32.5t-38.5 11.5q-26 0 -43.5 -15.5t-17.5 -39.5q0 -21 13.5 -32.5t38.5 -11.5z" />
    <glyph glyph-name="dollar" unicode="$" horiz-adv-x="620" 
d="M189 -132l25 122q-56 7 -107.5 25t-83.5 43l30 114q34 -28 84.5 -48.5t97.5 -26.5l47 237q-92 46 -130 93.5t-38 116.5q0 61 31 109t88.5 76.5t133.5 29.5l23 119h76l-26 -125q86 -15 152 -60l-31 -110q-30 22 -68 38.5t-73 24.5l-44 -218q97 -48 137 -97t40 -119
q0 -61 -32 -111t-92.5 -80.5t-140.5 -33.5l-23 -119h-76zM311 98q52 8 82 37.5t30 72.5q0 28 -17 50.5t-55 42.5zM345 649q-50 -5 -78.5 -30.5t-28.5 -63.5q0 -32 16 -54t54 -41z" />
    <glyph glyph-name="cent" unicode="&#xa2;" horiz-adv-x="620" 
d="M232 -132l25 128q-53 13 -91 44t-58.5 78t-20.5 107q0 77 34 141.5t97 106t144 48.5l24 121h76l-25 -123q30 -4 61 -16t54 -27l-25 -112q-55 33 -114 38l-59 -296q74 0 131 30l-3 -117q-20 -14 -62 -22.5t-89 -9.5l-24 -119h-75zM337 398q-55 -14 -87.5 -58t-32.5 -104
q0 -89 65 -116z" />
    <glyph glyph-name="sterling" unicode="&#xa3;" horiz-adv-x="620" 
d="M30 118h94l39 193h-93l22 110h93l11 60q25 141 97 210t194 69q46 0 91.5 -13t72.5 -33l-29 -113q-60 39 -130 39q-66 0 -105 -39.5t-57 -125.5l-11 -54h194l-22 -110h-194l-38 -193h299l-24 -118h-527z" />
    <glyph glyph-name="yen" unicode="&#xa5;" horiz-adv-x="620" 
d="M218 142h-182l17 90h182l15 78h-182l17 90h138l-118 344h146l87 -312l210 312h157l-255 -344h140l-17 -90h-187l-15 -78h187l-17 -90h-187l-28 -142h-135z" />
    <glyph glyph-name="Euro" unicode="&#x20ac;" horiz-adv-x="620" 
d="M417 -16q-127 0 -200 66.5t-86 191.5h-109l17 90h91q1 39 8 80h-83l17 90h89q27 78 77 136t118 90t148 32q51 0 96.5 -11t77.5 -31l-29 -112q-71 37 -148 37q-63 0 -116.5 -38t-82.5 -103h252l-17 -90h-263q-7 -36 -9 -80h256l-17 -90h-234q11 -72 52 -106.5t117 -34.5
q34 0 70 8.5t66 23.5v-117q-64 -32 -158 -32z" />
    <glyph glyph-name="currency" unicode="&#xa4;" horiz-adv-x="620" 
d="M50 215l86 92q-27 47 -27 110q0 61 27 110l-86 92l86 77l79 -89q27 17 58 26.5t60 9.5t60 -9.5t58 -26.5l80 89l86 -77l-87 -92q27 -48 27 -110q0 -63 -27 -110l87 -92l-86 -77l-80 88q-55 -35 -118 -35q-62 0 -118 35l-79 -88zM333 293q51 0 82.5 34.5t31.5 89.5
t-31.5 89.5t-82.5 34.5t-82.5 -34.5t-31.5 -89.5t31.5 -89.5t82.5 -34.5z" />
    <glyph glyph-name="asciicircum" unicode="^" horiz-adv-x="620" 
d="M334 705h124l114 -398h-127l-70 265l-171 -265h-137z" />
    <glyph glyph-name="plus" unicode="+" horiz-adv-x="620" 
d="M251 277h-167l23 116h168l36 185h124l-37 -185h168l-22 -116h-168l-37 -185h-123z" />
    <glyph glyph-name="minus" horiz-adv-x="620" 
d="M111 394h452l-23 -118h-452z" />
    <glyph glyph-name="plusminus" unicode="&#xb1;" horiz-adv-x="620" 
d="M58 119h452l-23 -118h-452zM268 363h-167l23 116h168l36 185h124l-37 -185h168l-22 -116h-168l-37 -185h-123z" />
    <glyph glyph-name="equal" unicode="=" horiz-adv-x="620" 
d="M146 508h427l-22 -114h-427zM100 271h427l-22 -114h-427z" />
    <glyph glyph-name="divide" unicode="&#xf7;" horiz-adv-x="620" 
d="M356 458q-29 0 -48 17.5t-19 45.5q0 32 22.5 54t56.5 22q31 0 49.5 -17.5t18.5 -45.5q0 -33 -22.5 -54.5t-57.5 -21.5zM282 73q-30 0 -48.5 17.5t-18.5 45.5q0 32 22.5 54t56.5 22q30 0 49 -17.5t19 -45.5q0 -33 -22.5 -54.5t-57.5 -21.5zM110 391h453l-22 -112h-452z
" />
    <glyph glyph-name="less" unicode="&#x3c;" horiz-adv-x="620" 
d="M102 273l26 132l461 181l-27 -136l-311 -117l266 -118l-24 -122z" />
    <glyph glyph-name="greater" unicode="&#x3e;" horiz-adv-x="620" 
d="M90 229l311 116l-265 118l24 123l391 -181l-26 -132l-461 -180z" />
    <glyph glyph-name="asciitilde" unicode="~" horiz-adv-x="620" 
d="M47 233q14 104 61.5 161t120.5 57q29 0 51.5 -9.5t41 -23t34.5 -27.5t31.5 -23.5t31.5 -9.5q54 0 72 93h113q-13 -104 -60.5 -161t-121.5 -57q-29 0 -51.5 9.5t-41 23.5t-34.5 27.5t-31 23t-32 9.5q-53 0 -71 -93h-114z" />
    <glyph glyph-name="multiply" unicode="&#xd7;" horiz-adv-x="620" 
d="M87 199l163 143l-109 144l91 71l106 -140l159 139l69 -80l-164 -143l110 -144l-90 -71l-107 140l-158 -139z" />
    <glyph glyph-name="underscore" unicode="_" horiz-adv-x="500" 
d="M-57 -38h500l-21 -108h-500z" />
    <glyph glyph-name="section" unicode="&#xa7;" horiz-adv-x="534" 
d="M192 -122q-56 0 -111 15.5t-85 40.5l27 102q77 -55 177 -55q43 0 68 17.5t25 48.5q0 26 -19.5 43t-75.5 40q-74 30 -106 67t-32 93q0 61 35.5 106.5t99.5 66.5q-59 40 -59 116q0 79 58 124.5t158 45.5q47 0 96.5 -13.5t80.5 -35.5l-26 -100q-36 21 -76.5 33.5t-75.5 12.5
q-41 0 -62.5 -14t-21.5 -40q0 -25 17.5 -40.5t67.5 -34.5q80 -31 113.5 -68.5t33.5 -97.5q0 -61 -33.5 -106.5t-92.5 -67.5q56 -47 56 -118q0 -53 -28.5 -94t-82.5 -64t-126 -23zM268 231q45 0 75 29.5t30 73.5q0 34 -22 54.5t-59 20.5q-46 0 -76 -28.5t-30 -72.5
q0 -35 23 -56t59 -21z" />
    <glyph glyph-name="degree" unicode="&#xb0;" horiz-adv-x="498" 
d="M315 416q-50 0 -91.5 22.5t-66.5 63.5t-25 93q0 48 23 89t65.5 66t94.5 25q50 0 92 -22.5t67 -64t25 -93.5q0 -48 -23.5 -88.5t-66 -65.5t-94.5 -25zM315 511q36 0 58.5 23.5t22.5 60.5q0 38 -22.5 62t-58.5 24q-35 0 -57 -24t-22 -62q0 -36 22 -60t57 -24z" />
    <glyph glyph-name="mu" unicode="&#xb5;" horiz-adv-x="616" 
d="M124 509h139l-55 -284q-4 -21 -4 -39q0 -39 19.5 -59t56.5 -20q45 0 77 34.5t43 93.5l53 274h139l-99 -509h-133l9 60q-20 -33 -56 -54.5t-72 -21.5q-52 0 -73 37l-52 -266h-139z" />
    <glyph glyph-name="paragraph" unicode="&#xb6;" horiz-adv-x="632" 
d="M161 -130l89 465q-78 7 -121.5 52t-43.5 120t33 132t95.5 89t147.5 32h299l-173 -890h-121l151 779h-84l-152 -779h-120z" />
    <glyph glyph-name="numbersign" unicode="#" horiz-adv-x="676" 
d="M107 160h-94l27 93h105l71 171h-111l27 93h121l66 160h108l-66 -160h132l66 160h108l-66 -160h94l-26 -93h-106l-71 -171h111l-26 -93h-123l-66 -160h-107l66 160h-132l-66 -160h-108zM385 253l71 171h-133l-70 -171h132z" />
    <glyph glyph-name="bar" unicode="|" horiz-adv-x="330" 
d="M220 866h128l-212 -1093h-128z" />
    <glyph glyph-name="brokenbar" unicode="&#xa6;" horiz-adv-x="330" 
d="M94 218h128l-86 -445h-128zM220 866h128l-86 -445h-128z" />
    <glyph glyph-name="logicalnot" unicode="&#xac;" horiz-adv-x="620" 
d="M418 307h-321l23 119h446l-51 -268h-126z" />
    <glyph glyph-name="ampersand" unicode="&#x26;" horiz-adv-x="766" 
d="M295 -16q-120 0 -188 53t-68 147q0 158 202 242q-28 43 -39 78t-11 77q0 89 61 143t162 54q90 0 146 -46t56 -121q0 -71 -48 -127.5t-146 -100.5l110 -158q45 66 59 167l121 -15q-7 -70 -36 -135t-74 -116l88 -126h-157l-31 45q-95 -61 -207 -61zM305 101q32 0 66 11
t64 31l-134 195q-121 -60 -121 -140q0 -45 33.5 -71t91.5 -26zM360 472q64 31 94 63t30 70q0 32 -20 51.5t-54 19.5q-39 0 -64 -26t-25 -66q0 -29 9 -55t30 -57z" />
    <glyph glyph-name="asterisk" unicode="*" horiz-adv-x="479" 
d="M287 490l-97 -132l-81 68l111 114l-129 37l47 99l122 -60l12 144h119l-44 -146l136 60l27 -108l-146 -33l88 -120l-95 -55z" />
    <glyph glyph-name="hyphen" unicode="-" horiz-adv-x="425" 
d="M80 348h303l-24 -121h-303z" />
    <glyph glyph-name="endash" unicode="&#x2013;" horiz-adv-x="500" 
d="M16 342h500l-20 -108h-500z" />
    <glyph glyph-name="emdash" unicode="&#x2014;" horiz-adv-x="1000" 
d="M16 342h1000l-20 -108h-1000z" />
    <glyph glyph-name="parenleft" unicode="(" horiz-adv-x="430" 
d="M194 -133q-32 43 -56.5 100t-37.5 123t-13 132q0 170 74.5 328t208.5 270h160q-96 -71 -166.5 -165.5t-108.5 -204t-38 -222.5q0 -212 119 -361h-142z" />
    <glyph glyph-name="parenright" unicode=")" horiz-adv-x="430" 
d="M-66 -133q96 71 166.5 165.5t108.5 204t38 222.5q0 212 -119 361h143q49 -65 77.5 -160t28.5 -195q0 -170 -74.5 -328t-208.5 -270h-160z" />
    <glyph glyph-name="slash" unicode="/" horiz-adv-x="546" 
d="M506 810h137l-570 -943h-137z" />
    <glyph glyph-name="backslash" unicode="\" horiz-adv-x="546" 
d="M124 810h128l203 -943h-128z" />
    <glyph glyph-name="bracketleft" unicode="[" horiz-adv-x="423" 
d="M216 820h272l-21 -113h-145l-142 -726h151l-22 -114h-278z" />
    <glyph glyph-name="bracketright" unicode="]" horiz-adv-x="423" 
d="M-9 -20h145l142 726h-151l22 114h278l-185 -953h-273z" />
    <glyph glyph-name="braceleft" unicode="{" horiz-adv-x="433" 
d="M267 -144q-82 0 -131.5 38.5t-49.5 102.5q0 32 9.5 65t21 65.5t21 61.5t9.5 53q0 26 -15.5 37t-54.5 11h-24l23 115h22q47 0 67.5 19.5t29.5 73.5q8 53 15 101t18 88.5t32 70.5t58 46.5t95 16.5q46 0 81 -8l-22 -108q-22 6 -44 6q-38 0 -57.5 -17.5t-27 -48t-11 -69
t-10.5 -81.5q-11 -68 -35 -102.5t-69 -45.5q28 -8 43.5 -31.5t15.5 -56.5q0 -27 -9.5 -57t-21.5 -61t-21.5 -59t-9.5 -50q0 -34 21.5 -49t69.5 -15q20 0 26 1l-21 -110q-19 -3 -44 -3z" />
    <glyph glyph-name="braceright" unicode="}" horiz-adv-x="433" 
d="M53 -144q-46 0 -81 8l22 108q22 -6 44 -6q38 0 57.5 17.5t27 48t11 69t10.5 81.5q11 68 35 102.5t69 45.5q-28 8 -43.5 31.5t-15.5 56.5q0 27 9.5 57t21.5 61t21.5 59t9.5 50q0 34 -21.5 49t-69.5 15q-20 0 -26 -1l21 110q20 3 44 3q82 0 131.5 -38.5t49.5 -102.5
q0 -32 -9.5 -65t-21 -65.5t-21 -61.5t-9.5 -53q0 -26 15.5 -37t54.5 -11h24l-23 -115h-22q-47 0 -67.5 -19.5t-29.5 -73.5q-8 -53 -15 -101t-18 -88.5t-32 -70.5t-58 -46.5t-95 -16.5z" />
    <glyph glyph-name="bullet" unicode="&#x2022;" horiz-adv-x="362" 
d="M184 142q-54 0 -92 38.5t-38 92.5q0 35 16.5 64.5t46.5 47.5t67 18q55 0 93 -38t38 -92q0 -34 -16.5 -64t-47 -48.5t-67.5 -18.5z" />
    <glyph glyph-name="guilsinglleft" unicode="&#x2039;" horiz-adv-x="364" 
d="M28 257l189 219h155l-201 -230l101 -209h-142z" />
    <glyph glyph-name="guilsinglright" unicode="&#x203a;" horiz-adv-x="364" 
d="M194 266l-101 210h142l102 -219l-189 -220h-155z" />
    <glyph glyph-name="guillemotleft" unicode="&#xab;" horiz-adv-x="609" 
d="M28 257l189 219h155l-201 -230l101 -209h-142zM273 257l189 219h155l-201 -230l101 -209h-142z" />
    <glyph glyph-name="guillemotright" unicode="&#xbb;" horiz-adv-x="609" 
d="M194 266l-101 210h142l102 -219l-189 -220h-155zM439 266l-101 210h142l102 -219l-189 -220h-155z" />
    <glyph glyph-name="at" unicode="@" horiz-adv-x="1024" 
d="M460 -230q-128 0 -222.5 45.5t-146.5 133t-52 208.5q0 102 38.5 195t111 166.5t175.5 117.5t222 44q84 0 156 -23.5t126.5 -68.5t86 -110t31.5 -144q0 -92 -35 -169t-99 -123.5t-144 -46.5q-48 0 -80 17t-45 49q-53 -65 -146 -65q-77 0 -122 48t-45 131q0 69 32 131.5
t88.5 102t124.5 39.5q47 0 80 -18.5t49 -54.5l21 58h111l-82 -251q-10 -32 -10 -48q0 -22 11.5 -34t33.5 -12q37 0 71 32t56.5 88t22.5 120q0 77 -35.5 134t-103.5 88.5t-162 31.5q-115 0 -213 -53t-158 -149.5t-60 -216.5q0 -142 82.5 -218t236.5 -76q50 0 108 12t102 31
l-6 -103q-39 -18 -96 -28.5t-114 -10.5zM475 102q23 0 45.5 11t41 31.5t30 49.5t11.5 61q0 40 -22.5 63t-61.5 23q-32 0 -61 -20t-47.5 -55.5t-18.5 -77.5q0 -40 22.5 -63t60.5 -23z" />
    <glyph glyph-name="periodcentered" unicode="&#xb7;" horiz-adv-x="300" 
d="M165 296q-34 0 -55.5 20.5t-21.5 53.5q0 39 27 64.5t68 25.5q34 0 55.5 -20.5t21.5 -52.5q0 -40 -26.5 -65.5t-68.5 -25.5z" />
    <glyph glyph-name="hyphen.case" horiz-adv-x="425" 
d="M98 440h303l-24 -121h-303z" />
    <glyph glyph-name="endash.case" horiz-adv-x="500" 
d="M34 434h500l-20 -108h-500z" />
    <glyph glyph-name="emdash.case" horiz-adv-x="1000" 
d="M34 434h1000l-20 -108h-1000z" />
    <glyph glyph-name="parenleft.case" horiz-adv-x="430" 
d="M208 -60q-32 43 -56.5 100t-37.5 123t-13 132q0 170 74.5 328t208.5 270h160q-96 -71 -166.5 -165.5t-108.5 -204t-38 -222.5q0 -212 119 -361h-142z" />
    <glyph glyph-name="parenright.case" horiz-adv-x="430" 
d="M-52 -60q96 71 166.5 165.5t108.5 204t38 222.5q0 212 -119 361h143q49 -65 77.5 -160t28.5 -195q0 -170 -74.5 -328t-208.5 -270h-160z" />
    <glyph glyph-name="slash.case" horiz-adv-x="546" 
d="M514 851h137l-570 -943h-137z" />
    <glyph glyph-name="backslash.case" horiz-adv-x="546" 
d="M132 851h128l203 -943h-128z" />
    <glyph glyph-name="bracketleft.case" horiz-adv-x="423" 
d="M230 892h272l-21 -113h-145l-142 -726h151l-22 -114h-278z" />
    <glyph glyph-name="bracketright.case" horiz-adv-x="423" 
d="M5 52h145l142 726h-151l22 114h278l-185 -953h-273z" />
    <glyph glyph-name="braceleft.case" horiz-adv-x="433" 
d="M279 -70q-82 0 -131.5 38.5t-49.5 102.5q0 32 9.5 65t21 65.5t21 61.5t9.5 53q0 26 -15.5 37t-54.5 11h-24l23 115h22q47 0 67.5 19.5t29.5 73.5q8 53 15 101t18 88.5t32 70.5t58 46.5t95 16.5q46 0 81 -8l-22 -108q-22 6 -44 6q-38 0 -57.5 -17.5t-27 -48t-11 -69
t-10.5 -81.5q-11 -68 -35 -102.5t-69 -45.5q28 -8 43.5 -31.5t15.5 -56.5q0 -27 -9.5 -57t-21.5 -61t-21.5 -59t-9.5 -50q0 -34 21.5 -49t69.5 -15q20 0 26 1l-21 -110q-19 -3 -44 -3z" />
    <glyph glyph-name="braceright.case" horiz-adv-x="433" 
d="M68 -70q-46 0 -81 8l22 108q22 -6 44 -6q38 0 57.5 17.5t27 48t11 69t10.5 81.5q11 68 35 102.5t69 45.5q-28 8 -43.5 31.5t-15.5 56.5q0 27 9.5 57t21.5 61t21.5 59t9.5 50q0 34 -21.5 49t-69.5 15q-20 0 -26 -1l21 110q20 3 44 3q82 0 131.5 -38.5t49.5 -102.5
q0 -32 -9.5 -65t-21 -65.5t-21 -61.5t-9.5 -53q0 -26 15.5 -37t54.5 -11h24l-23 -115h-22q-47 0 -67.5 -19.5t-29.5 -73.5q-8 -53 -15 -101t-18 -88.5t-32 -70.5t-58 -46.5t-95 -16.5z" />
    <glyph glyph-name="bullet.case" horiz-adv-x="362" 
d="M195 196q-54 0 -92 38.5t-38 92.5q0 35 16.5 64.5t46.5 47.5t67 18q55 0 93 -38t38 -92q0 -34 -16.5 -64t-47 -48.5t-67.5 -18.5z" />
    <glyph glyph-name="guilsinglleft.case" horiz-adv-x="364" 
d="M52 380l189 219h155l-201 -230l101 -209h-142z" />
    <glyph glyph-name="guilsinglright.case" horiz-adv-x="364" 
d="M218 389l-101 210h142l102 -219l-189 -220h-155z" />
    <glyph glyph-name="guillemotleft.case" horiz-adv-x="609" 
d="M52 380l189 219h155l-201 -230l101 -209h-142zM297 380l189 219h155l-201 -230l101 -209h-142z" />
    <glyph glyph-name="guillemotright.case" horiz-adv-x="609" 
d="M217 389l-101 210h142l102 -219l-189 -220h-155zM462 389l-101 210h142l102 -219l-189 -220h-155z" />
    <glyph glyph-name="at.case" horiz-adv-x="1024" 
d="M489 -79q-128 0 -222.5 45.5t-146.5 133t-52 208.5q0 102 38.5 195t111 166.5t175.5 117.5t222 44q84 0 156 -23.5t126.5 -68.5t86 -110t31.5 -144q0 -92 -35 -169t-99 -123.5t-144 -46.5q-48 0 -80 17t-45 49q-53 -65 -146 -65q-77 0 -122 48t-45 131q0 69 32 131.5
t88.5 102t124.5 39.5q47 0 80 -18.5t49 -54.5l21 58h111l-82 -251q-10 -32 -10 -48q0 -22 11.5 -34t33.5 -12q37 0 71 32t56.5 88t22.5 120q0 77 -35.5 134t-103.5 88.5t-162 31.5q-115 0 -213 -53t-158 -149.5t-60 -216.5q0 -142 82.5 -218t236.5 -76q50 0 108 12t102 31
l-6 -103q-39 -18 -96 -28.5t-114 -10.5zM504 253q23 0 45.5 11t41 31.5t30 49.5t11.5 61q0 40 -22.5 63t-61.5 23q-32 0 -61 -20t-47.5 -55.5t-18.5 -77.5q0 -40 22.5 -63t60.5 -23z" />
    <glyph glyph-name="periodcentered.case" horiz-adv-x="300" 
d="M168 316q-34 0 -55.5 20.5t-21.5 53.5q0 39 27 64.5t68 25.5q34 0 55.5 -20.5t21.5 -52.5q0 -40 -26.5 -65.5t-68.5 -25.5z" />
    <glyph glyph-name="uni00AD" unicode="&#xad;" horiz-adv-x="425" 
d="M80 348h303l-24 -121h-303z" />
    <glyph glyph-name="A" unicode="A" horiz-adv-x="794" 
d="M417 760h156l149 -760h-160l-32 200h-287l-109 -200h-160zM512 318l-46 291l-159 -291h205z" />
    <glyph glyph-name="B" unicode="B" horiz-adv-x="713" 
d="M190 760h243q113 0 175.5 -47.5t62.5 -133.5q0 -63 -32 -111t-90 -73q30 -11 53.5 -34t36.5 -54.5t13 -67.5q0 -113 -79 -176t-222 -63h-309zM206 119h141q74 0 114 32t40 91q0 90 -129 90h-125zM270 449h115q65 0 101.5 30t36.5 82q0 40 -30 60t-87 20h-98z" />
    <glyph glyph-name="B" unicode="&#xe000;" horiz-adv-x="713" 
d="M190 760h243q113 0 175.5 -47.5t62.5 -133.5q0 -63 -32 -111t-90 -73q30 -11 53.5 -34t36.5 -54.5t13 -67.5q0 -113 -79 -176t-222 -63h-309zM206 119h141q74 0 114 32t40 91q0 90 -129 90h-125zM270 449h115q65 0 101.5 30t36.5 82q0 40 -30 60t-87 20h-98z" />
    <glyph glyph-name="C" unicode="C" horiz-adv-x="766" 
d="M442 -11q-107 0 -190 42.5t-129.5 123t-46.5 188.5q0 117 55 214t155 155.5t227 58.5q66 0 134.5 -18.5t113.5 -47.5l-36 -129q-103 59 -215 59q-76 0 -139 -36t-101 -101t-38 -147q0 -103 64.5 -164.5t171.5 -61.5q105 0 200 52l-1 -136q-97 -52 -225 -52z" />
    <glyph glyph-name="D" unicode="D" horiz-adv-x="844" 
d="M190 760h256q179 0 276 -85.5t97 -241.5q0 -127 -57 -225t-165 -153t-253 -55h-302zM219 123h133q90 0 160 36.5t110 105.5t40 160q0 103 -59 157.5t-170 54.5h-115z" />
    <glyph glyph-name="E" unicode="E" horiz-adv-x="666" 
d="M190 760h483l-26 -128h-334l-36 -182h294l-23 -127h-295l-38 -195h361l-24 -128h-510z" />
    <glyph glyph-name="E" unicode="&#xe001;" horiz-adv-x="666" 
d="M190 760h483l-26 -128h-334l-36 -182h294l-23 -127h-295l-38 -195h361l-24 -128h-510z" />
    <glyph glyph-name="F" unicode="F" horiz-adv-x="612" 
d="M190 760h474l-24 -128h-325l-39 -203h282l-25 -127h-282l-58 -302h-151z" />
    <glyph glyph-name="G" unicode="G" horiz-adv-x="820" 
d="M463 -11q-116 0 -203 41.5t-135.5 120.5t-48.5 188q0 121 55.5 219t159 155.5t238.5 57.5q71 0 144.5 -18.5t125.5 -50.5l-37 -130q-51 30 -113.5 46.5t-124.5 16.5q-84 0 -150 -35t-104.5 -99.5t-38.5 -150.5q0 -105 64.5 -166t174.5 -61q59 0 116 19l31 162h-144
l25 122h285l-74 -382q-48 -25 -114.5 -40t-131.5 -15z" />
    <glyph glyph-name="H" unicode="H" horiz-adv-x="843" 
d="M190 760h153l-59 -305h354l60 305h153l-148 -760h-153l63 329h-354l-64 -329h-153z" />
    <glyph glyph-name="I" unicode="I" horiz-adv-x="335" 
d="M190 760h153l-148 -760h-153z" />
    <glyph glyph-name="J" unicode="J" horiz-adv-x="553" 
d="M171 -16q-50 0 -100.5 14t-76.5 35l28 121q65 -41 138 -41q68 0 105.5 40.5t55.5 133.5l92 473h153l-98 -500q-28 -144 -99 -210t-198 -66z" />
    <glyph glyph-name="K" unicode="K" horiz-adv-x="768" 
d="M42 0l148 760h149l-63 -322l351 322h198l-422 -380l308 -380h-194l-261 336l-65 -336h-149z" />
    <glyph glyph-name="L" unicode="L" horiz-adv-x="617" 
d="M190 760h153l-124 -634h338l-26 -126h-489z" />
    <glyph glyph-name="M" unicode="M" horiz-adv-x="1007" 
d="M26 0l186 760h141l148 -481l337 481h151l-106 -760h-147l78 518l-276 -391h-120l-126 396l-119 -523h-147z" />
    <glyph glyph-name="N" unicode="N" horiz-adv-x="848" 
d="M190 760h136l280 -542l105 542h145l-148 -760h-136l-281 541l-104 -541h-145z" />
    <glyph glyph-name="O" unicode="O" horiz-adv-x="892" 
d="M445 120q70 0 130 38t97.5 106.5t37.5 153.5q0 101 -58.5 161.5t-156.5 60.5q-70 0 -130 -38t-97 -107t-37 -153q0 -100 58.5 -161t155.5 -61zM435 -16q-102 0 -183.5 44t-129 124.5t-47.5 184.5q0 117 54.5 217t153.5 161t223 61q102 0 183.5 -44t129 -124.5
t47.5 -184.5q0 -86 -30 -164t-87.5 -140t-138.5 -98.5t-175 -36.5z" />
    <glyph glyph-name="P" unicode="P" horiz-adv-x="655" 
d="M190 760h206q126 0 198.5 -58.5t72.5 -159.5q0 -132 -85 -207t-237 -75h-107l-50 -260h-146zM262 383h87q80 0 125 39.5t45 110.5q0 50 -36 77t-104 27h-67z" />
    <glyph glyph-name="Q" unicode="Q" horiz-adv-x="892" 
d="M585 -182l-113 168q-20 -2 -37 -2q-102 0 -183.5 44t-129 124.5t-47.5 184.5q0 117 54.5 217t153.5 161t223 61q102 0 183.5 -44t129 -124.5t47.5 -184.5q0 -132 -68 -240t-185 -161l151 -204h-179zM445 120q70 0 130 38t97.5 106.5t37.5 153.5q0 101 -58.5 161.5
t-156.5 60.5q-70 0 -130 -38t-97 -107t-37 -153q0 -100 58.5 -161t155.5 -61z" />
    <glyph glyph-name="R" unicode="R" horiz-adv-x="725" 
d="M190 760h203q130 0 203 -57.5t73 -161.5q0 -80 -43.5 -141.5t-122.5 -91.5l143 -308h-164l-110 272q-8 -1 -30 -1h-101l-53 -271h-146zM265 394h87q74 0 121.5 38t47.5 99q0 51 -35.5 78.5t-103.5 27.5h-70z" />
    <glyph glyph-name="S" unicode="S" horiz-adv-x="650" 
d="M281 -16q-69 0 -138 20t-118 54l33 128q50 -35 108 -55t111 -20q69 0 110 27.5t41 73.5q0 34 -28 60t-102 59q-95 42 -135 91.5t-40 124.5q0 67 34 118.5t97.5 81t148.5 29.5q60 0 122 -17.5t107 -46.5l-34 -125q-49 30 -99.5 46t-94.5 16q-59 0 -95.5 -26t-36.5 -68
q0 -31 24.5 -54.5t88.5 -51.5q74 -33 116 -66.5t60.5 -73t18.5 -91.5q0 -69 -36 -122t-103.5 -82.5t-159.5 -29.5z" />
    <glyph glyph-name="S" unicode="&#xe002;" horiz-adv-x="650" 
d="M281 -16q-69 0 -138 20t-118 54l33 128q50 -35 108 -55t111 -20q69 0 110 27.5t41 73.5q0 34 -28 60t-102 59q-95 42 -135 91.5t-40 124.5q0 67 34 118.5t97.5 81t148.5 29.5q60 0 122 -17.5t107 -46.5l-34 -125q-49 30 -99.5 46t-94.5 16q-59 0 -95.5 -26t-36.5 -68
q0 -31 24.5 -54.5t88.5 -51.5q74 -33 116 -66.5t60.5 -73t18.5 -91.5q0 -69 -36 -122t-103.5 -82.5t-159.5 -29.5z" />
    <glyph glyph-name="T" unicode="T" horiz-adv-x="700" 
d="M347 634h-238l25 126h628l-24 -126h-238l-124 -634h-153z" />
    <glyph glyph-name="U" unicode="U" horiz-adv-x="834" 
d="M395 -16q-144 0 -222.5 72t-78.5 205q0 36 11 95l78 404h154l-80 -407q-8 -43 -8 -71q0 -80 39 -121t116 -41q88 0 136 52t71 171l82 417h154l-87 -444q-34 -170 -123 -251t-242 -81z" />
    <glyph glyph-name="V" unicode="V" horiz-adv-x="763" 
d="M118 760h159l85 -586l305 586h174l-427 -760h-158z" />
    <glyph glyph-name="W" unicode="W" horiz-adv-x="1108" 
d="M121 760h156l35 -558l263 548h143l55 -534l244 544h166l-373 -760h-142l-57 549l-267 -549h-145z" />
    <glyph glyph-name="X" unicode="X" horiz-adv-x="738" 
d="M309 402l-176 358h169l114 -254l204 254h185l-323 -377l192 -383h-170l-128 283l-226 -283h-184z" />
    <glyph glyph-name="Y" unicode="Y" horiz-adv-x="722" 
d="M296 318l-187 442h159l121 -323l246 323h174l-362 -446l-61 -314h-152z" />
    <glyph glyph-name="Z" unicode="Z" horiz-adv-x="723" 
d="M25 110l493 525h-373l24 125h572l-21 -110l-494 -525h410l-25 -125h-606z" />
    <glyph glyph-name="a" horiz-adv-x="650" 
d="M243 -16q-90 0 -144.5 63.5t-54.5 167.5q0 80 35 150.5t97.5 115t137.5 44.5q56 0 96.5 -21.5t66.5 -65.5l17 71h131l-98 -509h-131l8 55q-29 -33 -71.5 -52t-89.5 -19zM296 108q62 0 105.5 50t43.5 121q0 57 -30 89.5t-83 32.5q-62 0 -105.5 -50t-43.5 -121
q0 -57 30.5 -89.5t82.5 -32.5z" />
    <glyph glyph-name="b" unicode="b" horiz-adv-x="650" 
d="M336 -16q-112 0 -163 85l-16 -69h-132l157 810h139l-66 -345q28 28 68 44t84 16q90 0 144.5 -63.5t54.5 -167.5q0 -80 -35 -150.5t-97.5 -115t-137.5 -44.5zM318 108q62 0 105.5 50t43.5 121q0 57 -30.5 89.5t-82.5 32.5q-62 0 -105.5 -50t-43.5 -121q0 -57 30 -89.5
t83 -32.5z" />
    <glyph glyph-name="b" unicode="&#xe003;" horiz-adv-x="650" 
d="M336 -16q-112 0 -163 85l-16 -69h-132l157 810h139l-66 -345q28 28 68 44t84 16q90 0 144.5 -63.5t54.5 -167.5q0 -80 -35 -150.5t-97.5 -115t-137.5 -44.5zM318 108q62 0 105.5 50t43.5 121q0 57 -30.5 89.5t-82.5 32.5q-62 0 -105.5 -50t-43.5 -121q0 -57 30 -89.5
t83 -32.5z" />
    <glyph glyph-name="c" unicode="c" horiz-adv-x="539" 
d="M308 -13q-122 0 -192.5 64t-70.5 174q0 80 37.5 147.5t106 108.5t154.5 41q49 0 95.5 -12.5t76.5 -33.5l-28 -118q-26 19 -63 30t-72 11q-73 0 -120.5 -46t-47.5 -117q0 -57 40 -91.5t106 -34.5q63 0 121 30l-2 -121q-21 -13 -63 -22.5t-78 -9.5z" />
    <glyph glyph-name="d" unicode="d" horiz-adv-x="650" 
d="M243 -16q-90 0 -144.5 63.5t-54.5 167.5q0 80 35 150.5t97.5 115t137.5 44.5q106 0 159 -80l72 365h139l-157 -810h-131l8 55q-29 -33 -71.5 -52t-89.5 -19zM296 108q62 0 105.5 50t43.5 121q0 57 -30 89.5t-83 32.5q-62 0 -105.5 -50t-43.5 -121q0 -57 30.5 -89.5
t82.5 -32.5z" />
    <glyph glyph-name="e" unicode="e" horiz-adv-x="598" 
d="M317 -16q-128 0 -200 62.5t-72 173.5q0 83 36 152.5t102.5 111t150.5 41.5q99 0 158 -55.5t59 -150.5q0 -48 -15 -107h-358q5 -61 43.5 -87.5t119.5 -26.5q37 0 77.5 9t72.5 25l-1 -112q-29 -16 -76 -26t-97 -10zM422 309q1 5 1 15q0 45 -25.5 70t-71.5 25
q-49 0 -86.5 -29.5t-52.5 -80.5h235z" />
    <glyph glyph-name="f" unicode="f" horiz-adv-x="418" 
d="M142 394h-88l21 115h90l14 73q46 233 248 233q32 0 64 -8t52 -21l-29 -112q-38 20 -77 20q-50 0 -79.5 -31.5t-43.5 -99.5l-11 -54h133l-22 -115h-133l-76 -394h-139z" />
    <glyph glyph-name="g" horiz-adv-x="650" 
d="M225 -254q-60 0 -115.5 15.5t-90.5 41.5l31 119q76 -52 166 -52q79 0 121.5 39t59.5 128l2 12q-27 -31 -68 -48t-88 -17q-90 0 -144.5 63.5t-54.5 167.5q0 80 35 150.5t97.5 115t137.5 44.5q56 0 96.5 -21.5t66.5 -65.5l17 71h131l-89 -461q-31 -159 -104.5 -230.5
t-206.5 -71.5zM296 108q62 0 105.5 50t43.5 121q0 57 -30 89.5t-83 32.5q-62 0 -105.5 -50t-43.5 -121q0 -57 30.5 -89.5t82.5 -32.5z" />
    <glyph glyph-name="h" unicode="h" horiz-adv-x="615" 
d="M182 810h139l-68 -351q25 31 64 48.5t85 17.5q73 0 115.5 -43.5t42.5 -119.5q0 -30 -6 -62l-58 -300h-139l55 284q4 17 4 39q0 38 -19 58.5t-55 20.5q-47 0 -80.5 -34.5t-44.5 -93.5l-53 -274h-139z" />
    <glyph glyph-name="i" unicode="i" horiz-adv-x="287" 
d="M124 509h139l-99 -509h-139zM222 613q-34 0 -55 20.5t-21 53.5q0 38 25.5 62.5t64.5 24.5q34 0 54.5 -20t20.5 -53q0 -38 -25.5 -63t-63.5 -25z" />
    <glyph glyph-name="j" unicode="j" horiz-adv-x="287" 
d="M-76 -254q-37 0 -70 8.5t-52 22.5l29 110q33 -19 82 -19q44 0 71 30.5t40 95.5l100 515h139l-102 -523q-25 -128 -80.5 -184t-156.5 -56zM222 613q-34 0 -55 20.5t-21 53.5q0 38 26 62.5t65 24.5q33 0 53.5 -20t20.5 -53q0 -38 -25.5 -63t-63.5 -25z" />
    <glyph glyph-name="k" unicode="k" horiz-adv-x="602" 
d="M25 0l157 810h139l-95 -488l210 187h179l-277 -239l210 -270h-169l-170 233l-45 -233h-139z" />
    <glyph glyph-name="l" unicode="l" horiz-adv-x="287" 
d="M182 810h139l-157 -810h-139z" />
    <glyph glyph-name="m" unicode="m" horiz-adv-x="937" 
d="M124 509h134l-10 -57q25 35 65.5 54t87.5 19q49 0 85 -23.5t55 -67.5q28 44 74.5 67.5t102.5 23.5q79 0 121.5 -43t42.5 -122q0 -31 -6 -60l-58 -300h-139l55 284q5 28 5 39q0 38 -19 58.5t-55 20.5q-43 0 -76.5 -35.5t-44.5 -92.5l-53 -274h-139l56 284q3 20 3 39
q0 38 -19 58.5t-54 20.5q-43 0 -76.5 -35t-44.5 -93l-53 -274h-139z" />
    <glyph glyph-name="n" unicode="n" horiz-adv-x="615" 
d="M25 0l99 509h134l-10 -57q25 34 65.5 53.5t88.5 19.5q73 0 115.5 -43.5t42.5 -119.5q0 -30 -6 -62l-58 -300h-139l55 284q4 21 4 39q0 38 -19 58.5t-55 20.5q-47 0 -80.5 -34.5t-44.5 -93.5l-53 -274h-139z" />
    <glyph glyph-name="o" unicode="o" horiz-adv-x="628" 
d="M286 -16q-69 0 -123.5 29t-86 82.5t-31.5 124.5q0 81 37.5 150.5t106 112t153.5 42.5q69 0 124 -29t86.5 -82.5t31.5 -124.5q0 -81 -38 -150.5t-106.5 -112t-153.5 -42.5zM297 108q39 0 72.5 22t54.5 61.5t21 87.5q0 57 -30 89.5t-83 32.5q-62 0 -105.5 -50t-43.5 -121
q0 -56 30.5 -89t83.5 -33z" />
    <glyph glyph-name="p" unicode="p" horiz-adv-x="650" 
d="M124 509h131l-9 -55q28 34 70.5 52.5t90.5 18.5q90 0 144.5 -63.5t54.5 -167.5q0 -80 -35 -150.5t-97.5 -115t-137.5 -44.5q-55 0 -94.5 20t-65.5 61l-60 -310h-139zM318 108q62 0 105.5 50t43.5 121q0 57 -30.5 89.5t-82.5 32.5q-62 0 -105.5 -50t-43.5 -121
q0 -57 30 -89.5t83 -32.5z" />
    <glyph glyph-name="q" unicode="q" horiz-adv-x="650" 
d="M340 -245l56 291q-28 -29 -68 -45.5t-85 -16.5q-90 0 -144.5 63.5t-54.5 167.5q0 80 35 150.5t97.5 115t137.5 44.5q56 0 96.5 -21.5t66.5 -65.5l17 71h131l-146 -754h-139zM296 108q62 0 105.5 50t43.5 121q0 57 -30 89.5t-83 32.5q-62 0 -105.5 -50t-43.5 -121
q0 -57 30.5 -89.5t82.5 -32.5z" />
    <glyph glyph-name="r" unicode="r" horiz-adv-x="431" 
d="M25 0l99 509h132l-11 -75q21 36 61 60t79 24q37 0 65 -15l-33 -129q-26 14 -65 14q-52 0 -90 -45t-55 -126l-43 -217h-139z" />
    <glyph glyph-name="s" unicode="s" horiz-adv-x="477" 
d="M206 -16q-53 0 -108.5 16.5t-86.5 41.5l29 108q35 -26 77.5 -40.5t84.5 -14.5q35 0 56 12.5t21 32.5q0 18 -16.5 31t-65.5 34q-69 30 -100 68t-31 91q0 72 56.5 116.5t147.5 44.5q44 0 91 -13t82 -35l-26 -109q-33 21 -73.5 33.5t-74.5 12.5q-32 0 -50.5 -12t-18.5 -34
q0 -16 13 -27t53 -28q82 -35 116 -73t34 -93q0 -74 -57.5 -118.5t-152.5 -44.5z" />
    <glyph glyph-name="s" unicode="&#xe004;" horiz-adv-x="477" 
d="M206 -16q-53 0 -108.5 16.5t-86.5 41.5l29 108q35 -26 77.5 -40.5t84.5 -14.5q35 0 56 12.5t21 32.5q0 18 -16.5 31t-65.5 34q-69 30 -100 68t-31 91q0 72 56.5 116.5t147.5 44.5q44 0 91 -13t82 -35l-26 -109q-33 21 -73.5 33.5t-74.5 12.5q-32 0 -50.5 -12t-18.5 -34
q0 -16 13 -27t53 -28q82 -35 116 -73t34 -93q0 -74 -57.5 -118.5t-152.5 -44.5z" />
    <glyph glyph-name="t" unicode="t" horiz-adv-x="461" 
d="M264 -16q-171 0 -171 154q0 36 7 68l36 188h-96l22 115h97l27 138h139l-28 -138h144l-23 -115h-143l-36 -188q-5 -26 -5 -39q0 -32 15.5 -46t48.5 -14q49 0 91 19l-1 -116q-22 -12 -56 -19t-68 -7z" />
    <glyph glyph-name="u" unicode="u" horiz-adv-x="612" 
d="M211 -16q-77 0 -117 42t-40 121q0 27 7 62l59 300h139l-56 -284q-4 -24 -4 -40q0 -78 72 -78q47 0 80.5 34.5t44.5 93.5l53 274h139l-99 -509h-134l9 54q-26 -33 -66 -51.5t-87 -18.5z" />
    <glyph glyph-name="v" unicode="v" horiz-adv-x="559" 
d="M65 509h142l48 -362l185 362h152l-292 -509h-142z" />
    <glyph glyph-name="w" unicode="w" horiz-adv-x="838" 
d="M70 509h136l29 -346l161 346h124l39 -336l158 336h149l-268 -509h-127l-41 344l-159 -344h-130z" />
    <glyph glyph-name="x" unicode="x" horiz-adv-x="577" 
d="M213 271l-131 238h151l72 -155l124 155h158l-223 -256l140 -253h-150l-82 172l-139 -172h-158z" />
    <glyph glyph-name="y" horiz-adv-x="581" 
d="M178 45l-113 464h144l64 -328l189 328h152l-476 -754h-147z" />
    <glyph glyph-name="z" unicode="z" horiz-adv-x="527" 
d="M14 99l295 295h-230l23 115h409l-17 -99l-297 -295h260l-23 -115h-438z" />
    <glyph glyph-name="a.alt" unicode="a" horiz-adv-x="569" 
d="M190 -16q-77 0 -121 40.5t-44 109.5q0 82 61.5 133t161.5 51q71 0 132 -26q1 5 1 21q-2 50 -31.5 74.5t-90.5 24.5q-35 0 -74 -10.5t-68 -27.5l-2 112q29 17 75 28t90 11q110 0 171 -52t61 -145q0 -25 -6 -59l-52 -269h-125l6 44q-26 -28 -64.5 -44t-80.5 -16zM226 84
q47 0 84.5 32.5t52.5 86.5q-19 9 -47.5 15t-52.5 6q-49 0 -79.5 -22.5t-30.5 -58.5q0 -27 19.5 -43t53.5 -16z" />
    <glyph glyph-name="g.alt" unicode="g" horiz-adv-x="579" 
d="M192 -254q-122 0 -186 36.5t-64 106.5q0 49 31 85t90 54q-44 23 -44 74q0 32 25 63t66 50q-46 43 -46 111q0 55 30 100t86 72t128 27q71 0 118 -21l182 16l-16 -109l-75 5q13 -27 13 -57q0 -55 -30.5 -99.5t-87.5 -71t-130 -26.5q-48 0 -92 11q-40 -17 -40 -42
q0 -16 21 -24.5t76 -13.5l35 -3q105 -9 153.5 -46.5t48.5 -108.5q0 -87 -79 -138t-213 -51zM199 -145q71 0 110 19.5t39 54.5q0 53 -126 53q-68 0 -104 -17.5t-36 -50.5q0 -59 117 -59zM288 262q47 0 78.5 26t31.5 65q0 34 -23.5 53t-67.5 19q-47 0 -79 -26t-32 -65
q0 -34 24 -53t68 -19z" />
    <glyph glyph-name="j.alt" horiz-adv-x="287" 
d="M124 509h139l-147 -754h-139zM222 613q-34 0 -55 20.5t-21 53.5q0 38 25.5 62.5t64.5 24.5q34 0 54.5 -20t20.5 -53q0 -38 -25.5 -63t-63.5 -25z" />
    <glyph glyph-name="M.alt" horiz-adv-x="969" 
d="M189 760h147l151 -465l333 465h156l-147 -760h-140l102 530l-263 -367h-123l-121 367l-102 -530h-140z" />
    <glyph glyph-name="t.alt" horiz-adv-x="411" 
d="M154 394h-105l23 115h104l28 138h139l-28 -138h119l-22 -115h-119l-77 -394h-139z" />
    <glyph glyph-name="u.alt" horiz-adv-x="608" 
d="M274 -16q-104 0 -159 48.5t-55 138.5q0 28 7 67l53 271h139l-55 -281q-4 -19 -4 -38q0 -83 81 -83q48 0 75 29t39 92l54 281h139l-56 -288q-24 -122 -87 -179.5t-171 -57.5z" />
    <glyph glyph-name="y.alt" unicode="y" horiz-adv-x="587" 
d="M30 -254q-29 0 -57.5 7t-44.5 18l32 119q28 -18 64 -18q37 0 63.5 21.5t66.5 85.5l25 40l-115 490h143l64 -365l196 365h153l-332 -560q-66 -112 -124 -157.5t-134 -45.5z" />
    <glyph glyph-name="y.alt" unicode="&#xe006;" horiz-adv-x="587" 
d="M30 -254q-29 0 -57.5 7t-44.5 18l32 119q28 -18 64 -18q37 0 63.5 21.5t66.5 85.5l25 40l-115 490h143l64 -365l196 365h153l-332 -560q-66 -112 -124 -157.5t-134 -45.5z" />
    <glyph glyph-name="trademark" unicode="&#x2122;" horiz-adv-x="838" 
d="M487 760h104l49 -200l129 200h106l-50 -370h-92l33 228l-108 -165h-74l-42 171l-56 -234h-94zM196 676h-102l15 84h309l-16 -84h-103l-55 -286h-104z" />
    <glyph glyph-name="ordfeminine" unicode="&#xaa;" horiz-adv-x="466" 
d="M233 388q-60 0 -95.5 41t-35.5 110q0 59 24.5 109.5t68.5 81t98 30.5q70 0 104 -54l10 44h102l-69 -350h-100l5 39q-18 -25 -47 -38t-65 -13zM78 320h353l-18 -94h-353zM280 484q40 0 67 32t27 79q0 33 -18 51t-51 18q-40 0 -67 -32t-27 -79q0 -33 18 -51t51 -18z" />
    <glyph glyph-name="ordmasculine" unicode="&#xba;" horiz-adv-x="468" 
d="M273 388q-77 0 -124 44.5t-47 118.5q0 57 26.5 104.5t74.5 76t109 28.5q77 0 124 -44.5t47 -118.5q0 -57 -26.5 -104.5t-74.5 -76t-109 -28.5zM279 484q40 0 67.5 32t27.5 79q0 32 -18 50.5t-50 18.5q-40 0 -67.5 -32t-27.5 -79q0 -32 18 -50.5t50 -18.5zM74 320h353
l-18 -94h-353z" />
    <glyph glyph-name="copyright" unicode="&#xa9;" horiz-adv-x="810" 
d="M446 194q-91 0 -144.5 50t-53.5 136t55.5 139.5t144.5 53.5q30 0 61.5 -7.5t50.5 -18.5l-14 -94q-21 9 -46 15t-45 6q-42 0 -68.5 -25t-26.5 -66q0 -43 27.5 -67t74.5 -24q37 0 91 21l14 -93q-55 -26 -121 -26zM430 25q-100 0 -182 44.5t-131 126t-49 184.5
q0 98 45.5 178.5t128 128.5t188.5 48q99 0 181 -44t131 -125.5t49 -185.5q0 -98 -45 -178.5t-128 -128.5t-188 -48zM430 104q78 0 140.5 34t99 97t36.5 145q0 78 -34 140.5t-97 99t-145 36.5q-78 0 -140.5 -34t-99 -97t-36.5 -145q0 -78 34 -140.5t97 -99t145 -36.5z" />
    <glyph glyph-name="registered" unicode="&#xae;" horiz-adv-x="518" 
d="M327 386q-60 0 -110.5 28t-81.5 78.5t-31 113.5q0 60 28 109.5t79.5 80t115.5 30.5q61 0 111.5 -27.5t81 -78t30.5 -114.5q0 -60 -28 -110t-79 -80t-116 -30zM327 442q71 0 116.5 46t45.5 118t-45.5 118t-116.5 46q-45 0 -81.5 -20.5t-58 -58t-21.5 -85.5q0 -46 20 -83
t56.5 -59t84.5 -22zM243 715h83q43 0 67 -19t24 -53q0 -41 -32 -61l43 -76h-67l-30 59h-28v-59h-60v209zM303 616h19q17 0 25 6t8 19q0 24 -33 24h-19v-49z" />
    <glyph glyph-name="quoteleft" unicode="&#x2018;" horiz-adv-x="224" 
d="M87 512q6 71 34.5 136.5t73.5 111.5h107q-35 -47 -57.5 -113t-27.5 -135h-130z" />
    <glyph glyph-name="quoteright" unicode="&#x2019;" horiz-adv-x="224" 
d="M70 512q35 49 58 114.5t27 133.5h130q-6 -69 -35 -135t-74 -113h-106z" />
    <glyph glyph-name="quotesinglbase" horiz-adv-x="224" 
d="M-54 -126q35 49 58 114.5t27 133.5h130q-6 -69 -35 -135t-74 -113h-106z" />
    <glyph glyph-name="quotedblleft" unicode="&#x201c;" horiz-adv-x="421" 
d="M87 512q6 71 34.5 136.5t73.5 111.5h107q-35 -47 -57.5 -113t-27.5 -135h-130zM284 512q6 71 34.5 136.5t73.5 111.5h107q-35 -47 -57.5 -113t-27.5 -135h-130z" />
    <glyph glyph-name="quotedblright" unicode="&#x201d;" horiz-adv-x="421" 
d="M70 512q35 49 58 114.5t27 133.5h130q-6 -69 -35 -135t-74 -113h-106zM268 512q35 49 58 114.5t27 133.5h130q-6 -69 -35 -135t-74 -113h-106z" />
    <glyph glyph-name="quotedblbase" unicode="&#x201e;" horiz-adv-x="421" 
d="M-54 -126q35 49 58 114.5t27 133.5h130q-6 -69 -35 -135t-74 -113h-106zM144 -126q35 49 58 114.5t27 133.5h130q-6 -69 -35 -135t-74 -113h-106z" />
    <glyph glyph-name="periodcentered.loclCAT" horiz-adv-x="300" 
d="M165 298q-34 0 -55.5 20.5t-21.5 53.5q0 39 27 64.5t68 25.5q34 0 55.5 -20.5t21.5 -52.5q0 -40 -26.5 -65.5t-68.5 -25.5z" />
    <glyph glyph-name="periodcentered.loclCAT.cap" horiz-adv-x="300" 
d="M171 327q-34 0 -55.5 20.5t-21.5 53.5q0 39 27 64.5t68 25.5q34 0 55.5 -20.5t21.5 -52.5q0 -40 -26.5 -65.5t-68.5 -25.5z" />
    <glyph glyph-name="dotlessi" horiz-adv-x="287" 
d="M124 509h139l-99 -509h-139z" />
    <glyph glyph-name="uni0237" horiz-adv-x="287" 
d="M-76 -254q-37 0 -70 8.5t-52 22.5l29 110q33 -19 82 -19q44 0 71 30.5t40 95.5l100 515h139l-102 -523q-25 -128 -80.5 -184t-156.5 -56z" />
    <glyph glyph-name="uni0237.alt" horiz-adv-x="287" 
d="M124 509h139l-147 -754h-139z" />
    <glyph glyph-name="Thorn" unicode="&#xde;" horiz-adv-x="655" 
d="M190 760h147l-23 -120h59q126 0 198.5 -59t72.5 -160q0 -132 -85 -206.5t-237 -74.5h-106l-27 -140h-147zM240 263h86q80 0 125 39.5t45 110.5q0 50 -36 77t-104 27h-67z" />
    <glyph glyph-name="AE" unicode="&#xc6;" horiz-adv-x="1102" 
d="M554 760h555l-26 -128h-334l-36 -182h294l-23 -127h-295l-38 -195h361l-24 -128h-510l39 200h-237l-149 -200h-175zM540 318l60 310l-232 -310h172z" />
    <glyph glyph-name="OE" unicode="&#x152;" horiz-adv-x="1251" 
d="M444 120q70 0 130 38t97.5 106.5t37.5 153.5q0 101 -58.5 161.5t-154.5 60.5q-70 0 -130.5 -38t-98 -107t-37.5 -153q0 -100 58.5 -161t155.5 -61zM401 -16q-93 0 -167 43t-117 122.5t-43 182.5q0 118 52 219t147 163t214 62q91 0 160 -37.5t104 -104.5l24 126h483
l-26 -128h-334l-36 -182h294l-23 -127h-295l-38 -195h361l-24 -128h-510l15 79q-42 -47 -103.5 -71t-137.5 -24z" />
    <glyph glyph-name="thorn" unicode="&#xfe;" horiz-adv-x="650" 
d="M182 810h139l-69 -349q29 30 70 47t85 17q90 0 144.5 -63.5t54.5 -167.5q0 -80 -35 -150.5t-97.5 -115t-137.5 -44.5q-55 0 -94.5 20t-65.5 61l-60 -310h-139zM318 108q62 0 105.5 50t43.5 121q0 57 -30.5 89.5t-82.5 32.5q-62 0 -105.5 -50t-43.5 -121q0 -57 30 -89.5
t83 -32.5z" />
    <glyph glyph-name="ae" horiz-adv-x="992" 
d="M243 -16q-90 0 -144.5 63.5t-54.5 167.5q0 80 35 150.5t97.5 115t137.5 44.5q56 0 96.5 -21.5t66.5 -65.5l17 71h107l-9 -47q25 30 65 46.5t87 16.5q90 0 145.5 -57t55.5 -149q0 -48 -15 -107h-358q5 -61 43.5 -87.5t119.5 -26.5q37 0 77.5 9t72.5 25l-1 -112
q-29 -16 -76 -26t-97 -10q-138 0 -197 79l-12 -63h-106l8 55q-29 -33 -71.5 -52t-89.5 -19zM296 108q62 0 105.5 50t43.5 121q0 57 -30 89.5t-83 32.5q-62 0 -105.5 -50t-43.5 -121q0 -57 30.5 -89.5t82.5 -32.5zM816 309q1 5 1 15q0 45 -25.5 70t-71.5 25
q-49 0 -86.5 -29.5t-52.5 -80.5h235z" />
    <glyph glyph-name="oe" unicode="&#x153;" horiz-adv-x="992" 
d="M275 -16q-66 0 -118 28.5t-82 82.5t-30 125q0 81 37.5 150.5t106.5 112t154 42.5q63 0 111 -27t73 -76q34 49 86.5 76t114.5 27q99 0 158 -55.5t59 -150.5q0 -48 -15 -107h-358q5 -61 43.5 -87.5t119.5 -26.5q37 0 77.5 9t72.5 25l-1 -112q-29 -16 -76 -26t-97 -10
q-162 0 -220 100q-36 -49 -91.5 -74.5t-124.5 -25.5zM297 108q39 0 72.5 22t54.5 61.5t21 87.5q0 57 -30 89.5t-83 32.5q-62 0 -105.5 -50t-43.5 -121q0 -56 30.5 -89t83.5 -33zM816 309q1 5 1 15q0 45 -25.5 70t-71.5 25q-49 0 -86.5 -29.5t-52.5 -80.5h235z" />
    <glyph glyph-name="germandbls" unicode="&#xdf;" horiz-adv-x="676" 
d="M356 -16q-40 0 -79 9.5t-61 24.5l30 113q44 -29 102 -29q62 0 101.5 39.5t39.5 103.5q0 60 -39.5 86t-127.5 26l21 112h25q64 0 104 37.5t40 96.5q0 43 -26 68.5t-71 25.5q-59 0 -95.5 -41.5t-53.5 -128.5l-102 -527h-139l105 543q52 272 296 272q101 0 163.5 -53.5
t62.5 -140.5q0 -68 -36 -121.5t-100 -79.5q52 -19 82.5 -66.5t30.5 -106.5q0 -76 -33 -135.5t-95 -93.5t-145 -34z" />
    <glyph glyph-name="ae.alt" unicode="&#xe6;" horiz-adv-x="922" 
d="M197 -16q-81 0 -126.5 39.5t-45.5 110.5q0 82 61.5 133t161.5 51q71 0 132 -26q1 5 1 21q-2 50 -31.5 74.5t-90.5 24.5q-35 0 -74 -10.5t-68 -27.5l-2 112q29 17 75 28t90 11q140 0 191 -90q32 43 82 66.5t109 23.5q97 0 155 -56t58 -150q0 -48 -15 -107h-358
q5 -61 43.5 -87.5t119.5 -26.5q37 0 77.5 9t72.5 25l-1 -112q-29 -16 -76 -26t-97 -10q-178 0 -233 109q-27 -50 -84 -79.5t-127 -29.5zM226 84q49 0 85.5 32t51.5 87q-19 9 -47.5 15t-52.5 6q-49 0 -79.5 -22.5t-30.5 -58.5q0 -27 19.5 -43t53.5 -16zM746 309q1 5 1 15
q0 45 -25.5 70t-71.5 25q-49 0 -86.5 -29.5t-52.5 -80.5h235z" />
    <glyph glyph-name="Eth" unicode="&#xd0;" horiz-adv-x="865" 
d="M127 329h-92l20 107h93l63 324h256q179 0 276 -85.5t97 -241.5q0 -127 -57 -225t-165 -153t-253 -55h-302zM240 123h133q90 0 160 36.5t110 105.5t40 160q0 103 -59 157.5t-170 54.5h-115l-39 -201h150l-20 -107h-151z" />
    <glyph glyph-name="Oslash" unicode="&#xd8;" horiz-adv-x="892" 
d="M435 -16q-69 0 -131 21.5t-111 61.5l-97 -87l-64 72l98 87q-55 87 -55 198q0 117 54.5 217t153.5 161t223 61q70 0 131.5 -21.5t109.5 -62.5l98 88l64 -72l-98 -88q55 -86 55 -197q0 -86 -30 -164t-87.5 -140t-138.5 -98.5t-175 -36.5zM445 120q70 0 130 38t97.5 106.5
t37.5 153.5q0 51 -17 96l-389 -347q56 -47 141 -47zM636 593q-58 47 -141 47q-70 0 -130 -38t-97 -107t-37 -153q0 -52 17 -97z" />
    <glyph glyph-name="eth" unicode="&#xf0;" horiz-adv-x="643" 
d="M290 -16q-113 0 -179 64t-66 174q0 78 34 146t95 110.5t135 42.5q79 0 132 -46q-24 89 -57 148l-159 -59l-30 82l140 52q-37 49 -92 101l153 11q30 -29 60 -68l120 45l30 -82l-100 -37q42 -76 64 -159t22 -167q0 -104 -37 -185t-105.5 -127t-159.5 -46zM298 107
q40 0 74 21.5t55 60.5t21 87q0 56 -31 88.5t-84 32.5q-39 0 -73 -21.5t-55.5 -61t-21.5 -87.5q0 -56 30.5 -88t84.5 -32z" />
    <glyph glyph-name="oslash" unicode="&#xf8;" horiz-adv-x="628" 
d="M12 37l64 58q-32 53 -32 125q0 81 37.5 150.5t106 112t153.5 42.5q92 0 156 -49l62 56l56 -60l-64 -58q32 -58 32 -125q0 -81 -38 -150.5t-106.5 -112t-153.5 -42.5q-92 0 -155 49l-62 -56zM402 390q-29 20 -70 20t-77 -23t-58.5 -65t-22.5 -93q0 -26 4 -42zM295 99
q41 0 77 23.5t58.5 65.5t22.5 93q0 18 -5 40l-224 -203q28 -19 71 -19z" />
    <glyph glyph-name="uni0327" horiz-adv-x="0" 
d="M-120 -262q-31 0 -58.5 6.5t-43.5 16.5l23 72q14 -7 33.5 -12t36.5 -5q29 0 45 10.5t16 29.5q0 30 -49 30q-21 0 -39 -4l56 128h82l-29 -67q80 -14 80 -89q0 -53 -41.5 -84.5t-111.5 -31.5z" />
    <glyph glyph-name="uni0327.cap" horiz-adv-x="0" 
d="M-128 -262q-31 0 -59 6t-42 16l23 77q13 -8 32 -13t38 -5q57 0 57 36q0 28 -51 28q-22 0 -34 -3l56 130h85l-29 -67q40 -7 61.5 -30.5t21.5 -58.5q0 -55 -42 -85.5t-117 -30.5z" />
    <glyph glyph-name="cedilla" unicode="&#xb8;" horiz-adv-x="500" 
d="M136 -262q-31 0 -58.5 6.5t-43.5 16.5l23 72q14 -7 33.5 -12t36.5 -5q29 0 45 10.5t16 29.5q0 30 -49 30q-21 0 -39 -4l56 128h82l-29 -67q80 -14 80 -89q0 -53 -41.5 -84.5t-111.5 -31.5z" />
    <glyph glyph-name="Ccedilla" unicode="&#xc7;" horiz-adv-x="766" 
d="M442 -11q-107 0 -190 42.5t-129.5 123t-46.5 188.5q0 117 55 214t155 155.5t227 58.5q66 0 134.5 -18.5t113.5 -47.5l-36 -129q-103 59 -215 59q-76 0 -139 -36t-101 -101t-38 -147q0 -103 64.5 -164.5t171.5 -61.5q105 0 200 52l-1 -136q-97 -52 -225 -52zM310 -262
q-31 0 -59 6t-42 16l23 77q13 -8 32 -13t38 -5q57 0 57 36q0 28 -51 28q-22 0 -34 -3l56 130h85l-29 -67q40 -7 61.5 -30.5t21.5 -58.5q0 -55 -42 -85.5t-117 -30.5z" />
    <glyph glyph-name="ccedilla" unicode="&#xe7;" horiz-adv-x="539" 
d="M308 -13q-122 0 -192.5 64t-70.5 174q0 80 37.5 147.5t106 108.5t154.5 41q49 0 95.5 -12.5t76.5 -33.5l-28 -118q-26 19 -63 30t-72 11q-73 0 -120.5 -46t-47.5 -117q0 -57 40 -91.5t106 -34.5q63 0 121 30l-2 -121q-21 -13 -63 -22.5t-78 -9.5zM199 -262
q-31 0 -58.5 6.5t-43.5 16.5l23 72q14 -7 33.5 -12t36.5 -5q29 0 45 10.5t16 29.5q0 30 -49 30q-21 0 -39 -4l56 128h82l-29 -67q80 -14 80 -89q0 -53 -41.5 -84.5t-111.5 -31.5z" />
    <glyph glyph-name="acutecomb" horiz-adv-x="0" 
d="M110 777h157l-167 -167h-122z" />
    <glyph glyph-name="acutecomb.cap" horiz-adv-x="0" 
d="M129 978h173l-174 -143h-132z" />
    <glyph glyph-name="acute" unicode="&#xb4;" horiz-adv-x="500" 
d="M323 777h157l-167 -167h-122z" />
    <glyph glyph-name="Aacute" unicode="&#xc1;" horiz-adv-x="794" 
d="M417 760h156l149 -760h-160l-32 200h-287l-109 -200h-160zM512 318l-46 291l-159 -291h205zM539 978h173l-174 -143h-132z" />
    <glyph glyph-name="Eacute" unicode="&#xc9;" horiz-adv-x="666" 
d="M190 760h483l-26 -128h-334l-36 -182h294l-23 -127h-295l-38 -195h361l-24 -128h-510zM488 978h173l-174 -143h-132z" />
    <glyph glyph-name="Iacute" unicode="&#xcd;" horiz-adv-x="335" 
d="M190 760h153l-148 -760h-153zM310 978h173l-174 -143h-132z" />
    <glyph glyph-name="Oacute" unicode="&#xd3;" horiz-adv-x="892" 
d="M445 120q70 0 130 38t97.5 106.5t37.5 153.5q0 101 -58.5 161.5t-156.5 60.5q-70 0 -130 -38t-97 -107t-37 -153q0 -100 58.5 -161t155.5 -61zM435 -16q-102 0 -183.5 44t-129 124.5t-47.5 184.5q0 117 54.5 217t153.5 161t223 61q102 0 183.5 -44t129 -124.5
t47.5 -184.5q0 -86 -30 -164t-87.5 -140t-138.5 -98.5t-175 -36.5zM577 978h173l-174 -143h-132z" />
    <glyph glyph-name="Uacute" unicode="&#xda;" horiz-adv-x="834" 
d="M395 -16q-144 0 -222.5 72t-78.5 205q0 36 11 95l78 404h154l-80 -407q-8 -43 -8 -71q0 -80 39 -121t116 -41q88 0 136 52t71 171l82 417h154l-87 -444q-34 -170 -123 -251t-242 -81zM552 978h173l-174 -143h-132z" />
    <glyph glyph-name="Yacute" unicode="&#xdd;" horiz-adv-x="722" 
d="M296 318l-187 442h159l121 -323l246 323h174l-362 -446l-61 -314h-152zM504 978h173l-174 -143h-132z" />
    <glyph glyph-name="aacute" horiz-adv-x="650" 
d="M243 -16q-90 0 -144.5 63.5t-54.5 167.5q0 80 35 150.5t97.5 115t137.5 44.5q56 0 96.5 -21.5t66.5 -65.5l17 71h131l-98 -509h-131l8 55q-29 -33 -71.5 -52t-89.5 -19zM296 108q62 0 105.5 50t43.5 121q0 57 -30 89.5t-83 32.5q-62 0 -105.5 -50t-43.5 -121
q0 -57 30.5 -89.5t82.5 -32.5zM437 777h157l-167 -167h-122z" />
    <glyph glyph-name="eacute" unicode="&#xe9;" horiz-adv-x="598" 
d="M317 -16q-128 0 -200 62.5t-72 173.5q0 83 36 152.5t102.5 111t150.5 41.5q99 0 158 -55.5t59 -150.5q0 -48 -15 -107h-358q5 -61 43.5 -87.5t119.5 -26.5q37 0 77.5 9t72.5 25l-1 -112q-29 -16 -76 -26t-97 -10zM422 309q1 5 1 15q0 45 -25.5 70t-71.5 25
q-49 0 -86.5 -29.5t-52.5 -80.5h235zM398 777h157l-167 -167h-122z" />
    <glyph glyph-name="iacute" unicode="&#xed;" horiz-adv-x="287" 
d="M124 509h139l-99 -509h-139zM252 777h157l-167 -167h-122z" />
    <glyph glyph-name="oacute" unicode="&#xf3;" horiz-adv-x="628" 
d="M286 -16q-69 0 -123.5 29t-86 82.5t-31.5 124.5q0 81 37.5 150.5t106 112t153.5 42.5q69 0 124 -29t86.5 -82.5t31.5 -124.5q0 -81 -38 -150.5t-106.5 -112t-153.5 -42.5zM297 108q39 0 72.5 22t54.5 61.5t21 87.5q0 57 -30 89.5t-83 32.5q-62 0 -105.5 -50t-43.5 -121
q0 -56 30.5 -89t83.5 -33zM420 777h157l-167 -167h-122z" />
    <glyph glyph-name="uacute" unicode="&#xfa;" horiz-adv-x="612" 
d="M211 -16q-77 0 -117 42t-40 121q0 27 7 62l59 300h139l-56 -284q-4 -24 -4 -40q0 -78 72 -78q47 0 80.5 34.5t44.5 93.5l53 274h139l-99 -509h-134l9 54q-26 -33 -66 -51.5t-87 -18.5zM406 777h157l-167 -167h-122z" />
    <glyph glyph-name="yacute" horiz-adv-x="581" 
d="M178 45l-113 464h144l64 -328l189 328h152l-476 -754h-147zM397 777h157l-167 -167h-122z" />
    <glyph glyph-name="aacute.alt" unicode="&#xe1;" horiz-adv-x="569" 
d="M190 -16q-77 0 -121 40.5t-44 109.5q0 82 61.5 133t161.5 51q71 0 132 -26q1 5 1 21q-2 50 -31.5 74.5t-90.5 24.5q-35 0 -74 -10.5t-68 -27.5l-2 112q29 17 75 28t90 11q110 0 171 -52t61 -145q0 -25 -6 -59l-52 -269h-125l6 44q-26 -28 -64.5 -44t-80.5 -16zM226 84
q47 0 84.5 32.5t52.5 86.5q-19 9 -47.5 15t-52.5 6q-49 0 -79.5 -22.5t-30.5 -58.5q0 -27 19.5 -43t53.5 -16zM374 777h157l-167 -167h-122z" />
    <glyph glyph-name="uacute.alt" horiz-adv-x="608" 
d="M274 -16q-104 0 -159 48.5t-55 138.5q0 28 7 67l53 271h139l-55 -281q-4 -19 -4 -38q0 -83 81 -83q48 0 75 29t39 92l54 281h139l-56 -288q-24 -122 -87 -179.5t-171 -57.5zM407 777h157l-167 -167h-122z" />
    <glyph glyph-name="yacute.alt" unicode="&#xfd;" horiz-adv-x="587" 
d="M30 -254q-29 0 -57.5 7t-44.5 18l32 119q28 -18 64 -18q37 0 63.5 21.5t66.5 85.5l25 40l-115 490h143l64 -365l196 365h153l-332 -560q-66 -112 -124 -157.5t-134 -45.5zM394 777h157l-167 -167h-122z" />
    <glyph glyph-name="gravecomb" horiz-adv-x="0" 
d="M-49 777h146l72 -167h-114z" />
    <glyph glyph-name="gravecomb.cap" horiz-adv-x="0" 
d="M-16 978h160l83 -143h-126z" />
    <glyph glyph-name="grave" unicode="`" horiz-adv-x="500" 
d="M226 777h146l72 -167h-114z" />
    <glyph glyph-name="Agrave" unicode="&#xc0;" horiz-adv-x="794" 
d="M417 760h156l149 -760h-160l-32 200h-287l-109 -200h-160zM512 318l-46 291l-159 -291h205zM351 978h160l83 -143h-126z" />
    <glyph glyph-name="Egrave" unicode="&#xc8;" horiz-adv-x="666" 
d="M190 760h483l-26 -128h-334l-36 -182h294l-23 -127h-295l-38 -195h361l-24 -128h-510zM300 978h160l83 -143h-126z" />
    <glyph glyph-name="Igrave" unicode="&#xcc;" horiz-adv-x="335" 
d="M190 760h153l-148 -760h-153zM122 978h160l83 -143h-126z" />
    <glyph glyph-name="Ograve" unicode="&#xd2;" horiz-adv-x="892" 
d="M445 120q70 0 130 38t97.5 106.5t37.5 153.5q0 101 -58.5 161.5t-156.5 60.5q-70 0 -130 -38t-97 -107t-37 -153q0 -100 58.5 -161t155.5 -61zM435 -16q-102 0 -183.5 44t-129 124.5t-47.5 184.5q0 117 54.5 217t153.5 161t223 61q102 0 183.5 -44t129 -124.5
t47.5 -184.5q0 -86 -30 -164t-87.5 -140t-138.5 -98.5t-175 -36.5zM389 978h160l83 -143h-126z" />
    <glyph glyph-name="Ugrave" unicode="&#xd9;" horiz-adv-x="834" 
d="M395 -16q-144 0 -222.5 72t-78.5 205q0 36 11 95l78 404h154l-80 -407q-8 -43 -8 -71q0 -80 39 -121t116 -41q88 0 136 52t71 171l82 417h154l-87 -444q-34 -170 -123 -251t-242 -81zM364 978h160l83 -143h-126z" />
    <glyph glyph-name="agrave" horiz-adv-x="650" 
d="M243 -16q-90 0 -144.5 63.5t-54.5 167.5q0 80 35 150.5t97.5 115t137.5 44.5q56 0 96.5 -21.5t66.5 -65.5l17 71h131l-98 -509h-131l8 55q-29 -33 -71.5 -52t-89.5 -19zM296 108q62 0 105.5 50t43.5 121q0 57 -30 89.5t-83 32.5q-62 0 -105.5 -50t-43.5 -121
q0 -57 30.5 -89.5t82.5 -32.5zM250 777h146l72 -167h-114z" />
    <glyph glyph-name="egrave" unicode="&#xe8;" horiz-adv-x="598" 
d="M317 -16q-128 0 -200 62.5t-72 173.5q0 83 36 152.5t102.5 111t150.5 41.5q99 0 158 -55.5t59 -150.5q0 -48 -15 -107h-358q5 -61 43.5 -87.5t119.5 -26.5q37 0 77.5 9t72.5 25l-1 -112q-29 -16 -76 -26t-97 -10zM422 309q1 5 1 15q0 45 -25.5 70t-71.5 25
q-49 0 -86.5 -29.5t-52.5 -80.5h235zM211 777h146l72 -167h-114z" />
    <glyph glyph-name="igrave" unicode="&#xec;" horiz-adv-x="287" 
d="M124 509h139l-99 -509h-139zM65 777h146l72 -167h-114z" />
    <glyph glyph-name="ograve" unicode="&#xf2;" horiz-adv-x="628" 
d="M286 -16q-69 0 -123.5 29t-86 82.5t-31.5 124.5q0 81 37.5 150.5t106 112t153.5 42.5q69 0 124 -29t86.5 -82.5t31.5 -124.5q0 -81 -38 -150.5t-106.5 -112t-153.5 -42.5zM297 108q39 0 72.5 22t54.5 61.5t21 87.5q0 57 -30 89.5t-83 32.5q-62 0 -105.5 -50t-43.5 -121
q0 -56 30.5 -89t83.5 -33zM233 777h146l72 -167h-114z" />
    <glyph glyph-name="ugrave" unicode="&#xf9;" horiz-adv-x="612" 
d="M211 -16q-77 0 -117 42t-40 121q0 27 7 62l59 300h139l-56 -284q-4 -24 -4 -40q0 -78 72 -78q47 0 80.5 34.5t44.5 93.5l53 274h139l-99 -509h-134l9 54q-26 -33 -66 -51.5t-87 -18.5zM219 777h146l72 -167h-114z" />
    <glyph glyph-name="agrave.alt" unicode="&#xe0;" horiz-adv-x="569" 
d="M190 -16q-77 0 -121 40.5t-44 109.5q0 82 61.5 133t161.5 51q71 0 132 -26q1 5 1 21q-2 50 -31.5 74.5t-90.5 24.5q-35 0 -74 -10.5t-68 -27.5l-2 112q29 17 75 28t90 11q110 0 171 -52t61 -145q0 -25 -6 -59l-52 -269h-125l6 44q-26 -28 -64.5 -44t-80.5 -16zM226 84
q47 0 84.5 32.5t52.5 86.5q-19 9 -47.5 15t-52.5 6q-49 0 -79.5 -22.5t-30.5 -58.5q0 -27 19.5 -43t53.5 -16zM187 777h146l72 -167h-114z" />
    <glyph glyph-name="ugrave.alt" horiz-adv-x="608" 
d="M274 -16q-104 0 -159 48.5t-55 138.5q0 28 7 67l53 271h139l-55 -281q-4 -19 -4 -38q0 -83 81 -83q48 0 75 29t39 92l54 281h139l-56 -288q-24 -122 -87 -179.5t-171 -57.5zM220 777h146l72 -167h-114z" />
    <glyph glyph-name="uni0302" horiz-adv-x="0" 
d="M43 777h117l103 -167h-114l-56 91l-91 -91h-127z" />
    <glyph glyph-name="uni0302.cap" horiz-adv-x="0" 
d="M74 986h133l111 -151h-129l-54 77l-86 -77h-142z" />
    <glyph glyph-name="tildecomb" horiz-adv-x="0" 
d="M152 613q-28 0 -46 9.5t-31 21t-25 21t-28 9.5q-18 0 -28 -14t-15 -45h-93q10 76 43.5 115t88.5 39q27 0 45.5 -9.5t31 -21t25 -21t27.5 -9.5q18 0 28 13.5t16 45.5h92q-10 -76 -43 -115t-88 -39z" />
    <glyph glyph-name="tildecomb.cap" horiz-adv-x="0" 
d="M193 832q-27 0 -45 9t-31 21t-25 21t-27 9q-18 0 -28 -13t-17 -45h-91q10 77 43.5 116.5t87.5 39.5q28 0 46 -9.5t31 -21t25 -21t28 -9.5q18 0 28 14t15 45h93q-23 -156 -133 -156z" />
    <glyph glyph-name="tilde" unicode="&#x2dc;" horiz-adv-x="500" 
d="M423 613q-28 0 -46 9.5t-31 21t-25 21t-28 9.5q-18 0 -28 -14t-15 -45h-93q10 76 43.5 115t88.5 39q27 0 45.5 -9.5t31 -21t25 -21t27.5 -9.5q18 0 28 13.5t16 45.5h92q-10 -76 -43 -115t-88 -39z" />
    <glyph glyph-name="Acircumflex" unicode="&#xc2;" horiz-adv-x="794" 
d="M417 760h156l149 -760h-160l-32 200h-287l-109 -200h-160zM512 318l-46 291l-159 -291h205zM464 986h133l111 -151h-129l-54 77l-86 -77h-142z" />
    <glyph glyph-name="Ecircumflex" unicode="&#xca;" horiz-adv-x="666" 
d="M190 760h483l-26 -128h-334l-36 -182h294l-23 -127h-295l-38 -195h361l-24 -128h-510zM413 986h133l111 -151h-129l-54 77l-86 -77h-142z" />
    <glyph glyph-name="Icircumflex" unicode="&#xce;" horiz-adv-x="335" 
d="M190 760h153l-148 -760h-153zM235 986h133l111 -151h-129l-54 77l-86 -77h-142z" />
    <glyph glyph-name="Ocircumflex" unicode="&#xd4;" horiz-adv-x="892" 
d="M445 120q70 0 130 38t97.5 106.5t37.5 153.5q0 101 -58.5 161.5t-156.5 60.5q-70 0 -130 -38t-97 -107t-37 -153q0 -100 58.5 -161t155.5 -61zM435 -16q-102 0 -183.5 44t-129 124.5t-47.5 184.5q0 117 54.5 217t153.5 161t223 61q102 0 183.5 -44t129 -124.5
t47.5 -184.5q0 -86 -30 -164t-87.5 -140t-138.5 -98.5t-175 -36.5zM502 986h133l111 -151h-129l-54 77l-86 -77h-142z" />
    <glyph glyph-name="Ucircumflex" unicode="&#xdb;" horiz-adv-x="834" 
d="M395 -16q-144 0 -222.5 72t-78.5 205q0 36 11 95l78 404h154l-80 -407q-8 -43 -8 -71q0 -80 39 -121t116 -41q88 0 136 52t71 171l82 417h154l-87 -444q-34 -170 -123 -251t-242 -81zM477 986h133l111 -151h-129l-54 77l-86 -77h-142z" />
    <glyph glyph-name="Atilde" unicode="&#xc3;" horiz-adv-x="794" 
d="M417 760h156l149 -760h-160l-32 200h-287l-109 -200h-160zM512 318l-46 291l-159 -291h205zM583 832q-27 0 -45 9t-31 21t-25 21t-27 9q-18 0 -28 -13t-17 -45h-91q10 77 43.5 116.5t87.5 39.5q28 0 46 -9.5t31 -21t25 -21t28 -9.5q18 0 28 14t15 45h93
q-23 -156 -133 -156z" />
    <glyph glyph-name="Ntilde" unicode="&#xd1;" horiz-adv-x="848" 
d="M190 760h136l280 -542l105 542h145l-148 -760h-136l-281 541l-104 -541h-145zM613 832q-27 0 -45 9t-31 21t-25 21t-27 9q-18 0 -28 -13t-17 -45h-91q10 77 43.5 116.5t87.5 39.5q28 0 46 -9.5t31 -21t25 -21t28 -9.5q18 0 28 14t15 45h93q-23 -156 -133 -156z" />
    <glyph glyph-name="Otilde" unicode="&#xd5;" horiz-adv-x="892" 
d="M445 120q70 0 130 38t97.5 106.5t37.5 153.5q0 101 -58.5 161.5t-156.5 60.5q-70 0 -130 -38t-97 -107t-37 -153q0 -100 58.5 -161t155.5 -61zM435 -16q-102 0 -183.5 44t-129 124.5t-47.5 184.5q0 117 54.5 217t153.5 161t223 61q102 0 183.5 -44t129 -124.5
t47.5 -184.5q0 -86 -30 -164t-87.5 -140t-138.5 -98.5t-175 -36.5zM621 832q-27 0 -45 9t-31 21t-25 21t-27 9q-18 0 -28 -13t-17 -45h-91q10 77 43.5 116.5t87.5 39.5q28 0 46 -9.5t31 -21t25 -21t28 -9.5q18 0 28 14t15 45h93q-23 -156 -133 -156z" />
    <glyph glyph-name="acircumflex" horiz-adv-x="650" 
d="M243 -16q-90 0 -144.5 63.5t-54.5 167.5q0 80 35 150.5t97.5 115t137.5 44.5q56 0 96.5 -21.5t66.5 -65.5l17 71h131l-98 -509h-131l8 55q-29 -33 -71.5 -52t-89.5 -19zM296 108q62 0 105.5 50t43.5 121q0 57 -30 89.5t-83 32.5q-62 0 -105.5 -50t-43.5 -121
q0 -57 30.5 -89.5t82.5 -32.5zM367 777h117l103 -167h-114l-56 91l-91 -91h-127z" />
    <glyph glyph-name="ecircumflex" unicode="&#xea;" horiz-adv-x="598" 
d="M317 -16q-128 0 -200 62.5t-72 173.5q0 83 36 152.5t102.5 111t150.5 41.5q99 0 158 -55.5t59 -150.5q0 -48 -15 -107h-358q5 -61 43.5 -87.5t119.5 -26.5q37 0 77.5 9t72.5 25l-1 -112q-29 -16 -76 -26t-97 -10zM422 309q1 5 1 15q0 45 -25.5 70t-71.5 25
q-49 0 -86.5 -29.5t-52.5 -80.5h235zM328 777h117l103 -167h-114l-56 91l-91 -91h-127z" />
    <glyph glyph-name="icircumflex" unicode="&#xee;" horiz-adv-x="287" 
d="M124 509h139l-99 -509h-139zM182 777h117l103 -167h-114l-56 91l-91 -91h-127z" />
    <glyph glyph-name="ocircumflex" unicode="&#xf4;" horiz-adv-x="628" 
d="M286 -16q-69 0 -123.5 29t-86 82.5t-31.5 124.5q0 81 37.5 150.5t106 112t153.5 42.5q69 0 124 -29t86.5 -82.5t31.5 -124.5q0 -81 -38 -150.5t-106.5 -112t-153.5 -42.5zM297 108q39 0 72.5 22t54.5 61.5t21 87.5q0 57 -30 89.5t-83 32.5q-62 0 -105.5 -50t-43.5 -121
q0 -56 30.5 -89t83.5 -33zM350 777h117l103 -167h-114l-56 91l-91 -91h-127z" />
    <glyph glyph-name="ucircumflex" unicode="&#xfb;" horiz-adv-x="612" 
d="M211 -16q-77 0 -117 42t-40 121q0 27 7 62l59 300h139l-56 -284q-4 -24 -4 -40q0 -78 72 -78q47 0 80.5 34.5t44.5 93.5l53 274h139l-99 -509h-134l9 54q-26 -33 -66 -51.5t-87 -18.5zM336 777h117l103 -167h-114l-56 91l-91 -91h-127z" />
    <glyph glyph-name="atilde" horiz-adv-x="650" 
d="M243 -16q-90 0 -144.5 63.5t-54.5 167.5q0 80 35 150.5t97.5 115t137.5 44.5q56 0 96.5 -21.5t66.5 -65.5l17 71h131l-98 -509h-131l8 55q-29 -33 -71.5 -52t-89.5 -19zM296 108q62 0 105.5 50t43.5 121q0 57 -30 89.5t-83 32.5q-62 0 -105.5 -50t-43.5 -121
q0 -57 30.5 -89.5t82.5 -32.5zM477 613q-28 0 -46 9.5t-31 21t-25 21t-28 9.5q-18 0 -28 -14t-15 -45h-93q10 76 43.5 115t88.5 39q27 0 45.5 -9.5t31 -21t25 -21t27.5 -9.5q18 0 28 13.5t16 45.5h92q-10 -76 -43 -115t-88 -39z" />
    <glyph glyph-name="ntilde" unicode="&#xf1;" horiz-adv-x="615" 
d="M25 0l99 509h134l-10 -57q25 34 65.5 53.5t88.5 19.5q73 0 115.5 -43.5t42.5 -119.5q0 -30 -6 -62l-58 -300h-139l55 284q4 21 4 39q0 38 -19 58.5t-55 20.5q-47 0 -80.5 -34.5t-44.5 -93.5l-53 -274h-139zM461 613q-28 0 -46 9.5t-31 21t-25 21t-28 9.5q-18 0 -28 -14
t-15 -45h-93q10 76 43.5 115t88.5 39q27 0 45.5 -9.5t31 -21t25 -21t27.5 -9.5q18 0 28 13.5t16 45.5h92q-10 -76 -43 -115t-88 -39z" />
    <glyph glyph-name="otilde" unicode="&#xf5;" horiz-adv-x="628" 
d="M286 -16q-69 0 -123.5 29t-86 82.5t-31.5 124.5q0 81 37.5 150.5t106 112t153.5 42.5q69 0 124 -29t86.5 -82.5t31.5 -124.5q0 -81 -38 -150.5t-106.5 -112t-153.5 -42.5zM297 108q39 0 72.5 22t54.5 61.5t21 87.5q0 57 -30 89.5t-83 32.5q-62 0 -105.5 -50t-43.5 -121
q0 -56 30.5 -89t83.5 -33zM460 613q-28 0 -46 9.5t-31 21t-25 21t-28 9.5q-18 0 -28 -14t-15 -45h-93q10 76 43.5 115t88.5 39q27 0 45.5 -9.5t31 -21t25 -21t27.5 -9.5q18 0 28 13.5t16 45.5h92q-10 -76 -43 -115t-88 -39z" />
    <glyph glyph-name="acircumflex.alt" unicode="&#xe2;" horiz-adv-x="569" 
d="M190 -16q-77 0 -121 40.5t-44 109.5q0 82 61.5 133t161.5 51q71 0 132 -26q1 5 1 21q-2 50 -31.5 74.5t-90.5 24.5q-35 0 -74 -10.5t-68 -27.5l-2 112q29 17 75 28t90 11q110 0 171 -52t61 -145q0 -25 -6 -59l-52 -269h-125l6 44q-26 -28 -64.5 -44t-80.5 -16zM226 84
q47 0 84.5 32.5t52.5 86.5q-19 9 -47.5 15t-52.5 6q-49 0 -79.5 -22.5t-30.5 -58.5q0 -27 19.5 -43t53.5 -16zM304 777h117l103 -167h-114l-56 91l-91 -91h-127z" />
    <glyph glyph-name="ucircumflex.alt" horiz-adv-x="608" 
d="M274 -16q-104 0 -159 48.5t-55 138.5q0 28 7 67l53 271h139l-55 -281q-4 -19 -4 -38q0 -83 81 -83q48 0 75 29t39 92l54 281h139l-56 -288q-24 -122 -87 -179.5t-171 -57.5zM337 777h117l103 -167h-114l-56 91l-91 -91h-127z" />
    <glyph glyph-name="atilde.alt" unicode="&#xe3;" horiz-adv-x="569" 
d="M190 -16q-77 0 -121 40.5t-44 109.5q0 82 61.5 133t161.5 51q71 0 132 -26q1 5 1 21q-2 50 -31.5 74.5t-90.5 24.5q-35 0 -74 -10.5t-68 -27.5l-2 112q29 17 75 28t90 11q110 0 171 -52t61 -145q0 -25 -6 -59l-52 -269h-125l6 44q-26 -28 -64.5 -44t-80.5 -16zM226 84
q47 0 84.5 32.5t52.5 86.5q-19 9 -47.5 15t-52.5 6q-49 0 -79.5 -22.5t-30.5 -58.5q0 -27 19.5 -43t53.5 -16zM414 613q-28 0 -46 9.5t-31 21t-25 21t-28 9.5q-18 0 -28 -14t-15 -45h-93q10 76 43.5 115t88.5 39q27 0 45.5 -9.5t31 -21t25 -21t27.5 -9.5q18 0 28 13.5
t16 45.5h92q-10 -76 -43 -115t-88 -39z" />
    <glyph glyph-name="uni0304" horiz-adv-x="0" 
d="M-68 731h319l-18 -99h-319z" />
    <glyph glyph-name="uni0304.cap" horiz-adv-x="0" 
d="M-27 947h322l-19 -101h-322z" />
    <glyph glyph-name="macron" unicode="&#xaf;" horiz-adv-x="500" 
d="M203 731h319l-18 -99h-319z" />
    <glyph glyph-name="uni0308" horiz-adv-x="0" 
d="M185 616q-30 0 -48 17.5t-18 45.5q0 32 22 54t56 22q29 0 47 -17.5t18 -45.5q0 -33 -22 -54.5t-55 -21.5zM-29 616q-30 0 -48 17.5t-18 45.5q0 32 22 54t56 22q29 0 47 -17.5t18 -45.5q0 -33 -22 -54.5t-55 -21.5z" />
    <glyph glyph-name="uni0308.cap" horiz-adv-x="0" 
d="M90 911q0 -34 -22.5 -56t-56.5 -22q-29 0 -47.5 18t-18.5 46q0 33 22.5 55t56.5 22q29 0 47.5 -17.5t18.5 -45.5zM307 911q0 -34 -22.5 -56t-56.5 -22q-29 0 -47.5 18t-18.5 46q0 33 22.5 55t56.5 22q29 0 47.5 -17.5t18.5 -45.5z" />
    <glyph glyph-name="dieresis" unicode="&#xa8;" horiz-adv-x="500" 
d="M456 616q-30 0 -48 17.5t-18 45.5q0 32 22 54t56 22q29 0 47 -17.5t18 -45.5q0 -33 -22 -54.5t-55 -21.5zM242 616q-30 0 -48 17.5t-18 45.5q0 32 22 54t56 22q29 0 47 -17.5t18 -45.5q0 -33 -22 -54.5t-55 -21.5z" />
    <glyph glyph-name="Adieresis" unicode="&#xc4;" horiz-adv-x="794" 
d="M417 760h156l149 -760h-160l-32 200h-287l-109 -200h-160zM512 318l-46 291l-159 -291h205zM480 911q0 -34 -22.5 -56t-56.5 -22q-29 0 -47.5 18t-18.5 46q0 33 22.5 55t56.5 22q29 0 47.5 -17.5t18.5 -45.5zM697 911q0 -34 -22.5 -56t-56.5 -22q-29 0 -47.5 18t-18.5 46
q0 33 22.5 55t56.5 22q29 0 47.5 -17.5t18.5 -45.5z" />
    <glyph glyph-name="Edieresis" unicode="&#xcb;" horiz-adv-x="666" 
d="M190 760h483l-26 -128h-334l-36 -182h294l-23 -127h-295l-38 -195h361l-24 -128h-510zM429 911q0 -34 -22.5 -56t-56.5 -22q-29 0 -47.5 18t-18.5 46q0 33 22.5 55t56.5 22q29 0 47.5 -17.5t18.5 -45.5zM646 911q0 -34 -22.5 -56t-56.5 -22q-29 0 -47.5 18t-18.5 46
q0 33 22.5 55t56.5 22q29 0 47.5 -17.5t18.5 -45.5z" />
    <glyph glyph-name="Idieresis" unicode="&#xcf;" horiz-adv-x="335" 
d="M190 760h153l-148 -760h-153zM251 911q0 -34 -22.5 -56t-56.5 -22q-29 0 -47.5 18t-18.5 46q0 33 22.5 55t56.5 22q29 0 47.5 -17.5t18.5 -45.5zM468 911q0 -34 -22.5 -56t-56.5 -22q-29 0 -47.5 18t-18.5 46q0 33 22.5 55t56.5 22q29 0 47.5 -17.5t18.5 -45.5z" />
    <glyph glyph-name="Odieresis" unicode="&#xd6;" horiz-adv-x="892" 
d="M445 120q70 0 130 38t97.5 106.5t37.5 153.5q0 101 -58.5 161.5t-156.5 60.5q-70 0 -130 -38t-97 -107t-37 -153q0 -100 58.5 -161t155.5 -61zM435 -16q-102 0 -183.5 44t-129 124.5t-47.5 184.5q0 117 54.5 217t153.5 161t223 61q102 0 183.5 -44t129 -124.5
t47.5 -184.5q0 -86 -30 -164t-87.5 -140t-138.5 -98.5t-175 -36.5zM518 911q0 -34 -22.5 -56t-56.5 -22q-29 0 -47.5 18t-18.5 46q0 33 22.5 55t56.5 22q29 0 47.5 -17.5t18.5 -45.5zM735 911q0 -34 -22.5 -56t-56.5 -22q-29 0 -47.5 18t-18.5 46q0 33 22.5 55t56.5 22
q29 0 47.5 -17.5t18.5 -45.5z" />
    <glyph glyph-name="Udieresis" unicode="&#xdc;" horiz-adv-x="834" 
d="M395 -16q-144 0 -222.5 72t-78.5 205q0 36 11 95l78 404h154l-80 -407q-8 -43 -8 -71q0 -80 39 -121t116 -41q88 0 136 52t71 171l82 417h154l-87 -444q-34 -170 -123 -251t-242 -81zM493 911q0 -34 -22.5 -56t-56.5 -22q-29 0 -47.5 18t-18.5 46q0 33 22.5 55t56.5 22
q29 0 47.5 -17.5t18.5 -45.5zM710 911q0 -34 -22.5 -56t-56.5 -22q-29 0 -47.5 18t-18.5 46q0 33 22.5 55t56.5 22q29 0 47.5 -17.5t18.5 -45.5z" />
    <glyph glyph-name="Ydieresis" unicode="&#x178;" horiz-adv-x="722" 
d="M296 318l-187 442h159l121 -323l246 323h174l-362 -446l-61 -314h-152zM445 911q0 -34 -22.5 -56t-56.5 -22q-29 0 -47.5 18t-18.5 46q0 33 22.5 55t56.5 22q29 0 47.5 -17.5t18.5 -45.5zM662 911q0 -34 -22.5 -56t-56.5 -22q-29 0 -47.5 18t-18.5 46q0 33 22.5 55
t56.5 22q29 0 47.5 -17.5t18.5 -45.5z" />
    <glyph glyph-name="adieresis" horiz-adv-x="650" 
d="M243 -16q-90 0 -144.5 63.5t-54.5 167.5q0 80 35 150.5t97.5 115t137.5 44.5q56 0 96.5 -21.5t66.5 -65.5l17 71h131l-98 -509h-131l8 55q-29 -33 -71.5 -52t-89.5 -19zM296 108q62 0 105.5 50t43.5 121q0 57 -30 89.5t-83 32.5q-62 0 -105.5 -50t-43.5 -121
q0 -57 30.5 -89.5t82.5 -32.5zM509 616q-30 0 -48 17.5t-18 45.5q0 32 22 54t56 22q29 0 47 -17.5t18 -45.5q0 -33 -22 -54.5t-55 -21.5zM295 616q-30 0 -48 17.5t-18 45.5q0 32 22 54t56 22q29 0 47 -17.5t18 -45.5q0 -33 -22 -54.5t-55 -21.5z" />
    <glyph glyph-name="edieresis" unicode="&#xeb;" horiz-adv-x="598" 
d="M317 -16q-128 0 -200 62.5t-72 173.5q0 83 36 152.5t102.5 111t150.5 41.5q99 0 158 -55.5t59 -150.5q0 -48 -15 -107h-358q5 -61 43.5 -87.5t119.5 -26.5q37 0 77.5 9t72.5 25l-1 -112q-29 -16 -76 -26t-97 -10zM422 309q1 5 1 15q0 45 -25.5 70t-71.5 25
q-49 0 -86.5 -29.5t-52.5 -80.5h235zM470 616q-30 0 -48 17.5t-18 45.5q0 32 22 54t56 22q29 0 47 -17.5t18 -45.5q0 -33 -22 -54.5t-55 -21.5zM256 616q-30 0 -48 17.5t-18 45.5q0 32 22 54t56 22q29 0 47 -17.5t18 -45.5q0 -33 -22 -54.5t-55 -21.5z" />
    <glyph glyph-name="idieresis" unicode="&#xef;" horiz-adv-x="287" 
d="M124 509h139l-99 -509h-139zM324 616q-30 0 -48 17.5t-18 45.5q0 32 22 54t56 22q29 0 47 -17.5t18 -45.5q0 -33 -22 -54.5t-55 -21.5zM110 616q-30 0 -48 17.5t-18 45.5q0 32 22 54t56 22q29 0 47 -17.5t18 -45.5q0 -33 -22 -54.5t-55 -21.5z" />
    <glyph glyph-name="odieresis" unicode="&#xf6;" horiz-adv-x="628" 
d="M286 -16q-69 0 -123.5 29t-86 82.5t-31.5 124.5q0 81 37.5 150.5t106 112t153.5 42.5q69 0 124 -29t86.5 -82.5t31.5 -124.5q0 -81 -38 -150.5t-106.5 -112t-153.5 -42.5zM297 108q39 0 72.5 22t54.5 61.5t21 87.5q0 57 -30 89.5t-83 32.5q-62 0 -105.5 -50t-43.5 -121
q0 -56 30.5 -89t83.5 -33zM492 616q-30 0 -48 17.5t-18 45.5q0 32 22 54t56 22q29 0 47 -17.5t18 -45.5q0 -33 -22 -54.5t-55 -21.5zM278 616q-30 0 -48 17.5t-18 45.5q0 32 22 54t56 22q29 0 47 -17.5t18 -45.5q0 -33 -22 -54.5t-55 -21.5z" />
    <glyph glyph-name="udieresis" unicode="&#xfc;" horiz-adv-x="612" 
d="M211 -16q-77 0 -117 42t-40 121q0 27 7 62l59 300h139l-56 -284q-4 -24 -4 -40q0 -78 72 -78q47 0 80.5 34.5t44.5 93.5l53 274h139l-99 -509h-134l9 54q-26 -33 -66 -51.5t-87 -18.5zM478 616q-30 0 -48 17.5t-18 45.5q0 32 22 54t56 22q29 0 47 -17.5t18 -45.5
q0 -33 -22 -54.5t-55 -21.5zM264 616q-30 0 -48 17.5t-18 45.5q0 32 22 54t56 22q29 0 47 -17.5t18 -45.5q0 -33 -22 -54.5t-55 -21.5z" />
    <glyph glyph-name="ydieresis" horiz-adv-x="581" 
d="M178 45l-113 464h144l64 -328l189 328h152l-476 -754h-147zM469 616q-30 0 -48 17.5t-18 45.5q0 32 22 54t56 22q29 0 47 -17.5t18 -45.5q0 -33 -22 -54.5t-55 -21.5zM255 616q-30 0 -48 17.5t-18 45.5q0 32 22 54t56 22q29 0 47 -17.5t18 -45.5q0 -33 -22 -54.5
t-55 -21.5z" />
    <glyph glyph-name="adieresis.alt" unicode="&#xe4;" horiz-adv-x="569" 
d="M190 -16q-77 0 -121 40.5t-44 109.5q0 82 61.5 133t161.5 51q71 0 132 -26q1 5 1 21q-2 50 -31.5 74.5t-90.5 24.5q-35 0 -74 -10.5t-68 -27.5l-2 112q29 17 75 28t90 11q110 0 171 -52t61 -145q0 -25 -6 -59l-52 -269h-125l6 44q-26 -28 -64.5 -44t-80.5 -16zM226 84
q47 0 84.5 32.5t52.5 86.5q-19 9 -47.5 15t-52.5 6q-49 0 -79.5 -22.5t-30.5 -58.5q0 -27 19.5 -43t53.5 -16zM446 616q-30 0 -48 17.5t-18 45.5q0 32 22 54t56 22q29 0 47 -17.5t18 -45.5q0 -33 -22 -54.5t-55 -21.5zM232 616q-30 0 -48 17.5t-18 45.5q0 32 22 54t56 22
q29 0 47 -17.5t18 -45.5q0 -33 -22 -54.5t-55 -21.5z" />
    <glyph glyph-name="udieresis.alt" horiz-adv-x="608" 
d="M274 -16q-104 0 -159 48.5t-55 138.5q0 28 7 67l53 271h139l-55 -281q-4 -19 -4 -38q0 -83 81 -83q48 0 75 29t39 92l54 281h139l-56 -288q-24 -122 -87 -179.5t-171 -57.5zM479 616q-30 0 -48 17.5t-18 45.5q0 32 22 54t56 22q29 0 47 -17.5t18 -45.5q0 -33 -22 -54.5
t-55 -21.5zM265 616q-30 0 -48 17.5t-18 45.5q0 32 22 54t56 22q29 0 47 -17.5t18 -45.5q0 -33 -22 -54.5t-55 -21.5z" />
    <glyph glyph-name="ydieresis.alt" unicode="&#xff;" horiz-adv-x="587" 
d="M30 -254q-29 0 -57.5 7t-44.5 18l32 119q28 -18 64 -18q37 0 63.5 21.5t66.5 85.5l25 40l-115 490h143l64 -365l196 365h153l-332 -560q-66 -112 -124 -157.5t-134 -45.5zM466 616q-30 0 -48 17.5t-18 45.5q0 32 22 54t56 22q29 0 47 -17.5t18 -45.5q0 -33 -22 -54.5
t-55 -21.5zM252 616q-30 0 -48 17.5t-18 45.5q0 32 22 54t56 22q29 0 47 -17.5t18 -45.5q0 -33 -22 -54.5t-55 -21.5z" />
    <glyph glyph-name="uni030A" horiz-adv-x="0" 
d="M84 579q-61 0 -101 38t-40 95t40 95t101 38t101 -38t40 -95t-40 -95t-101 -38zM84 654q27 0 42.5 16t15.5 42q0 27 -15.5 42.5t-42.5 15.5t-42.5 -15.5t-15.5 -42.5q0 -26 16 -42t42 -16z" />
    <glyph glyph-name="uni030A.cap" horiz-adv-x="0" 
d="M132 817q-60 0 -100.5 38.5t-40.5 95.5t40 95t101 38t101 -38t40 -95t-40.5 -95.5t-100.5 -38.5zM132 893q27 0 42.5 16t15.5 42q0 27 -15.5 42.5t-42.5 15.5t-42.5 -15.5t-15.5 -42.5q0 -26 16 -42t42 -16z" />
    <glyph glyph-name="Aring" unicode="&#xc5;" horiz-adv-x="794" 
d="M417 760h156l149 -760h-160l-32 200h-287l-109 -200h-160zM512 318l-46 291l-159 -291h205zM524 817q-60 0 -100.5 38.5t-40.5 95.5t40 95t101 38t101 -38t40 -95t-40.5 -95.5t-100.5 -38.5zM524 893q27 0 42.5 16t15.5 42q0 27 -15.5 42.5t-42.5 15.5t-42.5 -15.5
t-15.5 -42.5q0 -26 16 -42t42 -16z" />
    <glyph glyph-name="aring" horiz-adv-x="650" 
d="M243 -16q-90 0 -144.5 63.5t-54.5 167.5q0 80 35 150.5t97.5 115t137.5 44.5q56 0 96.5 -21.5t66.5 -65.5l17 71h131l-98 -509h-131l8 55q-29 -33 -71.5 -52t-89.5 -19zM296 108q62 0 105.5 50t43.5 121q0 57 -30 89.5t-83 32.5q-62 0 -105.5 -50t-43.5 -121
q0 -57 30.5 -89.5t82.5 -32.5zM404 579q-61 0 -101 38t-40 95t40 95t101 38t101 -38t40 -95t-40 -95t-101 -38zM404 654q27 0 42.5 16t15.5 42q0 27 -15.5 42.5t-42.5 15.5t-42.5 -15.5t-15.5 -42.5q0 -26 16 -42t42 -16z" />
    <glyph glyph-name="aring.alt" unicode="&#xe5;" horiz-adv-x="569" 
d="M190 -16q-77 0 -121 40.5t-44 109.5q0 82 61.5 133t161.5 51q71 0 132 -26q1 5 1 21q-2 50 -31.5 74.5t-90.5 24.5q-35 0 -74 -10.5t-68 -27.5l-2 112q29 17 75 28t90 11q110 0 171 -52t61 -145q0 -25 -6 -59l-52 -269h-125l6 44q-26 -28 -64.5 -44t-80.5 -16zM226 84
q47 0 84.5 32.5t52.5 86.5q-19 9 -47.5 15t-52.5 6q-49 0 -79.5 -22.5t-30.5 -58.5q0 -27 19.5 -43t53.5 -16zM341 579q-61 0 -101 38t-40 95t40 95t101 38t101 -38t40 -95t-40 -95t-101 -38zM341 654q27 0 42.5 16t15.5 42q0 27 -15.5 42.5t-42.5 15.5t-42.5 -15.5
t-15.5 -42.5q0 -26 16 -42t42 -16z" />
    <glyph glyph-name="uniFEFF" horiz-adv-x="0" 
 />
    </font>
</defs>
</svg>
