<svg width="16" height="16" viewBox="0 0 16 16" fill="none" xmlns="http://www.w3.org/2000/svg">
<path fill-rule="evenodd" clip-rule="evenodd" d="M6.93124 0.442697C7.5215 -0.147565 8.4785 -0.147567 9.06876 0.442697L15.5573 6.93124C16.1476 7.5215 16.1476 8.4785 15.5573 9.06876L9.06876 15.5573C8.4785 16.1476 7.5215 16.1476 6.93124 15.5573L0.442697 9.06876C-0.147565 8.4785 -0.147567 7.5215 0.442697 6.93124L6.93124 0.442697ZM8 1.51146L1.51146 8L8 14.4885L14.4885 8L8 1.51146ZM7.88015 8.94891L6.25408 10.575L5.18531 9.50622L6.81138 7.88015L5.18531 6.25408L6.25408 5.18531L7.88015 6.81138L9.50622 5.18531L10.575 6.25408L8.94891 7.88015L10.575 9.50622L9.50622 10.575L7.88015 8.94891Z" fill="#F78C8C"/>
</svg>
